<svg width="142" height="140" viewBox="0 0 142 140" fill="none" xmlns="http://www.w3.org/2000/svg">
<g clip-path="url(#clip0_39_1015)">
<path fill-rule="evenodd" clip-rule="evenodd" d="M71.0419 18.2622L72.0992 20.6107L74.7046 20.8996L72.7788 22.6222L73.3048 25.1687L71.0581 23.8848L68.779 25.1687L69.3158 22.6516L67.3792 20.8969L69.9577 20.6241L71.0419 18.2568V18.2622ZM52.1136 23.4648L54.2147 24.9734L56.6151 23.9329L55.8167 26.3804L57.5564 28.325H54.9618L53.6348 30.5692L52.831 28.1244L50.2715 27.5654L52.3698 26.0514L52.1136 23.4648ZM90.0592 23.1438L89.7895 25.701L91.8986 27.2444L89.3606 27.782L88.5326 30.2483L87.2326 28.0201L84.611 28.0014L86.3453 26.0888L85.5523 23.6092L87.9231 24.6551L90.0538 23.1411L90.0592 23.1438ZM80.8755 19.4605L81.2828 22.0016L83.7237 22.9512L81.4123 24.1201L81.2558 26.7148L79.4191 24.8985L76.8838 25.5539L78.0598 23.2615L76.6465 21.0708L79.2087 21.472L80.8729 19.4632L80.8755 19.4605ZM61.2325 19.6264L62.867 21.6245L65.4589 21.234L64.0483 23.3926L65.2215 25.717L62.7159 25.0537L60.8495 26.8806L60.712 24.3127L58.3844 23.1171L60.8064 22.1942L61.2352 19.629L61.2325 19.6264Z" fill="#E4BF6B"/>
<path fill-rule="evenodd" clip-rule="evenodd" d="M101.253 6.48353C101.682 6.70664 102.106 6.93736 102.53 7.17061C101.72 6.25028 101.372 5.13473 101.056 3.65409C104.666 4.70119 105.809 6.02971 106.244 9.3079L106.191 9.35101C106.953 9.84033 107.705 10.3423 108.447 10.8595C107.604 9.65778 107.344 8.28616 107.18 6.48353C111.272 8.22024 112.431 9.94174 112.481 13.8487L112.436 13.8791C113.001 14.3431 113.559 14.8147 114.107 15.2938C113.519 13.9374 113.458 12.4745 113.539 10.6237C117.732 13.1211 118.8 15.1747 118.34 19.3428C118.807 19.8296 119.264 20.3214 119.716 20.8234C119.456 19.5051 119.625 18.1436 119.964 16.4753C123.568 19.4772 124.389 21.6246 123.467 25.3794C124.081 26.1984 124.677 27.0299 125.255 27.8768C124.959 26.1096 125.376 24.4388 126.108 22.3446C129.761 26.3505 130.268 28.8934 128.488 33.1351C129.089 34.2227 129.662 35.3281 130.202 36.4538C129.94 34.3596 130.611 32.6128 131.755 30.3867C134.895 34.9706 134.976 37.5744 132.449 41.6944C133.04 43.2561 133.572 44.8433 134.047 46.4583C133.863 43.7911 134.895 41.9175 136.652 39.5089C139.209 44.8635 138.851 47.6068 135.471 51.5518L135.319 51.5264C135.698 53.3392 136.006 55.1824 136.236 57.0459C136.266 53.6992 137.707 51.7724 140.174 49.3181C141.976 55.3878 141.14 58.2172 136.925 61.8022L136.64 61.7058C136.7 62.8594 136.73 64.0206 136.73 65.1894C136.73 65.9525 136.718 66.7106 136.693 67.4661C136.753 67.8008 136.806 68.1507 136.849 68.5208C136.978 63.942 138.757 62.0354 142.032 59.6167C142.93 65.8866 141.693 68.5614 137.001 71.4897C136.816 71.3984 136.637 71.3072 136.463 71.2134C136.281 73.229 136.011 75.2192 135.652 77.179C136.751 73.8932 138.8 72.4379 142.021 70.7824C141.9 77.4376 140.169 80.0034 134.809 82.2446L134.567 82.0697C134.148 83.667 133.673 85.2414 133.141 86.788C134.936 83.0788 137.493 81.7832 141.474 80.4699C140.189 87.8199 137.826 90.3603 131.502 91.9094C131.417 91.8232 131.331 91.7395 131.247 91.6558C130.828 92.6167 130.389 93.5649 129.93 94.5005C132.035 92.8195 134.486 92.244 137.745 91.8105C135.052 98.9982 132.184 101.293 125.754 101.772C124.926 103.022 124.061 104.241 123.152 105.428C126.03 103.463 128.953 103.293 132.951 103.534C128.607 110.625 125.103 112.347 117.997 111.401C117.093 112.329 116.164 113.234 115.21 114.109C117.942 113.328 120.567 113.761 123.922 114.659C118.439 120.546 114.728 121.659 108.349 119.595C107.021 120.521 105.66 121.398 104.265 122.224C107.612 121.872 110.432 122.99 114.006 124.864C106.701 129.863 102.462 130.137 96.0805 126.329C93.387 127.452 90.6077 128.403 87.7476 129.164C91.6452 129.585 94.3185 131.577 97.6179 134.703C88.7573 137.688 84.423 136.694 78.9881 130.865C76.3173 131.194 73.5985 131.369 70.8369 131.369C68.2317 131.369 65.6645 131.212 63.1376 130.918C57.7253 136.704 53.3885 137.68 44.5557 134.706C47.7591 131.674 50.3693 129.709 54.0827 129.209C51.273 128.469 48.5392 127.546 45.8886 126.456C39.618 130.135 35.3923 129.815 28.1675 124.869C31.5325 123.104 34.231 122.009 37.3284 122.181C36.0158 121.4 34.7334 120.574 33.4813 119.707C27.3118 121.621 23.6363 120.442 18.2518 114.662C21.3265 113.838 23.7878 113.407 26.2793 113.939C25.4084 113.135 24.5602 112.309 23.7322 111.459C16.9215 112.273 13.4757 110.478 9.22216 103.536C12.7916 103.321 15.5028 103.432 18.0903 104.857C17.3279 103.838 16.5933 102.794 15.8915 101.729C9.82801 101.161 7.04616 98.8004 4.42839 91.813C7.2986 92.1933 9.54023 92.6852 11.4739 93.9452C11.1432 93.2607 10.8277 92.5711 10.5197 91.8739C4.30975 90.3248 1.97471 87.7641 0.69738 80.475C3.921 81.5398 6.21312 82.592 7.92211 84.9245C7.63686 84.0092 7.3718 83.0838 7.12694 82.1483C1.95451 79.9299 0.270762 77.3413 0.152117 70.7849C2.70678 72.1007 4.52432 73.2873 5.71582 75.3612C5.51892 74.0732 5.35736 72.7726 5.23366 71.4593L5.17308 71.4897C0.480285 68.5614 -0.756654 65.8866 0.14202 59.6167C2.62347 61.4498 4.24664 62.9912 4.94336 65.6255V65.1894C4.94336 63.9927 4.97366 62.8036 5.03676 61.6222C1.00283 58.1209 0.225324 55.2863 1.99743 49.3181C3.92352 51.2349 5.22357 52.8271 5.71582 55.0277C5.91272 53.7449 6.14749 52.4721 6.41759 51.2146C3.30253 47.4471 3.03494 44.7089 5.51639 39.5064C6.91994 41.4307 7.86153 43.0153 8.08872 44.9345C8.49515 43.6669 8.93691 42.4144 9.41654 41.1822C7.20519 37.3463 7.40714 34.7729 10.4137 30.3817C11.3502 32.1995 11.9687 33.6979 12.0217 35.3281C12.4836 34.4103 12.9683 33.5052 13.4732 32.6128C11.951 28.6754 12.5619 26.1806 16.0632 22.3396C16.6766 24.0966 17.0679 25.5544 17.0048 27.0223C17.5172 26.2922 18.0448 25.5772 18.5876 24.8698C17.8631 21.4218 18.7668 19.3377 22.205 16.4728C22.4877 17.8672 22.6518 19.0487 22.5483 20.1693C22.9547 19.7307 23.3662 19.2972 23.7827 18.8687C23.4571 15.0124 24.5981 13.0222 28.6295 10.6212C28.6976 12.1881 28.6648 13.476 28.2988 14.6549C28.7582 14.2645 29.2252 13.8791 29.6948 13.4988C29.8109 9.83272 31.0175 8.16193 34.9884 6.47846C34.8495 7.98953 34.645 9.19888 34.0846 10.2587C34.7031 9.84033 35.3292 9.43214 35.9628 9.03662C36.4222 5.95111 37.6011 4.66316 41.1125 3.64648C40.8499 4.88627 40.5622 5.86998 39.9992 6.6965L40.4132 6.47846C40.2719 6.55452 40.1305 6.63058 39.9891 6.70918C39.4742 7.46471 38.7295 8.0884 37.5657 8.65632C40.1507 7.82726 41.5593 8.47885 43.5384 9.88343C40.1785 11.5745 38.4392 11.3742 35.9249 9.30283L35.9476 9.1355C35.2787 9.57158 34.6173 10.0178 33.9635 10.4792C33.4611 11.3362 32.7013 12.1019 31.5249 12.8599C34.4456 11.5213 36.19 12.0892 38.7067 13.4583C34.9985 15.915 32.9285 15.9277 29.6872 13.8462V13.7625C29.1672 14.1986 28.6522 14.6448 28.1423 15.0961C27.7207 16.166 26.9836 17.1649 25.7492 18.2247C28.786 16.2978 30.808 16.6629 33.8044 17.7988C30.0608 21.0871 27.7662 21.4142 23.8584 19.5989C23.8483 19.5025 23.8357 19.4087 23.8256 19.3149C23.3586 19.8144 22.9017 20.3214 22.4498 20.8336C22.2176 22.0049 21.642 23.1458 20.5439 24.4338C23.245 22.0531 25.2973 22.0962 28.4351 22.7478C25.2519 26.5837 23.0355 27.2683 18.893 26.0893C18.8349 25.884 18.7794 25.6837 18.7314 25.4885C18.0852 26.3784 17.4566 27.2835 16.8558 28.2063C16.6387 29.2103 16.1894 30.2549 15.4346 31.4364C18.0701 28.3762 20.3546 28.11 23.9367 28.3509C20.9857 33.0996 18.633 34.1974 13.8518 33.528L13.7938 33.3911C13.0567 34.783 12.365 36.2054 11.7263 37.653C11.5673 38.226 11.3426 38.8294 11.0448 39.4785C13.2309 36.0837 15.4573 35.5005 19.0394 35.2419C16.8205 40.2442 14.6849 41.707 10.0729 41.7679C9.34838 43.7632 8.71476 45.8067 8.18212 47.8882C9.8482 44.8331 11.999 43.9584 15.3538 43.1775C13.8847 48.6488 11.946 50.5807 7.37685 51.4377C7.02344 53.2175 6.74071 55.0252 6.53371 56.8532C7.81104 53.9832 9.85073 52.8017 12.9658 51.534C12.3372 57.4439 10.6661 59.8195 6.1702 61.4878C6.12729 62.469 6.10205 63.4552 6.10205 64.4465C6.10205 64.7305 6.10205 65.0119 6.1071 65.2933C7.0714 62.9887 8.79554 61.6855 11.3123 60.1973C11.5446 65.9576 10.3203 68.5766 6.40497 70.8356C6.58168 72.6889 6.83411 74.5169 7.15976 76.3221C7.64948 73.3785 9.2777 71.6266 11.8374 69.4919C13.0693 75.5437 12.1832 78.4619 8.31844 81.5322C8.65166 82.7847 9.01769 84.0219 9.42159 85.2465C9.49479 81.9784 10.9867 79.7752 13.4177 77.0015C15.831 83.492 15.3513 86.8792 11.6001 90.9561C12.577 93.1973 13.6751 95.3752 14.8843 97.4795C15.0913 97.7888 15.2933 98.1184 15.4977 98.4658C13.3318 93.1466 14.4627 90.0662 17.0704 85.6597C21.0766 92.3226 21.0412 96.009 17.3683 101.463C18.4967 103.133 19.6983 104.751 20.968 106.308C18.9157 102.203 19.5443 99.0261 21.1296 94.5765C26.5267 100.573 27.3118 104.381 24.7723 110.572C26.5494 112.397 28.4326 114.119 30.4092 115.726C30.8484 116.008 31.3003 116.325 31.7647 116.677C27.5011 112.349 27.3673 108.876 28.1423 103.501C34.7915 108.425 36.2202 112.063 34.7763 118.977C37.3234 120.711 39.9967 122.27 42.7811 123.629C42.882 123.672 42.9855 123.72 43.0865 123.766C37.4951 120.168 36.5232 116.487 36.0713 110.557C44.331 114.21 46.7368 117.747 46.8554 125.444C50.1926 126.796 53.6661 127.873 57.2482 128.649C52.1692 126.562 50.3617 123.274 48.4634 118.074C57.6723 119.38 61.1181 122.191 63.4077 129.671C65.8437 129.952 68.3226 130.102 70.8344 130.102C73.5253 130.102 76.1759 129.932 78.7785 129.61C81.0656 122.179 84.5189 119.375 93.7026 118.074C91.8724 123.092 90.123 126.327 85.4454 128.423C88.8457 127.627 92.1425 126.557 95.3131 125.242C95.4696 117.684 97.9056 114.177 106.092 110.557C105.676 116.015 104.817 119.57 100.327 122.904C102.752 121.641 105.09 120.227 107.327 118.675C105.986 111.956 107.47 108.351 114.021 103.498C114.736 108.445 114.678 111.784 111.338 115.658C113.415 113.964 115.389 112.144 117.245 110.207C114.885 104.229 115.743 100.451 121.034 94.574C122.437 98.5063 123.091 101.445 121.804 104.913C122.763 103.673 123.677 102.396 124.548 101.087C121.122 95.8366 121.18 92.168 125.096 85.6572C127.355 89.478 128.506 92.3023 127.36 96.4502C128.408 94.5512 129.364 92.5914 130.228 90.5808C126.787 86.6688 126.408 83.2917 128.746 77.0015C130.856 79.4076 132.26 81.3852 132.641 83.9991C132.926 83.0737 133.189 82.1407 133.434 81.1975C129.92 78.2464 129.14 75.3232 130.326 69.4919C132.51 71.3122 134.014 72.8563 134.713 75.095C134.956 73.5966 135.145 72.083 135.284 70.5516C131.742 68.3535 130.626 65.7193 130.849 60.1973C132.982 61.4574 134.547 62.5856 135.559 64.3046C135.559 63.293 135.531 62.289 135.483 61.29C131.369 59.6319 129.801 57.2132 129.198 51.534C131.828 52.604 133.694 53.6156 134.978 55.6337C134.787 54.1835 134.547 52.751 134.264 51.3337C130.066 50.4236 128.221 48.4358 126.81 43.1775C129.617 43.8317 131.583 44.5517 133.126 46.5597C132.671 44.932 132.159 43.3297 131.586 41.7552C127.32 41.593 125.26 40.0565 123.124 35.2394C126.189 35.4625 128.261 35.9214 130.165 38.1753C129.491 36.6085 128.756 35.0721 127.963 33.5711C123.414 34.139 121.105 32.9804 118.227 28.3483C121.809 28.1075 124.093 28.3762 126.729 31.4338C126.391 30.904 126.115 30.4045 125.893 29.9202C125.073 28.5765 124.207 27.2683 123.296 25.9905L123.268 26.0868C119.123 27.2657 116.909 26.5812 113.726 22.7452C116.864 22.0936 118.916 22.0505 121.617 24.4312C120.786 23.4551 120.254 22.5652 119.943 21.6804C119.363 20.9933 118.767 20.3189 118.159 19.6572C114.337 21.399 112.052 21.0389 108.357 17.7912C111.355 16.6553 113.375 16.2902 116.414 18.2171C115.49 17.4261 114.847 16.6705 114.405 15.8922C113.701 15.2406 112.979 14.6042 112.247 13.9831C109.134 15.9175 107.077 15.8491 103.457 13.4507C105.974 12.0816 107.718 11.5137 110.639 12.8523C109.8 12.3123 109.174 11.7697 108.702 11.1917C107.857 10.573 106.996 9.97216 106.12 9.39411C103.666 11.3767 101.932 11.5415 98.6251 9.87836C100.602 8.47378 102.01 7.82219 104.598 8.65125C103.702 8.21517 103.055 7.7436 102.568 7.20611C102.131 6.95764 101.692 6.71171 101.25 6.47339L101.253 6.48353Z" fill="#E4BF6B"/>
<path fill-rule="evenodd" clip-rule="evenodd" d="M71.0419 108.474L72.0992 106.126L74.7046 105.837L72.7788 104.114L73.3048 101.568L71.0581 102.851L68.779 101.568L69.3158 104.085L67.3792 105.839L69.9577 106.112L71.0419 108.479V108.474ZM52.1136 103.271L54.2147 101.763L56.6151 102.803L55.8167 100.356L57.5564 98.4112H54.9618L53.6348 96.167L52.831 98.6118L50.2715 99.1709L52.3698 100.685L52.1136 103.271ZM90.0592 103.592L89.7895 101.035L91.8986 99.4918L89.3606 98.9542L88.5326 96.488L87.2326 98.7161L84.611 98.7349L86.3453 100.647L85.5523 103.127L87.9231 102.081L90.0538 103.595L90.0592 103.592ZM80.8755 107.276L81.2828 104.735L83.7237 103.785L81.4123 102.616L81.2558 100.021L79.4191 101.838L76.8838 101.182L78.0598 103.475L76.6465 105.665L79.2087 105.264L80.8729 107.273L80.8755 107.276ZM61.2325 107.11L62.867 105.112L65.4589 105.502L64.0483 103.344L65.2215 101.019L62.7159 101.683L60.8495 99.8556L60.712 102.424L58.3844 103.619L60.8064 104.542L61.2352 107.107L61.2325 107.11Z" fill="#E4BF6B"/>
<path d="M34.8252 61.4277H33.1752V52.1427H29.6652V50.6577H38.3352V52.1427H34.8252V61.4277ZM41.7987 61.5777C39.5487 61.5777 37.8987 59.8077 37.8987 57.4527C37.8987 55.0977 39.5487 53.3277 41.7987 53.3277C44.0487 53.3277 45.6987 55.0977 45.6987 57.4527C45.6987 59.8077 44.0487 61.5777 41.7987 61.5777ZM41.7987 60.2427C43.1037 60.2427 44.1387 59.1927 44.1387 57.4527C44.1387 55.7127 43.1037 54.6777 41.7987 54.6777C40.4937 54.6777 39.4737 55.7127 39.4737 57.4527C39.4737 59.1927 40.4937 60.2427 41.7987 60.2427ZM54.6831 57.4527C54.6831 59.8527 53.3031 61.5777 51.1731 61.5777C50.0931 61.5777 49.1781 61.0377 48.6081 60.0777V64.3227H47.0931V53.4777H48.5031V54.9327C49.0731 53.9127 50.0481 53.3277 51.1731 53.3277C53.2881 53.3277 54.6831 55.0527 54.6831 57.4527ZM53.1081 57.4527C53.1081 55.6677 52.1631 54.6627 50.8581 54.6627C49.5981 54.6627 48.6081 55.6677 48.6081 57.4527C48.6081 59.2077 49.5831 60.2277 50.8581 60.2277C52.1631 60.2277 53.1081 59.2377 53.1081 57.4527ZM62.5788 61.4277H59.1738V50.6577H62.5788C66.0138 50.6577 67.9938 52.8477 67.9938 55.9977C67.9938 59.1027 65.9388 61.4277 62.5788 61.4277ZM60.8238 52.0827V60.0027H62.5038C64.9788 60.0027 66.3138 58.4727 66.3138 55.9977C66.3138 53.5677 64.9938 52.0827 62.5038 52.0827H60.8238ZM72.7807 61.5777C70.5307 61.5777 68.8807 59.8077 68.8807 57.4527C68.8807 55.0977 70.5307 53.3277 72.7807 53.3277C75.0307 53.3277 76.6807 55.0977 76.6807 57.4527C76.6807 59.8077 75.0307 61.5777 72.7807 61.5777ZM72.7807 60.2427C74.0857 60.2427 75.1207 59.1927 75.1207 57.4527C75.1207 55.7127 74.0857 54.6777 72.7807 54.6777C71.4757 54.6777 70.4557 55.7127 70.4557 57.4527C70.4557 59.1927 71.4757 60.2427 72.7807 60.2427ZM81.2101 61.5927C79.0351 61.5927 77.5051 59.8827 77.5051 57.4527C77.5051 55.0527 79.0651 53.3277 81.2101 53.3277C83.1751 53.3277 84.6001 54.6327 84.8851 56.7027H83.2951C83.1301 55.4277 82.3351 54.6627 81.2251 54.6627C79.9201 54.6627 79.0651 55.7727 79.0651 57.4527C79.0651 59.1477 79.9201 60.2427 81.2251 60.2427C82.3501 60.2427 83.1301 59.4927 83.3101 58.2027H84.8851C84.6151 60.3027 83.2051 61.5927 81.2101 61.5927ZM90.7451 59.9577V61.2927C90.2801 61.5027 89.8751 61.5777 89.3951 61.5777C87.9251 61.5777 86.9051 60.7827 86.9051 59.0277V54.7677H85.1501V53.4777H86.9051V51.1227H88.4201V53.4777H90.8201V54.7677H88.4201V58.6827C88.4201 59.7777 88.9451 60.1677 89.7551 60.1677C90.1151 60.1677 90.4301 60.1077 90.7451 59.9577ZM95.2262 61.5777C92.9762 61.5777 91.3262 59.8077 91.3262 57.4527C91.3262 55.0977 92.9762 53.3277 95.2262 53.3277C97.4762 53.3277 99.1262 55.0977 99.1262 57.4527C99.1262 59.8077 97.4762 61.5777 95.2262 61.5777ZM95.2262 60.2427C96.5312 60.2427 97.5662 59.1927 97.5662 57.4527C97.5662 55.7127 96.5312 54.6777 95.2262 54.6777C93.9212 54.6777 92.9012 55.7127 92.9012 57.4527C92.9012 59.1927 93.9212 60.2427 95.2262 60.2427ZM102.036 57.3627V61.4277H100.521V53.4777H101.931V55.1577C102.486 54.0627 103.686 53.3727 104.991 53.3727V54.9477C103.281 54.8577 102.036 55.6077 102.036 57.3627ZM112.34 59.0577C112.34 60.6177 111.125 61.5777 109.01 61.5777C106.91 61.5777 105.665 60.5427 105.515 58.8327H106.97C107.03 59.8227 107.825 60.4377 109.04 60.4377C110.105 60.4377 110.81 60.0627 110.81 59.3127C110.81 58.6527 110.405 58.3677 109.415 58.1727L108.125 57.9327C106.655 57.6477 105.83 56.8977 105.83 55.6977C105.83 54.3027 107.045 53.3277 108.89 53.3277C110.795 53.3277 112.085 54.3477 112.22 55.9827H110.765C110.675 55.0227 109.97 54.4677 108.905 54.4677C107.945 54.4677 107.3 54.8727 107.3 55.5627C107.3 56.2077 107.705 56.5077 108.665 56.6877L110.015 56.9427C111.59 57.2277 112.34 57.9177 112.34 59.0577ZM36.7248 78.4277H35.0748V67.6577H36.7248V72.6377L41.2848 67.6577H43.1898L38.3898 72.9377L43.3098 78.4277H41.2398L36.7248 73.4327V78.4277ZM46.9517 78.5777C44.6567 78.5777 43.1117 76.9127 43.1117 74.4077C43.1117 72.0527 44.7167 70.3277 46.9067 70.3277C49.2767 70.3277 50.8517 72.2477 50.5817 74.8277H44.6567C44.7767 76.4477 45.5867 77.3927 46.9217 77.3927C48.0467 77.3927 48.8267 76.7777 49.0817 75.7427H50.5817C50.1917 77.5127 48.8267 78.5777 46.9517 78.5777ZM46.8767 71.4677C45.6617 71.4677 44.8367 72.3377 44.6717 73.8227H48.9767C48.9017 72.3527 48.1067 71.4677 46.8767 71.4677ZM53.5725 78.4277H52.0425V67.6577H53.5725V78.4277ZM57.0553 78.4277H55.5253V67.6577H57.0553V78.4277ZM62.2781 78.5777C59.9831 78.5777 58.4381 76.9127 58.4381 74.4077C58.4381 72.0527 60.0431 70.3277 62.2331 70.3277C64.6031 70.3277 66.1781 72.2477 65.9081 74.8277H59.9831C60.1031 76.4477 60.9131 77.3927 62.2481 77.3927C63.3731 77.3927 64.1531 76.7777 64.4081 75.7427H65.9081C65.5181 77.5127 64.1531 78.5777 62.2781 78.5777ZM62.2031 71.4677C60.9881 71.4677 60.1631 72.3377 59.9981 73.8227H64.3031C64.2281 72.3527 63.4331 71.4677 62.2031 71.4677ZM68.8839 74.3627V78.4277H67.3689V70.4777H68.7789V72.1577C69.3339 71.0627 70.5339 70.3727 71.8389 70.3727V71.9477C70.1289 71.8577 68.8839 72.6077 68.8839 74.3627ZM82.1576 77.0777V78.4277H75.6026V77.5577L78.7676 74.1377C79.9676 72.8327 80.4326 72.1277 80.4326 71.2127C80.4326 70.2077 79.7276 69.5027 78.6926 69.5027C77.5676 69.5027 76.8176 70.2377 76.8176 71.3627H75.3326C75.3326 69.4877 76.7426 68.1377 78.7526 68.1377C80.6426 68.1377 82.0226 69.3677 82.0226 71.0327C82.0226 72.1877 81.5876 72.9977 79.9226 74.7677L77.8826 77.0777H82.1576ZM83.4056 73.3727C83.4056 70.0127 84.7406 68.1377 87.1406 68.1377C89.5406 68.1377 90.8906 70.0127 90.8906 73.3727C90.8906 76.7327 89.5706 78.5777 87.1406 78.5777C84.7106 78.5777 83.4056 76.7327 83.4056 73.3727ZM84.9656 73.3727C84.9656 75.8777 85.7156 77.2127 87.1406 77.2127C88.5656 77.2127 89.3306 75.8927 89.3306 73.3727C89.3306 70.8377 88.5656 69.5027 87.1406 69.5027C85.7456 69.5027 84.9656 70.8377 84.9656 73.3727ZM98.8058 77.0777V78.4277H92.2508V77.5577L95.4158 74.1377C96.6158 72.8327 97.0808 72.1277 97.0808 71.2127C97.0808 70.2077 96.3758 69.5027 95.3408 69.5027C94.2158 69.5027 93.4658 70.2377 93.4658 71.3627H91.9808C91.9808 69.4877 93.3908 68.1377 95.4008 68.1377C97.2908 68.1377 98.6708 69.3677 98.6708 71.0327C98.6708 72.1877 98.2358 72.9977 96.5708 74.7677L94.5308 77.0777H98.8058ZM100.054 73.3727C100.054 70.0127 101.389 68.1377 103.789 68.1377C106.189 68.1377 107.539 70.0127 107.539 73.3727C107.539 76.7327 106.219 78.5777 103.789 78.5777C101.359 78.5777 100.054 76.7327 100.054 73.3727ZM101.614 73.3727C101.614 75.8777 102.364 77.2127 103.789 77.2127C105.214 77.2127 105.979 75.8927 105.979 73.3727C105.979 70.8377 105.214 69.5027 103.789 69.5027C102.394 69.5027 101.614 70.8377 101.614 73.3727Z" fill="#4E473A"/>
<path fill-rule="evenodd" clip-rule="evenodd" d="M71.6954 -0.00195312L73.4123 5.58905L78.9998 5.57793L74.4733 9.0224L76.2103 14.6067L71.6954 11.1434L67.1817 14.6067L68.9186 9.0224L64.3911 5.57793L69.9796 5.58905L71.6954 -0.00195312Z" fill="#E4BF6B"/>
</g>
<defs>
<clipPath id="clip0_39_1015">
<rect width="142" height="140" fill="white"/>
</clipPath>
</defs>
</svg>
