<svg width="142" height="140" viewBox="0 0 142 140" fill="none" xmlns="http://www.w3.org/2000/svg">
<g clip-path="url(#clip0_489_2196)">
<path fill-rule="evenodd" clip-rule="evenodd" d="M71.0419 18.2622L72.0992 20.6107L74.7046 20.8996L72.7788 22.6222L73.3048 25.1687L71.0581 23.8848L68.779 25.1687L69.3158 22.6516L67.3792 20.8969L69.9577 20.6241L71.0419 18.2568V18.2622ZM52.1136 23.4648L54.2147 24.9734L56.6151 23.9329L55.8167 26.3804L57.5564 28.325H54.9618L53.6348 30.5692L52.831 28.1244L50.2715 27.5654L52.3698 26.0514L52.1136 23.4648ZM90.0592 23.1438L89.7895 25.701L91.8986 27.2444L89.3606 27.782L88.5326 30.2483L87.2326 28.0201L84.611 28.0014L86.3453 26.0888L85.5523 23.6092L87.9231 24.6551L90.0538 23.1411L90.0592 23.1438ZM80.8755 19.4605L81.2828 22.0016L83.7237 22.9512L81.4123 24.1201L81.2558 26.7148L79.4191 24.8985L76.8838 25.5539L78.0598 23.2615L76.6465 21.0708L79.2087 21.472L80.8729 19.4632L80.8755 19.4605ZM61.2325 19.6264L62.867 21.6245L65.4589 21.234L64.0483 23.3926L65.2215 25.717L62.7159 25.0537L60.8495 26.8806L60.712 24.3127L58.3844 23.1171L60.8064 22.1942L61.2352 19.629L61.2325 19.6264Z" fill="#E4BF6B"/>
<path fill-rule="evenodd" clip-rule="evenodd" d="M101.253 6.48353C101.682 6.70664 102.106 6.93736 102.53 7.17061C101.72 6.25028 101.372 5.13473 101.056 3.65409C104.666 4.70119 105.809 6.02971 106.244 9.3079L106.191 9.35101C106.953 9.84033 107.705 10.3423 108.447 10.8595C107.604 9.65778 107.344 8.28616 107.18 6.48353C111.272 8.22024 112.431 9.94174 112.481 13.8487L112.436 13.8791C113.001 14.3431 113.559 14.8147 114.107 15.2938C113.519 13.9374 113.458 12.4745 113.539 10.6237C117.732 13.1211 118.8 15.1747 118.34 19.3428C118.807 19.8296 119.264 20.3214 119.716 20.8234C119.456 19.5051 119.625 18.1436 119.964 16.4753C123.568 19.4772 124.389 21.6246 123.467 25.3794C124.081 26.1984 124.677 27.0299 125.255 27.8768C124.959 26.1096 125.376 24.4388 126.108 22.3446C129.761 26.3505 130.268 28.8934 128.488 33.1351C129.089 34.2227 129.662 35.3281 130.202 36.4538C129.94 34.3596 130.611 32.6128 131.755 30.3867C134.895 34.9706 134.976 37.5744 132.449 41.6944C133.04 43.2561 133.572 44.8433 134.047 46.4583C133.863 43.7911 134.895 41.9175 136.652 39.5089C139.209 44.8635 138.851 47.6068 135.471 51.5518L135.319 51.5264C135.698 53.3392 136.006 55.1824 136.236 57.0459C136.266 53.6992 137.707 51.7724 140.174 49.3181C141.976 55.3878 141.14 58.2172 136.925 61.8022L136.64 61.7058C136.7 62.8594 136.73 64.0206 136.73 65.1894C136.73 65.9525 136.718 66.7106 136.693 67.4661C136.753 67.8008 136.806 68.1507 136.849 68.5208C136.978 63.942 138.757 62.0354 142.032 59.6167C142.93 65.8866 141.693 68.5614 137 71.4897C136.816 71.3984 136.637 71.3072 136.463 71.2134C136.281 73.229 136.011 75.2192 135.652 77.179C136.751 73.8932 138.8 72.4379 142.021 70.7824C141.9 77.4376 140.169 80.0034 134.809 82.2446L134.567 82.0697C134.148 83.667 133.673 85.2414 133.141 86.788C134.936 83.0788 137.493 81.7832 141.474 80.4699C140.189 87.8199 137.826 90.3603 131.502 91.9094C131.417 91.8232 131.331 91.7395 131.247 91.6558C130.828 92.6167 130.389 93.5649 129.93 94.5005C132.035 92.8195 134.486 92.244 137.745 91.8105C135.052 98.9982 132.184 101.293 125.754 101.772C124.926 103.022 124.061 104.241 123.152 105.428C126.03 103.463 128.953 103.293 132.951 103.534C128.607 110.625 125.103 112.347 117.997 111.401C117.093 112.329 116.164 113.234 115.21 114.109C117.942 113.328 120.567 113.761 123.922 114.659C118.439 120.546 114.728 121.659 108.349 119.595C107.021 120.521 105.66 121.398 104.265 122.224C107.612 121.872 110.432 122.99 114.006 124.864C106.701 129.863 102.462 130.137 96.0805 126.329C93.387 127.452 90.6077 128.403 87.7476 129.164C91.6452 129.585 94.3185 131.577 97.6179 134.703C88.7573 137.688 84.423 136.694 78.988 130.865C76.3173 131.194 73.5985 131.369 70.8369 131.369C68.2317 131.369 65.6644 131.212 63.1376 130.918C57.7253 136.704 53.3885 137.68 44.5557 134.706C47.7591 131.674 50.3693 129.709 54.0827 129.209C51.273 128.469 48.5392 127.546 45.8886 126.456C39.618 130.135 35.3923 129.815 28.1675 124.869C31.5325 123.104 34.231 122.009 37.3284 122.181C36.0158 121.4 34.7334 120.574 33.4813 119.707C27.3118 121.621 23.6363 120.442 18.2518 114.662C21.3265 113.838 23.7878 113.407 26.2793 113.939C25.4084 113.135 24.5602 112.309 23.7322 111.459C16.9215 112.273 13.4757 110.478 9.22216 103.536C12.7916 103.321 15.5028 103.432 18.0903 104.857C17.3279 103.838 16.5933 102.794 15.8915 101.729C9.82801 101.161 7.04616 98.8004 4.42839 91.813C7.2986 92.1933 9.54023 92.6852 11.4739 93.9452C11.1432 93.2607 10.8277 92.5711 10.5197 91.8739C4.30975 90.3248 1.97471 87.7641 0.69738 80.475C3.921 81.5398 6.21312 82.592 7.92211 84.9245C7.63686 84.0092 7.3718 83.0838 7.12694 82.1483C1.95451 79.9299 0.270762 77.3413 0.152117 70.7849C2.70678 72.1007 4.52432 73.2873 5.71582 75.3612C5.51892 74.0732 5.35736 72.7726 5.23366 71.4593L5.17308 71.4897C0.480285 68.5614 -0.756654 65.8866 0.14202 59.6167C2.62347 61.4498 4.24664 62.9912 4.94336 65.6255V65.1894C4.94336 63.9927 4.97366 62.8036 5.03676 61.6222C1.00283 58.1209 0.225324 55.2863 1.99743 49.3181C3.92352 51.2349 5.22357 52.8271 5.71582 55.0277C5.91272 53.7449 6.14749 52.4721 6.41759 51.2146C3.30253 47.4471 3.03494 44.7089 5.51639 39.5064C6.91994 41.4307 7.86153 43.0153 8.08872 44.9345C8.49515 43.6669 8.93691 42.4144 9.41654 41.1822C7.20519 37.3463 7.40714 34.7729 10.4137 30.3817C11.3502 32.1995 11.9687 33.6979 12.0217 35.3281C12.4836 34.4103 12.9683 33.5052 13.4732 32.6128C11.951 28.6754 12.5619 26.1806 16.0632 22.3396C16.6766 24.0966 17.0679 25.5544 17.0048 27.0223C17.5172 26.2922 18.0448 25.5772 18.5876 24.8698C17.8631 21.4218 18.7668 19.3377 22.205 16.4728C22.4877 17.8672 22.6518 19.0487 22.5483 20.1693C22.9547 19.7307 23.3662 19.2972 23.7827 18.8687C23.4571 15.0124 24.5981 13.0222 28.6295 10.6212C28.6976 12.1881 28.6648 13.476 28.2988 14.6549C28.7582 14.2645 29.2252 13.8791 29.6948 13.4988C29.8109 9.83272 31.0175 8.16193 34.9884 6.47846C34.8495 7.98953 34.645 9.19888 34.0846 10.2587C34.7031 9.84033 35.3292 9.43214 35.9628 9.03662C36.4222 5.95111 37.6011 4.66316 41.1125 3.64648C40.8499 4.88627 40.5622 5.86998 39.9992 6.6965L40.4132 6.47846C40.2719 6.55452 40.1305 6.63058 39.9891 6.70918C39.4742 7.46471 38.7295 8.0884 37.5657 8.65632C40.1507 7.82726 41.5593 8.47885 43.5384 9.88343C40.1785 11.5745 38.4392 11.3742 35.9249 9.30283L35.9476 9.1355C35.2787 9.57158 34.6173 10.0178 33.9635 10.4792C33.4611 11.3362 32.7013 12.1019 31.5249 12.8599C34.4456 11.5213 36.19 12.0892 38.7068 13.4583C34.9985 15.915 32.9285 15.9277 29.6872 13.8462V13.7625C29.1672 14.1986 28.6522 14.6448 28.1423 15.0961C27.7207 16.166 26.9836 17.1649 25.7492 18.2247C28.786 16.2978 30.808 16.6629 33.8044 17.7988C30.0608 21.0871 27.7662 21.4142 23.8584 19.5989C23.8483 19.5025 23.8357 19.4087 23.8256 19.3149C23.3586 19.8144 22.9017 20.3214 22.4498 20.8336C22.2176 22.0049 21.642 23.1458 20.5439 24.4338C23.245 22.0531 25.2973 22.0962 28.4351 22.7478C25.2519 26.5837 23.0355 27.2683 18.893 26.0893C18.8349 25.884 18.7794 25.6837 18.7314 25.4885C18.0852 26.3784 17.4566 27.2835 16.8558 28.2063C16.6387 29.2103 16.1894 30.2549 15.4346 31.4364C18.0701 28.3762 20.3546 28.11 23.9367 28.3509C20.9857 33.0996 18.633 34.1974 13.8518 33.528L13.7938 33.3911C13.0567 34.783 12.365 36.2054 11.7263 37.653C11.5673 38.226 11.3426 38.8294 11.0448 39.4785C13.2309 36.0837 15.4573 35.5005 19.0394 35.2419C16.8205 40.2442 14.6849 41.707 10.0729 41.7679C9.34838 43.7632 8.71476 45.8067 8.18212 47.8882C9.8482 44.8331 11.999 43.9584 15.3538 43.1775C13.8847 48.6488 11.946 50.5807 7.37685 51.4377C7.02344 53.2175 6.74071 55.0252 6.53371 56.8532C7.81104 53.9832 9.85073 52.8017 12.9658 51.534C12.3372 57.4439 10.6661 59.8195 6.1702 61.4878C6.12729 62.469 6.10205 63.4552 6.10205 64.4465C6.10205 64.7305 6.10205 65.0119 6.1071 65.2933C7.0714 62.9887 8.79554 61.6855 11.3123 60.1973C11.5446 65.9576 10.3203 68.5766 6.40497 70.8356C6.58168 72.6889 6.83411 74.5169 7.15976 76.3221C7.64948 73.3785 9.2777 71.6266 11.8374 69.4919C13.0693 75.5437 12.1832 78.4619 8.31844 81.5322C8.65166 82.7847 9.01769 84.0219 9.42159 85.2465C9.49479 81.9784 10.9867 79.7752 13.4177 77.0015C15.831 83.492 15.3513 86.8792 11.6001 90.9561C12.577 93.1973 13.6751 95.3752 14.8843 97.4795C15.0913 97.7888 15.2933 98.1184 15.4977 98.4658C13.3318 93.1466 14.4627 90.0662 17.0704 85.6597C21.0766 92.3226 21.0412 96.009 17.3683 101.463C18.4967 103.133 19.6983 104.751 20.968 106.308C18.9157 102.203 19.5443 99.0261 21.1296 94.5765C26.5267 100.573 27.3118 104.381 24.7723 110.572C26.5494 112.397 28.4326 114.119 30.4092 115.726C30.8484 116.008 31.3003 116.325 31.7647 116.677C27.5011 112.349 27.3673 108.876 28.1423 103.501C34.7915 108.425 36.2202 112.063 34.7763 118.977C37.3234 120.711 39.9967 122.27 42.7811 123.629C42.8821 123.672 42.9855 123.72 43.0865 123.766C37.4951 120.168 36.5232 116.487 36.0713 110.557C44.331 114.21 46.7368 117.747 46.8554 125.444C50.1926 126.796 53.6661 127.873 57.2482 128.649C52.1692 126.562 50.3617 123.274 48.4634 118.074C57.6723 119.38 61.1181 122.191 63.4077 129.671C65.8437 129.952 68.3226 130.102 70.8344 130.102C73.5253 130.102 76.1759 129.932 78.7785 129.61C81.0656 122.179 84.5189 119.375 93.7026 118.074C91.8724 123.092 90.123 126.327 85.4454 128.423C88.8457 127.627 92.1425 126.557 95.3131 125.242C95.4696 117.684 97.9056 114.177 106.092 110.557C105.676 116.015 104.817 119.57 100.327 122.904C102.752 121.641 105.09 120.227 107.327 118.675C105.986 111.956 107.47 108.351 114.021 103.498C114.736 108.445 114.678 111.784 111.338 115.658C113.415 113.964 115.389 112.144 117.245 110.207C114.885 104.229 115.743 100.451 121.034 94.574C122.437 98.5063 123.091 101.445 121.804 104.913C122.763 103.673 123.677 102.396 124.548 101.087C121.122 95.8366 121.18 92.168 125.096 85.6572C127.355 89.478 128.506 92.3023 127.36 96.4502C128.408 94.5512 129.364 92.5914 130.228 90.5808C126.787 86.6688 126.408 83.2917 128.746 77.0015C130.856 79.4076 132.26 81.3852 132.641 83.9991C132.926 83.0737 133.189 82.1407 133.434 81.1975C129.92 78.2464 129.14 75.3232 130.326 69.4919C132.51 71.3122 134.014 72.8563 134.713 75.095C134.956 73.5966 135.145 72.083 135.284 70.5516C131.742 68.3535 130.626 65.7193 130.849 60.1973C132.982 61.4574 134.547 62.5856 135.559 64.3046C135.559 63.293 135.531 62.289 135.483 61.29C131.369 59.6319 129.801 57.2132 129.198 51.534C131.828 52.604 133.694 53.6156 134.978 55.6337C134.787 54.1835 134.547 52.751 134.264 51.3337C130.066 50.4236 128.221 48.4358 126.81 43.1775C129.617 43.8317 131.583 44.5517 133.126 46.5597C132.671 44.932 132.159 43.3297 131.586 41.7552C127.32 41.593 125.26 40.0565 123.124 35.2394C126.189 35.4625 128.261 35.9214 130.165 38.1753C129.491 36.6085 128.756 35.0721 127.963 33.5711C123.414 34.139 121.105 32.9804 118.227 28.3483C121.809 28.1075 124.093 28.3762 126.729 31.4338C126.391 30.904 126.115 30.4045 125.893 29.9202C125.073 28.5765 124.207 27.2683 123.296 25.9905L123.268 26.0868C119.123 27.2657 116.909 26.5812 113.726 22.7452C116.864 22.0936 118.916 22.0505 121.617 24.4312C120.786 23.4551 120.254 22.5652 119.943 21.6804C119.363 20.9933 118.767 20.3189 118.159 19.6572C114.337 21.399 112.052 21.0389 108.357 17.7912C111.355 16.6553 113.375 16.2902 116.414 18.2171C115.49 17.4261 114.847 16.6705 114.405 15.8922C113.701 15.2406 112.979 14.6042 112.247 13.9831C109.134 15.9175 107.077 15.8491 103.457 13.4507C105.974 12.0816 107.718 11.5137 110.639 12.8523C109.8 12.3123 109.174 11.7697 108.702 11.1917C107.857 10.573 106.996 9.97216 106.12 9.39411C103.666 11.3767 101.932 11.5415 98.6251 9.87836C100.602 8.47378 102.01 7.82219 104.598 8.65125C103.702 8.21517 103.055 7.7436 102.568 7.20611C102.131 6.95764 101.692 6.71171 101.25 6.47339L101.253 6.48353Z" fill="#E4BF6B"/>
<path fill-rule="evenodd" clip-rule="evenodd" d="M71.0419 108.474L72.0992 106.126L74.7046 105.837L72.7788 104.114L73.3048 101.568L71.0581 102.851L68.779 101.568L69.3158 104.085L67.3792 105.839L69.9577 106.112L71.0419 108.479V108.474ZM52.1136 103.271L54.2147 101.763L56.6151 102.803L55.8167 100.356L57.5564 98.4112H54.9618L53.6348 96.167L52.831 98.6118L50.2715 99.1709L52.3698 100.685L52.1136 103.271ZM90.0592 103.592L89.7895 101.035L91.8986 99.4918L89.3606 98.9542L88.5326 96.488L87.2326 98.7161L84.611 98.7349L86.3453 100.647L85.5523 103.127L87.9231 102.081L90.0538 103.595L90.0592 103.592ZM80.8755 107.276L81.2828 104.735L83.7237 103.785L81.4123 102.616L81.2558 100.021L79.4191 101.838L76.8838 101.182L78.0598 103.475L76.6465 105.665L79.2087 105.264L80.8729 107.273L80.8755 107.276ZM61.2325 107.11L62.867 105.112L65.4589 105.502L64.0483 103.344L65.2215 101.019L62.7159 101.683L60.8495 99.8556L60.712 102.424L58.3844 103.619L60.8064 104.542L61.2352 107.107L61.2325 107.11Z" fill="#E4BF6B"/>
<path d="M35.3448 50.3377C35.3448 52.3027 33.9048 53.4277 31.6698 53.4277H27.7248V42.6577H31.4598C33.6348 42.6577 34.9398 43.6627 34.9398 45.4777C34.9398 46.4977 34.3248 47.3677 33.2898 47.8177C34.6248 48.1927 35.3448 49.1077 35.3448 50.3377ZM31.3548 43.9777H29.2398V47.2177H31.3548C32.6598 47.2177 33.3648 46.6027 33.3648 45.5977C33.3648 44.5927 32.6598 43.9777 31.3548 43.9777ZM31.5648 48.5377H29.2398V52.1077H31.5648C32.9748 52.1077 33.7698 51.4327 33.7698 50.2927C33.7698 49.1977 32.9748 48.5377 31.5648 48.5377ZM40.2463 53.5777C37.9513 53.5777 36.4063 51.9127 36.4063 49.4077C36.4063 47.0527 38.0113 45.3277 40.2013 45.3277C42.5713 45.3277 44.1463 47.2477 43.8763 49.8277H37.9513C38.0713 51.4477 38.8813 52.3927 40.2163 52.3927C41.3413 52.3927 42.1213 51.7777 42.3763 50.7427H43.8763C43.4863 52.5127 42.1213 53.5777 40.2463 53.5777ZM40.1713 46.4677C38.9563 46.4677 38.1313 47.3377 37.9663 48.8227H42.2713C42.1963 47.3527 41.4013 46.4677 40.1713 46.4677ZM51.637 51.0577C51.637 52.6177 50.422 53.5777 48.307 53.5777C46.207 53.5777 44.962 52.5427 44.812 50.8327H46.267C46.327 51.8227 47.122 52.4377 48.337 52.4377C49.402 52.4377 50.107 52.0627 50.107 51.3127C50.107 50.6527 49.702 50.3677 48.712 50.1727L47.422 49.9327C45.952 49.6477 45.127 48.8977 45.127 47.6977C45.127 46.3027 46.342 45.3277 48.187 45.3277C50.092 45.3277 51.382 46.3477 51.517 47.9827H50.062C49.972 47.0227 49.267 46.4677 48.202 46.4677C47.242 46.4677 46.597 46.8727 46.597 47.5627C46.597 48.2077 47.002 48.5077 47.962 48.6877L49.312 48.9427C50.887 49.2277 51.637 49.9177 51.637 51.0577ZM57.5236 51.9577V53.2927C57.0586 53.5027 56.6536 53.5777 56.1736 53.5777C54.7036 53.5777 53.6836 52.7827 53.6836 51.0277V46.7677H51.9286V45.4777H53.6836V43.1227H55.1986V45.4777H57.5986V46.7677H55.1986V50.6827C55.1986 51.7777 55.7236 52.1677 56.5336 52.1677C56.8936 52.1677 57.2086 52.1077 57.5236 51.9577ZM65.4042 53.4277H61.9992V42.6577H65.4042C68.8392 42.6577 70.8192 44.8477 70.8192 47.9977C70.8192 51.1027 68.7642 53.4277 65.4042 53.4277ZM63.6492 44.0827V52.0027H65.3292C67.8042 52.0027 69.1392 50.4727 69.1392 47.9977C69.1392 45.5677 67.8192 44.0827 65.3292 44.0827H63.6492ZM75.6061 53.5777C73.3561 53.5777 71.7061 51.8077 71.7061 49.4527C71.7061 47.0977 73.3561 45.3277 75.6061 45.3277C77.8561 45.3277 79.5061 47.0977 79.5061 49.4527C79.5061 51.8077 77.8561 53.5777 75.6061 53.5777ZM75.6061 52.2427C76.9111 52.2427 77.9461 51.1927 77.9461 49.4527C77.9461 47.7127 76.9111 46.6777 75.6061 46.6777C74.3011 46.6777 73.2811 47.7127 73.2811 49.4527C73.2811 51.1927 74.3011 52.2427 75.6061 52.2427ZM84.0355 53.5927C81.8605 53.5927 80.3305 51.8827 80.3305 49.4527C80.3305 47.0527 81.8905 45.3277 84.0355 45.3277C86.0005 45.3277 87.4255 46.6327 87.7105 48.7027H86.1205C85.9555 47.4277 85.1605 46.6627 84.0505 46.6627C82.7455 46.6627 81.8905 47.7727 81.8905 49.4527C81.8905 51.1477 82.7455 52.2427 84.0505 52.2427C85.1755 52.2427 85.9555 51.4927 86.1355 50.2027H87.7105C87.4405 52.3027 86.0305 53.5927 84.0355 53.5927ZM93.5705 51.9577V53.2927C93.1055 53.5027 92.7005 53.5777 92.2205 53.5777C90.7505 53.5777 89.7305 52.7827 89.7305 51.0277V46.7677H87.9755V45.4777H89.7305V43.1227H91.2455V45.4777H93.6455V46.7677H91.2455V50.6827C91.2455 51.7777 91.7705 52.1677 92.5805 52.1677C92.9405 52.1677 93.2555 52.1077 93.5705 51.9577ZM98.0516 53.5777C95.8016 53.5777 94.1516 51.8077 94.1516 49.4527C94.1516 47.0977 95.8016 45.3277 98.0516 45.3277C100.302 45.3277 101.952 47.0977 101.952 49.4527C101.952 51.8077 100.302 53.5777 98.0516 53.5777ZM98.0516 52.2427C99.3566 52.2427 100.392 51.1927 100.392 49.4527C100.392 47.7127 99.3566 46.6777 98.0516 46.6777C96.7466 46.6777 95.7266 47.7127 95.7266 49.4527C95.7266 51.1927 96.7466 52.2427 98.0516 52.2427ZM104.861 49.3627V53.4277H103.346V45.4777H104.756V47.1577C105.311 46.0627 106.511 45.3727 107.816 45.3727V46.9477C106.106 46.8577 104.861 47.6077 104.861 49.3627ZM115.165 51.0577C115.165 52.6177 113.95 53.5777 111.835 53.5777C109.735 53.5777 108.49 52.5427 108.34 50.8327H109.795C109.855 51.8227 110.65 52.4377 111.865 52.4377C112.93 52.4377 113.635 52.0627 113.635 51.3127C113.635 50.6527 113.23 50.3677 112.24 50.1727L110.95 49.9327C109.48 49.6477 108.655 48.8977 108.655 47.6977C108.655 46.3027 109.87 45.3277 111.715 45.3277C113.62 45.3277 114.91 46.3477 115.045 47.9827H113.59C113.5 47.0227 112.795 46.4677 111.73 46.4677C110.77 46.4677 110.125 46.8727 110.125 47.5627C110.125 48.2077 110.53 48.5077 111.49 48.6877L112.84 48.9427C114.415 49.2277 115.165 49.9177 115.165 51.0577ZM37.016 70.4277H35.366V59.6577H41.906V61.0977H37.016V64.6077H41.186V66.0477H37.016V70.4277ZM46.3655 70.5777C44.1155 70.5777 42.4655 68.8077 42.4655 66.4527C42.4655 64.0977 44.1155 62.3277 46.3655 62.3277C48.6155 62.3277 50.2655 64.0977 50.2655 66.4527C50.2655 68.8077 48.6155 70.5777 46.3655 70.5777ZM46.3655 69.2427C47.6705 69.2427 48.7055 68.1927 48.7055 66.4527C48.7055 64.7127 47.6705 63.6777 46.3655 63.6777C45.0605 63.6777 44.0405 64.7127 44.0405 66.4527C44.0405 68.1927 45.0605 69.2427 46.3655 69.2427ZM53.1749 66.3627V70.4277H51.6599V62.4777H53.0699V64.1577C53.6249 63.0627 54.8249 62.3727 56.1299 62.3727V63.9477C54.4199 63.8577 53.1749 64.6077 53.1749 66.3627ZM62.1472 68.9577V70.2927C61.6822 70.5027 61.2772 70.5777 60.7972 70.5777C59.3272 70.5777 58.3072 69.7827 58.3072 68.0277V63.7677H56.5522V62.4777H58.3072V60.1227H59.8222V62.4777H62.2222V63.7677H59.8222V67.6827C59.8222 68.7777 60.3472 69.1677 61.1572 69.1677C61.5172 69.1677 61.8322 69.1077 62.1472 68.9577ZM74.8278 70.4277L72.5478 61.9827L70.2528 70.4277H68.5578L65.7528 59.6577H67.3728L69.4428 67.9527L71.7078 59.6577H73.4178L75.6528 67.9677L77.7228 59.6577H79.3428L76.5378 70.4277H74.8278ZM83.2033 70.5777C80.9533 70.5777 79.3033 68.8077 79.3033 66.4527C79.3033 64.0977 80.9533 62.3277 83.2033 62.3277C85.4533 62.3277 87.1033 64.0977 87.1033 66.4527C87.1033 68.8077 85.4533 70.5777 83.2033 70.5777ZM83.2033 69.2427C84.5083 69.2427 85.5433 68.1927 85.5433 66.4527C85.5433 64.7127 84.5083 63.6777 83.2033 63.6777C81.8983 63.6777 80.8783 64.7127 80.8783 66.4527C80.8783 68.1927 81.8983 69.2427 83.2033 69.2427ZM90.0128 66.3627V70.4277H88.4978V62.4777H89.9078V64.1577C90.4628 63.0627 91.6628 62.3727 92.9678 62.3727V63.9477C91.2578 63.8577 90.0128 64.6077 90.0128 66.3627ZM98.9851 68.9577V70.2927C98.5201 70.5027 98.1151 70.5777 97.6351 70.5777C96.1651 70.5777 95.1451 69.7827 95.1451 68.0277V63.7677H93.3901V62.4777H95.1451V60.1227H96.6601V62.4777H99.0601V63.7677H96.6601V67.6827C96.6601 68.7777 97.1851 69.1677 97.9951 69.1677C98.3551 69.1677 98.6701 69.1077 98.9851 68.9577ZM101.871 65.9427V70.4277H100.356V59.6577H101.871V63.7527C102.396 62.8977 103.206 62.3277 104.301 62.3277C105.936 62.3277 107.016 63.3777 107.016 65.2827V70.4277H105.501V65.7927C105.501 64.4277 104.901 63.6627 103.776 63.6627C102.741 63.6627 101.871 64.5327 101.871 65.9427ZM61.977 86.0777V87.4277H55.422V86.5577L58.587 83.1377C59.787 81.8327 60.252 81.1277 60.252 80.2127C60.252 79.2077 59.547 78.5027 58.512 78.5027C57.387 78.5027 56.637 79.2377 56.637 80.3627H55.152C55.152 78.4877 56.562 77.1377 58.572 77.1377C60.462 77.1377 61.842 78.3677 61.842 80.0327C61.842 81.1877 61.407 81.9977 59.742 83.7677L57.702 86.0777H61.977ZM63.225 82.3727C63.225 79.0127 64.56 77.1377 66.96 77.1377C69.36 77.1377 70.71 79.0127 70.71 82.3727C70.71 85.7327 69.39 87.5777 66.96 87.5777C64.53 87.5777 63.225 85.7327 63.225 82.3727ZM64.785 82.3727C64.785 84.8777 65.535 86.2127 66.96 86.2127C68.385 86.2127 69.15 84.8927 69.15 82.3727C69.15 79.8377 68.385 78.5027 66.96 78.5027C65.565 78.5027 64.785 79.8377 64.785 82.3727ZM78.6252 86.0777V87.4277H72.0702V86.5577L75.2352 83.1377C76.4352 81.8327 76.9002 81.1277 76.9002 80.2127C76.9002 79.2077 76.1952 78.5027 75.1602 78.5027C74.0352 78.5027 73.2852 79.2377 73.2852 80.3627H71.8002C71.8002 78.4877 73.2102 77.1377 75.2202 77.1377C77.1102 77.1377 78.4902 78.3677 78.4902 80.0327C78.4902 81.1877 78.0552 81.9977 76.3902 83.7677L74.3502 86.0777H78.6252ZM86.9896 85.1927H85.6096V87.4277H84.0946V85.1927H79.2196V84.1277L84.4396 77.2877H85.6096V83.8727H86.9896V85.1927ZM80.9146 83.8727H84.0946V79.5827L80.9146 83.8727Z" fill="#4E473A"/>
<path fill-rule="evenodd" clip-rule="evenodd" d="M71.6954 -0.00195312L73.4123 5.58905L78.9998 5.57793L74.4733 9.0224L76.2103 14.6067L71.6954 11.1434L67.1817 14.6067L68.9186 9.0224L64.3911 5.57793L69.9796 5.58905L71.6954 -0.00195312Z" fill="#E4BF6B"/>
</g>
<defs>
<clipPath id="clip0_489_2196">
<rect width="142" height="140" fill="white"/>
</clipPath>
</defs>
</svg>
