<svg width="305" height="178" viewBox="0 0 305 178" fill="none" xmlns="http://www.w3.org/2000/svg">
<g clip-path="url(#clip0_328_945)">
<rect width="305" height="178" rx="16" fill="#BBCBCA"/>
<path d="M29.2074 101.545V119H25.517V101.545H29.2074ZM35.3061 111.432V119H31.6754V105.909H35.1357V108.219H35.2891C35.5788 107.457 36.0646 106.855 36.7464 106.412C37.4283 105.963 38.255 105.739 39.2266 105.739C40.1357 105.739 40.9283 105.938 41.6044 106.335C42.2805 106.733 42.8061 107.301 43.1811 108.04C43.5561 108.773 43.7436 109.648 43.7436 110.665V119H40.1129V111.312C40.1186 110.511 39.9141 109.886 39.4993 109.438C39.0845 108.983 38.5135 108.756 37.7862 108.756C37.2976 108.756 36.8658 108.861 36.4908 109.071C36.1214 109.281 35.8317 109.588 35.6214 109.991C35.4169 110.389 35.3118 110.869 35.3061 111.432ZM53.0682 105.909V108.636H45.1847V105.909H53.0682ZM46.9744 102.773H50.6051V114.977C50.6051 115.312 50.6563 115.574 50.7585 115.761C50.8608 115.943 51.0028 116.071 51.1847 116.145C51.3722 116.219 51.5881 116.256 51.8324 116.256C52.0028 116.256 52.1733 116.241 52.3438 116.213C52.5142 116.179 52.6449 116.153 52.7358 116.136L53.3068 118.838C53.125 118.895 52.8693 118.96 52.5398 119.034C52.2102 119.114 51.8097 119.162 51.3381 119.179C50.4631 119.213 49.696 119.097 49.0369 118.83C48.3835 118.562 47.875 118.148 47.5114 117.585C47.1477 117.023 46.9688 116.312 46.9744 115.455V102.773ZM58.6662 119.247C57.831 119.247 57.0866 119.102 56.4332 118.812C55.7798 118.517 55.2628 118.082 54.8821 117.509C54.5071 116.929 54.3196 116.207 54.3196 115.344C54.3196 114.616 54.4531 114.006 54.7202 113.511C54.9872 113.017 55.3509 112.619 55.8111 112.318C56.2713 112.017 56.794 111.79 57.3793 111.636C57.9702 111.483 58.5895 111.375 59.2372 111.312C59.9986 111.233 60.6122 111.159 61.0781 111.091C61.544 111.017 61.8821 110.909 62.0923 110.767C62.3026 110.625 62.4077 110.415 62.4077 110.136V110.085C62.4077 109.545 62.2372 109.128 61.8963 108.832C61.5611 108.537 61.0838 108.389 60.4645 108.389C59.8111 108.389 59.2912 108.534 58.9048 108.824C58.5185 109.108 58.2628 109.466 58.1378 109.898L54.7798 109.625C54.9503 108.83 55.2855 108.142 55.7855 107.562C56.2855 106.977 56.9304 106.528 57.7202 106.216C58.5156 105.898 59.4361 105.739 60.4815 105.739C61.2088 105.739 61.9048 105.824 62.5696 105.994C63.2401 106.165 63.8338 106.429 64.3509 106.787C64.8736 107.145 65.2855 107.605 65.5866 108.168C65.8878 108.724 66.0384 109.392 66.0384 110.17V119H62.5952V117.185H62.4929C62.2827 117.594 62.0014 117.955 61.6491 118.267C61.2969 118.574 60.8736 118.815 60.3793 118.991C59.8849 119.162 59.3139 119.247 58.6662 119.247ZM59.706 116.741C60.2401 116.741 60.7116 116.636 61.1207 116.426C61.5298 116.21 61.8509 115.92 62.0838 115.557C62.3168 115.193 62.4332 114.781 62.4332 114.321V112.932C62.3196 113.006 62.1634 113.074 61.9645 113.136C61.7713 113.193 61.5526 113.247 61.3082 113.298C61.0639 113.344 60.8196 113.386 60.5753 113.426C60.331 113.46 60.1094 113.491 59.9105 113.52C59.4844 113.582 59.1122 113.682 58.794 113.818C58.4759 113.955 58.2287 114.139 58.0526 114.372C57.8764 114.599 57.7884 114.884 57.7884 115.224C57.7884 115.719 57.9673 116.097 58.3253 116.358C58.6889 116.614 59.1491 116.741 59.706 116.741ZM71.6449 115.233L71.6534 110.878H72.1818L76.375 105.909H80.5426L74.9091 112.489H74.0483L71.6449 115.233ZM68.3551 119V101.545H71.9858V119H68.3551ZM76.5369 119L72.6847 113.298L75.1051 110.733L80.7898 119H76.5369ZM87.2507 119.256C85.9041 119.256 84.745 118.983 83.7734 118.438C82.8075 117.886 82.0632 117.108 81.5405 116.102C81.0178 115.091 80.7564 113.895 80.7564 112.514C80.7564 111.168 81.0178 109.986 81.5405 108.969C82.0632 107.952 82.799 107.159 83.7479 106.591C84.7024 106.023 85.8217 105.739 87.1058 105.739C87.9695 105.739 88.7734 105.878 89.5178 106.156C90.2678 106.429 90.9212 106.841 91.478 107.392C92.0405 107.943 92.478 108.636 92.7905 109.472C93.103 110.301 93.2592 111.273 93.2592 112.386V113.384H82.2053V111.134H89.8416C89.8416 110.611 89.728 110.148 89.5007 109.744C89.2734 109.341 88.9581 109.026 88.5547 108.798C88.157 108.565 87.6939 108.449 87.1655 108.449C86.6143 108.449 86.1257 108.577 85.6996 108.832C85.2791 109.082 84.9496 109.42 84.7109 109.847C84.4723 110.267 84.3501 110.736 84.3445 111.253V113.392C84.3445 114.04 84.4638 114.599 84.7024 115.071C84.9467 115.543 85.2905 115.906 85.7337 116.162C86.1768 116.418 86.7024 116.545 87.3104 116.545C87.7138 116.545 88.0831 116.489 88.4183 116.375C88.7536 116.261 89.0405 116.091 89.2791 115.864C89.5178 115.636 89.6996 115.358 89.8246 115.028L93.1825 115.25C93.0121 116.057 92.6626 116.761 92.1342 117.364C91.6115 117.96 90.9354 118.426 90.1058 118.761C89.282 119.091 88.3303 119.256 87.2507 119.256ZM25.517 148V130.545H37.0739V133.588H29.2074V137.747H36.3068V140.79H29.2074V148H25.517ZM43.9418 148.256C42.6179 148.256 41.473 147.974 40.5071 147.412C39.5469 146.844 38.8054 146.054 38.2827 145.043C37.7599 144.026 37.4986 142.847 37.4986 141.506C37.4986 140.153 37.7599 138.972 38.2827 137.96C38.8054 136.943 39.5469 136.153 40.5071 135.591C41.473 135.023 42.6179 134.739 43.9418 134.739C45.2656 134.739 46.4077 135.023 47.3679 135.591C48.3338 136.153 49.0781 136.943 49.6009 137.96C50.1236 138.972 50.3849 140.153 50.3849 141.506C50.3849 142.847 50.1236 144.026 49.6009 145.043C49.0781 146.054 48.3338 146.844 47.3679 147.412C46.4077 147.974 45.2656 148.256 43.9418 148.256ZM43.9588 145.443C44.5611 145.443 45.0639 145.273 45.4673 144.932C45.8707 144.585 46.1747 144.114 46.3793 143.517C46.5895 142.92 46.6946 142.241 46.6946 141.48C46.6946 140.719 46.5895 140.04 46.3793 139.443C46.1747 138.847 45.8707 138.375 45.4673 138.028C45.0639 137.682 44.5611 137.509 43.9588 137.509C43.3509 137.509 42.8395 137.682 42.4247 138.028C42.0156 138.375 41.706 138.847 41.4957 139.443C41.2912 140.04 41.1889 140.719 41.1889 141.48C41.1889 142.241 41.2912 142.92 41.4957 143.517C41.706 144.114 42.0156 144.585 42.4247 144.932C42.8395 145.273 43.3509 145.443 43.9588 145.443ZM52.2457 148V134.909H55.7656V137.193H55.902C56.1406 136.381 56.5412 135.767 57.1037 135.352C57.6662 134.932 58.3139 134.722 59.0469 134.722C59.2287 134.722 59.4247 134.733 59.6349 134.756C59.8452 134.778 60.0298 134.81 60.1889 134.849V138.071C60.0185 138.02 59.7827 137.974 59.4815 137.935C59.1804 137.895 58.9048 137.875 58.6548 137.875C58.1207 137.875 57.6435 137.991 57.223 138.224C56.8082 138.452 56.4787 138.77 56.2344 139.179C55.9957 139.588 55.8764 140.06 55.8764 140.594V148H52.2457ZM61.5661 148V134.909H65.0263V137.219H65.1797C65.4524 136.452 65.907 135.847 66.5433 135.403C67.1797 134.96 67.9411 134.739 68.8274 134.739C69.7251 134.739 70.4893 134.963 71.12 135.412C71.7507 135.855 72.1712 136.457 72.3814 137.219H72.5178C72.7848 136.469 73.2678 135.869 73.9666 135.42C74.6712 134.966 75.5036 134.739 76.4638 134.739C77.6854 134.739 78.6768 135.128 79.4382 135.906C80.2053 136.679 80.5888 137.776 80.5888 139.196V148H76.9666V139.912C76.9666 139.185 76.7734 138.639 76.3871 138.276C76.0007 137.912 75.5178 137.73 74.9382 137.73C74.2791 137.73 73.7649 137.94 73.3956 138.361C73.0263 138.776 72.8416 139.324 72.8416 140.006V148H69.3217V139.835C69.3217 139.193 69.1371 138.682 68.7678 138.301C68.4041 137.92 67.924 137.73 67.3274 137.73C66.924 137.73 66.5604 137.832 66.2365 138.037C65.9183 138.236 65.6655 138.517 65.478 138.881C65.2905 139.239 65.1967 139.659 65.1967 140.142V148H61.5661Z" fill="#484343"/>
<g opacity="0.3">
<path d="M188.761 22.4552C178.223 -15.7284 217.257 -19.6151 245.427 -8.08558C261.862 -2.15611 272.656 -20.5963 293.017 -13.2371C313.377 -5.87781 288.969 17.3038 320.123 29.2013C351.277 41.0987 336.068 94.3305 308.839 94.9438C281.61 95.5571 289.092 104.511 261.862 124.994C234.633 145.477 188.761 117.022 200.167 86.9713C211.574 56.9211 200.167 63.7897 188.761 22.4552Z" stroke="white" stroke-width="1.2494"/>
<path d="M247.366 52.1737C246.15 48.5369 251.844 42.6699 256.424 45.1738C260.617 47.4666 264.887 45.9202 267.708 46.9424C275.134 49.6335 272.403 51.0579 275.723 54.2539C279.762 58.1431 281.69 68.3271 272.403 68.3271C264.764 68.3271 267.05 72.0371 261.33 73.681C255.61 75.3248 249.123 72.5266 249.123 65.1596C249.123 62.3931 249.391 58.2309 247.366 52.1737Z" stroke="white" stroke-width="1.2494"/>
<path d="M194.089 24.971C184.399 -10.0721 220.402 -14.1387 246.427 -3.42976C261.749 2.1691 271.95 -14.7353 290.716 -7.95213C309.901 -1.01727 287.463 20.1864 316.087 31.2928C344.776 42.4623 331.125 91.7806 305.527 92.3382C280.079 92.8957 287.088 101.373 261.814 120.143C236.54 138.914 194.248 112.791 204.618 84.8025C214.988 57.2326 204.642 63.0984 194.089 24.971Z" stroke="white" stroke-width="1.2494"/>
<path d="M199.414 27.4849C190.571 -4.41754 223.543 -8.66425 247.424 1.22421C261.634 6.49247 271.241 -8.87611 288.413 -2.66906C306.422 3.84142 285.955 23.0672 312.048 33.3826C338.272 43.824 326.179 89.2289 302.212 89.7307C278.544 90.2325 285.082 98.2328 261.763 115.291C238.445 132.349 199.733 108.558 209.066 82.6318C218.399 57.5422 209.115 62.4053 199.414 27.4849Z" stroke="white" stroke-width="1.2494"/>
<path d="M204.742 30.0038C196.747 1.24199 226.688 -3.18475 248.424 5.8832C261.521 10.8209 270.535 -3.01192 286.112 2.61903C302.945 8.70513 284.449 25.953 308.012 35.4773C331.771 45.1907 321.236 86.6822 298.9 87.1282C277.013 87.5742 283.078 95.0979 261.715 110.443C240.352 125.788 205.221 104.33 213.517 80.4662C221.813 57.8569 213.59 61.7171 204.742 30.0038Z" stroke="white" stroke-width="1.2494"/>
<path d="M210.069 32.52C202.921 6.89879 229.832 2.29201 249.423 10.5394C261.407 15.1465 269.828 2.84953 283.811 7.90439C299.468 13.5661 282.942 28.836 303.975 37.5693C325.269 46.5547 316.292 84.1327 295.587 84.523C275.481 84.9132 281.074 91.9602 261.666 105.593C242.258 119.225 210.708 100.1 217.967 78.2978C225.226 58.1689 218.064 61.0263 210.069 32.52Z" stroke="white" stroke-width="1.2494"/>
<path d="M215.396 35.1636C209.096 12.6831 232.975 7.89625 250.422 15.3232C261.293 19.5996 269.121 8.83846 281.509 13.3172C295.991 18.5546 281.435 31.8465 299.938 39.7888C318.767 48.0461 311.348 81.7107 292.274 82.0452C273.949 82.3798 279.069 88.95 261.617 100.87C244.165 112.79 216.195 95.9965 222.417 76.2569C228.639 58.6083 222.538 60.4629 215.396 35.1636Z" stroke="white" stroke-width="1.2494"/>
<path d="M220.722 37.9599C215.269 18.62 236.118 13.6532 251.42 20.2596C261.178 24.2055 268.413 14.9801 279.207 18.8827C292.513 23.6957 279.928 35.0098 295.9 42.161C312.264 49.6903 306.403 79.4415 288.96 79.7202C272.416 79.999 277.064 86.0925 261.567 96.2997C246.07 106.507 221.681 92.0462 226.866 74.3687C232.051 59.2004 227.012 60.0522 220.722 37.9599Z" stroke="white" stroke-width="1.2494"/>
<path d="M226.05 40.7618C221.445 24.5625 239.263 19.4156 252.42 25.2016C261.065 28.8168 267.707 21.1272 276.906 24.4538C289.036 28.8424 278.422 38.1785 291.864 44.5387C305.763 51.34 301.459 77.1777 285.647 77.4007C270.885 77.6237 275.06 83.2406 261.519 91.7351C247.977 100.23 227.168 88.1014 231.316 72.486C235.464 59.7981 231.486 59.6471 226.05 40.7618Z" stroke="white" stroke-width="1.2494"/>
<path d="M231.377 43.5777C227.619 30.5191 242.406 25.1921 253.419 30.1575C260.951 33.4422 267 27.2884 274.605 30.0389C285.559 34.0031 276.915 41.3613 287.826 46.9304C299.261 53.0037 296.515 74.928 282.334 75.0952C269.353 75.2625 273.056 80.4026 261.47 87.1845C249.884 93.9664 232.655 84.1706 235.766 70.6173C238.877 60.4098 235.961 59.2559 231.377 43.5777Z" stroke="white" stroke-width="1.2494"/>
<path d="M236.705 46.4104C233.794 36.4924 245.55 30.9854 254.419 35.1303C260.838 38.0844 266.294 33.4664 272.304 35.6408C282.082 39.1806 275.409 44.5609 283.79 49.339C292.76 54.6842 291.572 72.695 279.022 72.8065C267.821 72.918 271.052 77.5815 261.421 82.6507C251.79 87.7199 238.142 80.2567 240.216 68.7654C242.29 61.0382 240.435 58.8816 236.705 46.4104Z" stroke="white" stroke-width="1.2494"/>
<path d="M242.033 49.2691C239.97 42.4917 248.696 36.8047 255.419 40.1291C260.725 42.7526 265.588 39.6704 270.004 41.2687C278.606 44.3841 273.904 47.7865 279.754 51.7735C286.259 56.3907 286.629 70.4881 275.71 70.5439C266.291 70.5996 269.049 74.7864 261.374 78.1429C253.698 81.4994 243.631 76.3687 244.668 66.9396C245.705 61.6928 244.911 58.5333 242.033 49.2691Z" stroke="white" stroke-width="1.2494"/>
</g>
</g>
<defs>
<clipPath id="clip0_328_945">
<rect width="305" height="178" rx="16" fill="white"/>
</clipPath>
</defs>
</svg>
