<svg width="305" height="178" viewBox="0 0 305 178" fill="none" xmlns="http://www.w3.org/2000/svg">
<g clip-path="url(#clip0_448_1659)">
<rect width="305" height="178" rx="16" fill="#D4E6E2"/>
<path d="M41.5568 113.273C41.5568 115.176 41.196 116.795 40.4744 118.131C39.7585 119.466 38.7813 120.486 37.5426 121.19C36.3097 121.889 34.9233 122.239 33.3835 122.239C31.8324 122.239 30.4403 121.886 29.2074 121.182C27.9744 120.477 27 119.457 26.2841 118.122C25.5682 116.787 25.2102 115.17 25.2102 113.273C25.2102 111.369 25.5682 109.75 26.2841 108.415C27 107.08 27.9744 106.062 29.2074 105.364C30.4403 104.659 31.8324 104.307 33.3835 104.307C34.9233 104.307 36.3097 104.659 37.5426 105.364C38.7813 106.062 39.7585 107.08 40.4744 108.415C41.196 109.75 41.5568 111.369 41.5568 113.273ZM37.8153 113.273C37.8153 112.04 37.6307 111 37.2614 110.153C36.8977 109.307 36.3835 108.665 35.7188 108.227C35.054 107.79 34.2756 107.571 33.3835 107.571C32.4915 107.571 31.7131 107.79 31.0483 108.227C30.3835 108.665 29.8665 109.307 29.4972 110.153C29.1335 111 28.9517 112.04 28.9517 113.273C28.9517 114.506 29.1335 115.545 29.4972 116.392C29.8665 117.239 30.3835 117.881 31.0483 118.318C31.7131 118.756 32.4915 118.974 33.3835 118.974C34.2756 118.974 35.054 118.756 35.7188 118.318C36.3835 117.881 36.8977 117.239 37.2614 116.392C37.6307 115.545 37.8153 114.506 37.8153 113.273ZM50.7621 108.909V111.636H42.6825V108.909H50.7621ZM44.532 122V107.963C44.532 107.014 44.7166 106.227 45.0859 105.602C45.4609 104.977 45.9723 104.509 46.62 104.196C47.2678 103.884 48.0036 103.727 48.8274 103.727C49.3842 103.727 49.8928 103.77 50.353 103.855C50.8189 103.94 51.1655 104.017 51.3928 104.085L50.745 106.812C50.603 106.767 50.4268 106.724 50.2166 106.685C50.0121 106.645 49.8018 106.625 49.5859 106.625C49.0518 106.625 48.6797 106.75 48.4695 107C48.2592 107.244 48.1541 107.588 48.1541 108.031V122H44.532ZM59.5199 108.909V111.636H51.4403V108.909H59.5199ZM53.2898 122V107.963C53.2898 107.014 53.4744 106.227 53.8438 105.602C54.2188 104.977 54.7301 104.509 55.3778 104.196C56.0256 103.884 56.7614 103.727 57.5852 103.727C58.142 103.727 58.6506 103.77 59.1108 103.855C59.5767 103.94 59.9233 104.017 60.1506 104.085L59.5028 106.812C59.3608 106.767 59.1847 106.724 58.9744 106.685C58.7699 106.645 58.5597 106.625 58.3438 106.625C57.8097 106.625 57.4375 106.75 57.2273 107C57.017 107.244 56.9119 107.588 56.9119 108.031V122H53.2898ZM61.2379 122V108.909H64.8686V122H61.2379ZM63.0618 107.222C62.522 107.222 62.0589 107.043 61.6726 106.685C61.2919 106.321 61.1016 105.886 61.1016 105.381C61.1016 104.881 61.2919 104.452 61.6726 104.094C62.0589 103.73 62.522 103.548 63.0618 103.548C63.6016 103.548 64.0618 103.73 64.4425 104.094C64.8288 104.452 65.022 104.881 65.022 105.381C65.022 105.886 64.8288 106.321 64.4425 106.685C64.0618 107.043 63.6016 107.222 63.0618 107.222ZM73.1918 122.256C71.8509 122.256 70.6974 121.972 69.7315 121.403C68.7713 120.83 68.0327 120.034 67.5156 119.017C67.0043 118 66.7486 116.83 66.7486 115.506C66.7486 114.165 67.0071 112.989 67.5241 111.977C68.0469 110.96 68.7884 110.168 69.7486 109.599C70.7088 109.026 71.8509 108.739 73.1747 108.739C74.3168 108.739 75.3168 108.946 76.1747 109.361C77.0327 109.776 77.7116 110.358 78.2116 111.108C78.7116 111.858 78.9872 112.739 79.0384 113.75H75.6122C75.5156 113.097 75.2599 112.571 74.8452 112.173C74.4361 111.77 73.8991 111.568 73.2344 111.568C72.6719 111.568 72.1804 111.722 71.7599 112.028C71.3452 112.33 71.0213 112.77 70.7884 113.349C70.5554 113.929 70.4389 114.631 70.4389 115.455C70.4389 116.29 70.5526 117 70.7798 117.585C71.0128 118.17 71.3395 118.616 71.7599 118.923C72.1804 119.23 72.6719 119.384 73.2344 119.384C73.6491 119.384 74.0213 119.298 74.3509 119.128C74.6861 118.957 74.9616 118.71 75.1776 118.386C75.3991 118.057 75.544 117.662 75.6122 117.202H79.0384C78.9815 118.202 78.7088 119.082 78.2202 119.844C77.7372 120.599 77.0696 121.19 76.2173 121.616C75.3651 122.043 74.3565 122.256 73.1918 122.256ZM86.8288 122.256C85.4822 122.256 84.3232 121.983 83.3516 121.438C82.3857 120.886 81.6413 120.108 81.1186 119.102C80.5959 118.091 80.3345 116.895 80.3345 115.514C80.3345 114.168 80.5959 112.986 81.1186 111.969C81.6413 110.952 82.3771 110.159 83.326 109.591C84.2805 109.023 85.3999 108.739 86.6839 108.739C87.5476 108.739 88.3516 108.878 89.0959 109.156C89.8459 109.429 90.4993 109.841 91.0561 110.392C91.6186 110.943 92.0561 111.636 92.3686 112.472C92.6811 113.301 92.8374 114.273 92.8374 115.386V116.384H81.7834V114.134H89.4197C89.4197 113.611 89.3061 113.148 89.0788 112.744C88.8516 112.341 88.5362 112.026 88.1328 111.798C87.7351 111.565 87.272 111.449 86.7436 111.449C86.1925 111.449 85.7038 111.577 85.2777 111.832C84.8572 112.082 84.5277 112.42 84.2891 112.847C84.0504 113.267 83.9283 113.736 83.9226 114.253V116.392C83.9226 117.04 84.0419 117.599 84.2805 118.071C84.5249 118.543 84.8686 118.906 85.3118 119.162C85.755 119.418 86.2805 119.545 86.8885 119.545C87.2919 119.545 87.6612 119.489 87.9964 119.375C88.3317 119.261 88.6186 119.091 88.8572 118.864C89.0959 118.636 89.2777 118.358 89.4027 118.028L92.7607 118.25C92.5902 119.057 92.2408 119.761 91.7124 120.364C91.1896 120.96 90.5135 121.426 89.6839 121.761C88.8601 122.091 87.9084 122.256 86.8288 122.256ZM25.517 146V128.545H32.4034C33.7273 128.545 34.8551 128.798 35.7869 129.304C36.7188 129.804 37.429 130.5 37.9176 131.392C38.4119 132.278 38.6591 133.301 38.6591 134.46C38.6591 135.619 38.4091 136.642 37.9091 137.528C37.4091 138.415 36.6847 139.105 35.7358 139.599C34.7926 140.094 33.6506 140.341 32.3097 140.341H27.9205V137.384H31.7131C32.4233 137.384 33.0085 137.261 33.4688 137.017C33.9347 136.767 34.2813 136.423 34.5085 135.986C34.7415 135.543 34.858 135.034 34.858 134.46C34.858 133.881 34.7415 133.375 34.5085 132.943C34.2813 132.506 33.9347 132.168 33.4688 131.929C33.0028 131.685 32.4119 131.562 31.696 131.562H29.2074V146H25.517ZM46.1918 146.256C44.8679 146.256 43.723 145.974 42.7571 145.412C41.7969 144.844 41.0554 144.054 40.5327 143.043C40.0099 142.026 39.7486 140.847 39.7486 139.506C39.7486 138.153 40.0099 136.972 40.5327 135.96C41.0554 134.943 41.7969 134.153 42.7571 133.591C43.723 133.023 44.8679 132.739 46.1918 132.739C47.5156 132.739 48.6577 133.023 49.6179 133.591C50.5838 134.153 51.3281 134.943 51.8509 135.96C52.3736 136.972 52.6349 138.153 52.6349 139.506C52.6349 140.847 52.3736 142.026 51.8509 143.043C51.3281 144.054 50.5838 144.844 49.6179 145.412C48.6577 145.974 47.5156 146.256 46.1918 146.256ZM46.2088 143.443C46.8111 143.443 47.3139 143.273 47.7173 142.932C48.1207 142.585 48.4247 142.114 48.6293 141.517C48.8395 140.92 48.9446 140.241 48.9446 139.48C48.9446 138.719 48.8395 138.04 48.6293 137.443C48.4247 136.847 48.1207 136.375 47.7173 136.028C47.3139 135.682 46.8111 135.509 46.2088 135.509C45.6009 135.509 45.0895 135.682 44.6747 136.028C44.2656 136.375 43.956 136.847 43.7457 137.443C43.5412 138.04 43.4389 138.719 43.4389 139.48C43.4389 140.241 43.5412 140.92 43.7457 141.517C43.956 142.114 44.2656 142.585 44.6747 142.932C45.0895 143.273 45.6009 143.443 46.2088 143.443ZM58.1264 128.545V146H54.4957V128.545H58.1264ZM60.5348 146V132.909H64.1655V146H60.5348ZM62.3587 131.222C61.8189 131.222 61.3558 131.043 60.9695 130.685C60.5888 130.321 60.3984 129.886 60.3984 129.381C60.3984 128.881 60.5888 128.452 60.9695 128.094C61.3558 127.73 61.8189 127.548 62.3587 127.548C62.8984 127.548 63.3587 127.73 63.7393 128.094C64.1257 128.452 64.3189 128.881 64.3189 129.381C64.3189 129.886 64.1257 130.321 63.7393 130.685C63.3587 131.043 62.8984 131.222 62.3587 131.222ZM72.4886 146.256C71.1477 146.256 69.9943 145.972 69.0284 145.403C68.0682 144.83 67.3295 144.034 66.8125 143.017C66.3011 142 66.0455 140.83 66.0455 139.506C66.0455 138.165 66.304 136.989 66.821 135.977C67.3438 134.96 68.0852 134.168 69.0455 133.599C70.0057 133.026 71.1477 132.739 72.4716 132.739C73.6136 132.739 74.6136 132.946 75.4716 133.361C76.3295 133.776 77.0085 134.358 77.5085 135.108C78.0085 135.858 78.2841 136.739 78.3352 137.75H74.9091C74.8125 137.097 74.5568 136.571 74.142 136.173C73.733 135.77 73.196 135.568 72.5312 135.568C71.9688 135.568 71.4773 135.722 71.0568 136.028C70.642 136.33 70.3182 136.77 70.0852 137.349C69.8523 137.929 69.7358 138.631 69.7358 139.455C69.7358 140.29 69.8494 141 70.0767 141.585C70.3097 142.17 70.6364 142.616 71.0568 142.923C71.4773 143.23 71.9688 143.384 72.5312 143.384C72.946 143.384 73.3182 143.298 73.6477 143.128C73.983 142.957 74.2585 142.71 74.4744 142.386C74.696 142.057 74.8409 141.662 74.9091 141.202H78.3352C78.2784 142.202 78.0057 143.082 77.517 143.844C77.0341 144.599 76.3665 145.19 75.5142 145.616C74.6619 146.043 73.6534 146.256 72.4886 146.256ZM80.1598 146V132.909H83.7905V146H80.1598ZM81.9837 131.222C81.4439 131.222 80.9808 131.043 80.5945 130.685C80.2138 130.321 80.0234 129.886 80.0234 129.381C80.0234 128.881 80.2138 128.452 80.5945 128.094C80.9808 127.73 81.4439 127.548 81.9837 127.548C82.5234 127.548 82.9837 127.73 83.3643 128.094C83.7507 128.452 83.9439 128.881 83.9439 129.381C83.9439 129.886 83.7507 130.321 83.3643 130.685C82.9837 131.043 82.5234 131.222 81.9837 131.222ZM92.1648 146.256C90.8182 146.256 89.6591 145.983 88.6875 145.438C87.7216 144.886 86.9773 144.108 86.4545 143.102C85.9318 142.091 85.6705 140.895 85.6705 139.514C85.6705 138.168 85.9318 136.986 86.4545 135.969C86.9773 134.952 87.7131 134.159 88.6619 133.591C89.6165 133.023 90.7358 132.739 92.0199 132.739C92.8835 132.739 93.6875 132.878 94.4318 133.156C95.1818 133.429 95.8352 133.841 96.392 134.392C96.9545 134.943 97.392 135.636 97.7045 136.472C98.017 137.301 98.1733 138.273 98.1733 139.386V140.384H87.1193V138.134H94.7557C94.7557 137.611 94.642 137.148 94.4148 136.744C94.1875 136.341 93.8722 136.026 93.4688 135.798C93.071 135.565 92.608 135.449 92.0795 135.449C91.5284 135.449 91.0398 135.577 90.6136 135.832C90.1932 136.082 89.8636 136.42 89.625 136.847C89.3864 137.267 89.2642 137.736 89.2585 138.253V140.392C89.2585 141.04 89.3778 141.599 89.6165 142.071C89.8608 142.543 90.2045 142.906 90.6477 143.162C91.0909 143.418 91.6165 143.545 92.2244 143.545C92.6278 143.545 92.9972 143.489 93.3324 143.375C93.6676 143.261 93.9545 143.091 94.1932 142.864C94.4318 142.636 94.6136 142.358 94.7386 142.028L98.0966 142.25C97.9261 143.057 97.5767 143.761 97.0483 144.364C96.5256 144.96 95.8494 145.426 95.0199 145.761C94.196 146.091 93.2443 146.256 92.1648 146.256ZM110.935 136.642L107.611 136.847C107.554 136.562 107.432 136.307 107.244 136.08C107.057 135.847 106.81 135.662 106.503 135.526C106.202 135.384 105.841 135.312 105.42 135.312C104.858 135.312 104.384 135.432 103.997 135.67C103.611 135.903 103.418 136.216 103.418 136.608C103.418 136.92 103.543 137.185 103.793 137.401C104.043 137.616 104.472 137.79 105.08 137.92L107.449 138.398C108.722 138.659 109.67 139.08 110.295 139.659C110.92 140.239 111.233 141 111.233 141.943C111.233 142.801 110.98 143.554 110.474 144.202C109.974 144.849 109.287 145.355 108.412 145.719C107.543 146.077 106.54 146.256 105.403 146.256C103.67 146.256 102.29 145.895 101.261 145.173C100.239 144.446 99.6392 143.457 99.4631 142.207L103.034 142.02C103.142 142.548 103.403 142.952 103.818 143.23C104.233 143.503 104.764 143.639 105.412 143.639C106.048 143.639 106.56 143.517 106.946 143.273C107.338 143.023 107.537 142.702 107.543 142.31C107.537 141.98 107.398 141.71 107.125 141.5C106.852 141.284 106.432 141.119 105.864 141.006L103.597 140.554C102.318 140.298 101.366 139.855 100.741 139.224C100.122 138.594 99.8125 137.79 99.8125 136.812C99.8125 135.972 100.04 135.247 100.494 134.639C100.955 134.031 101.599 133.562 102.429 133.233C103.264 132.903 104.241 132.739 105.361 132.739C107.014 132.739 108.315 133.088 109.264 133.787C110.219 134.486 110.776 135.437 110.935 136.642Z" fill="#2E2F35"/>
<g opacity="0.6">
<path opacity="0.0526316" d="M202.504 8.32362C199.246 12.5142 195.045 24.2308 204.306 37.5724C215.882 54.2496 235.444 56.6277 248.987 70.6456C258.982 80.9918 277.825 110.956 271.616 132.787" stroke="white" stroke-width="0.811531"/>
<path opacity="0.105263" d="M210.246 2.96759C206.571 6.79212 201.178 18.0021 209.004 32.246C218.786 50.0508 237.994 54.4759 250.008 69.8431C258.875 81.1853 274.506 112.97 266.066 134.028" stroke="white" stroke-width="0.811531"/>
<path opacity="0.157895" d="M218.301 -1.67409C214.25 1.74249 207.723 12.3231 214.028 27.3131C221.91 46.0506 240.553 52.4741 250.907 69.0223C258.549 81.2362 270.797 114.493 260.218 134.546" stroke="white" stroke-width="0.811531"/>
<path opacity="0.210526" d="M226.595 -5.57356C222.211 -2.60236 214.622 7.233 219.337 22.8049C225.232 42.2697 243.106 50.6212 251.687 68.1692C258.02 81.1208 266.749 115.485 254.148 134.315" stroke="white" stroke-width="0.811531"/>
<path opacity="0.263158" d="M235.048 -8.70848C230.379 -6.21522 221.812 2.76709 224.886 18.7502C228.728 38.7292 245.638 48.9172 252.351 67.2726C257.305 80.8202 262.422 115.915 247.936 133.315" stroke="white" stroke-width="0.811531"/>
<path opacity="0.315789" d="M243.58 -11.0657C238.678 -9.07773 229.226 -1.04689 230.624 15.1724C232.373 35.4466 248.133 47.3595 252.905 66.3213C256.426 80.3164 257.874 115.758 241.661 131.537" stroke="white" stroke-width="0.811531"/>
<path opacity="0.368421" d="M252.11 -12.6432C247.029 -11.1823 236.795 -4.19087 236.503 12.0869C236.139 32.4341 250.577 45.9415 253.354 65.3018C255.405 79.5912 253.167 114.991 235.406 128.976" stroke="white" stroke-width="0.811531"/>
<path opacity="0.421053" d="M260.557 -13.4448C255.353 -12.5269 244.449 -6.65156 242.47 9.50634C239.997 29.7037 252.954 44.6574 253.708 64.2042C254.264 78.6312 248.366 113.602 229.251 125.64" stroke="white" stroke-width="0.811531"/>
<path opacity="0.473684" d="M268.842 -13.4821C263.571 -13.1173 252.117 -8.42234 248.473 7.43864C243.917 27.2649 255.251 43.5012 253.973 63.0203C253.03 77.4269 243.535 111.585 223.277 121.544" stroke="white" stroke-width="0.811531"/>
<path opacity="0.526316" d="M276.885 -12.7781C271.605 -12.9703 259.727 -9.50725 254.457 5.88305C247.869 25.1209 257.457 42.4619 254.161 61.7395C251.728 75.9678 238.741 108.938 217.56 116.71" stroke="white" stroke-width="0.811531"/>
<path opacity="0.578947" d="M284.612 -11.3621C279.381 -12.1094 267.209 -9.9161 260.37 4.83489C251.823 23.2736 259.559 41.5293 254.28 60.3541C250.384 74.2483 234.048 105.671 212.177 111.169" stroke="white" stroke-width="0.811531"/>
<path opacity="0.631579" d="M291.949 -9.2699C286.824 -10.5639 274.491 -9.66452 266.16 4.28555C255.746 21.7231 261.545 40.6935 254.343 58.8593C249.026 72.2671 229.519 101.797 207.197 104.962" stroke="white" stroke-width="0.811531"/>
<path opacity="0.684211" d="M298.83 -6.54798C293.867 -8.37464 281.508 -8.7789 271.775 4.21741C259.609 20.4628 263.409 39.9399 254.36 57.2478C247.682 70.0222 225.218 97.3362 202.69 98.1332" stroke="white" stroke-width="0.811531"/>
<path opacity="0.736842" d="M305.191 -3.24585C300.445 -5.58513 288.196 -7.28864 277.168 4.61152C263.382 19.4867 265.14 39.2573 254.346 55.5175C246.379 67.5187 221.204 92.3174 198.716 90.7377" stroke="white" stroke-width="0.811531"/>
<path opacity="0.789474" d="M310.974 0.57632C306.497 -2.24994 294.492 -5.23404 282.289 5.43958C267.036 18.7816 266.733 38.629 254.311 53.6634C245.142 64.7599 217.532 86.7716 195.332 82.8325" stroke="white" stroke-width="0.811531"/>
<path opacity="0.842105" d="M316.13 4.85571C311.97 1.57344 300.34 -2.65857 287.097 6.67158C270.544 18.3343 268.183 38.041 254.269 51.6849C243.999 61.7551 214.256 80.7387 192.586 74.4833" stroke="white" stroke-width="0.811531"/>
<path opacity="0.894737" d="M320.613 9.52496C316.817 5.82264 305.69 0.389103 291.551 8.27355C273.878 18.1291 269.486 37.4793 254.232 49.5832C242.974 58.5167 211.424 74.2642 190.522 65.7611" stroke="white" stroke-width="0.811531"/>
<path opacity="0.947368" d="M324.388 14.5094C320.997 10.4276 310.495 3.85206 295.615 10.2044C277.016 18.1449 270.64 36.9266 254.215 47.3578C242.091 55.0568 209.08 67.3956 189.175 56.738" stroke="white" stroke-width="0.811531"/>
<path d="M327.425 19.733C324.476 15.3164 314.713 7.6709 299.257 12.4216C279.936 18.36 271.646 36.3673 254.228 45.0116C241.372 51.3918 207.262 60.1867 188.571 47.4913" stroke="white" stroke-width="0.811531"/>
</g>
</g>
<defs>
<clipPath id="clip0_448_1659">
<rect width="305" height="178" rx="16" fill="white"/>
</clipPath>
</defs>
</svg>
