<svg width="305" height="178" viewBox="0 0 305 178" fill="none" xmlns="http://www.w3.org/2000/svg">
<g clip-path="url(#clip0_328_1194)">
<rect width="305" height="178" rx="16" fill="#D6C9B6"/>
<path d="M40.1165 104.545V122H36.929L29.3352 111.014H29.2074V122H25.517V104.545H28.7557L36.2898 115.523H36.4432V104.545H40.1165ZM48.5632 122.256C47.2166 122.256 46.0575 121.983 45.0859 121.438C44.12 120.886 43.3757 120.108 42.853 119.102C42.3303 118.091 42.0689 116.895 42.0689 115.514C42.0689 114.168 42.3303 112.986 42.853 111.969C43.3757 110.952 44.1115 110.159 45.0604 109.591C46.0149 109.023 47.1342 108.739 48.4183 108.739C49.282 108.739 50.0859 108.878 50.8303 109.156C51.5803 109.429 52.2337 109.841 52.7905 110.392C53.353 110.943 53.7905 111.636 54.103 112.472C54.4155 113.301 54.5717 114.273 54.5717 115.386V116.384H43.5178V114.134H51.1541C51.1541 113.611 51.0405 113.148 50.8132 112.744C50.5859 112.341 50.2706 112.026 49.8672 111.798C49.4695 111.565 49.0064 111.449 48.478 111.449C47.9268 111.449 47.4382 111.577 47.0121 111.832C46.5916 112.082 46.2621 112.42 46.0234 112.847C45.7848 113.267 45.6626 113.736 45.657 114.253V116.392C45.657 117.04 45.7763 117.599 46.0149 118.071C46.2592 118.543 46.603 118.906 47.0462 119.162C47.4893 119.418 48.0149 119.545 48.6229 119.545C49.0263 119.545 49.3956 119.489 49.7308 119.375C50.0661 119.261 50.353 119.091 50.5916 118.864C50.8303 118.636 51.0121 118.358 51.1371 118.028L54.495 118.25C54.3246 119.057 53.9751 119.761 53.4467 120.364C52.924 120.96 52.2479 121.426 51.4183 121.761C50.5945 122.091 49.6428 122.256 48.5632 122.256ZM58.9297 122L55.3672 108.909H59.0405L61.0689 117.705H61.1882L63.3018 108.909H66.907L69.0547 117.653H69.1655L71.1598 108.909H74.8246L71.2706 122H67.4268L65.1768 113.767H65.0149L62.7649 122H58.9297ZM81.3842 122V104.545H88.2706C89.5945 104.545 90.7223 104.798 91.6541 105.304C92.5859 105.804 93.2962 106.5 93.7848 107.392C94.2791 108.278 94.5263 109.301 94.5263 110.46C94.5263 111.619 94.2763 112.642 93.7763 113.528C93.2763 114.415 92.5518 115.105 91.603 115.599C90.6598 116.094 89.5178 116.341 88.1768 116.341H83.7876V113.384H87.5803C88.2905 113.384 88.8757 113.261 89.3359 113.017C89.8018 112.767 90.1484 112.423 90.3757 111.986C90.6087 111.543 90.7251 111.034 90.7251 110.46C90.7251 109.881 90.6087 109.375 90.3757 108.943C90.1484 108.506 89.8018 108.168 89.3359 107.929C88.87 107.685 88.2791 107.562 87.5632 107.562H85.0746V122H81.3842ZM99.7365 122.247C98.9013 122.247 98.157 122.102 97.5036 121.812C96.8501 121.517 96.3331 121.082 95.9524 120.509C95.5774 119.929 95.3899 119.207 95.3899 118.344C95.3899 117.616 95.5234 117.006 95.7905 116.511C96.0575 116.017 96.4212 115.619 96.8814 115.318C97.3416 115.017 97.8643 114.79 98.4496 114.636C99.0405 114.483 99.6598 114.375 100.308 114.312C101.069 114.233 101.683 114.159 102.148 114.091C102.614 114.017 102.952 113.909 103.163 113.767C103.373 113.625 103.478 113.415 103.478 113.136V113.085C103.478 112.545 103.308 112.128 102.967 111.832C102.631 111.537 102.154 111.389 101.535 111.389C100.881 111.389 100.362 111.534 99.9751 111.824C99.5888 112.108 99.3331 112.466 99.2081 112.898L95.8501 112.625C96.0206 111.83 96.3558 111.142 96.8558 110.562C97.3558 109.977 98.0007 109.528 98.7905 109.216C99.5859 108.898 100.506 108.739 101.552 108.739C102.279 108.739 102.975 108.824 103.64 108.994C104.31 109.165 104.904 109.429 105.421 109.787C105.944 110.145 106.356 110.605 106.657 111.168C106.958 111.724 107.109 112.392 107.109 113.17V122H103.665V120.185H103.563C103.353 120.594 103.072 120.955 102.719 121.267C102.367 121.574 101.944 121.815 101.45 121.991C100.955 122.162 100.384 122.247 99.7365 122.247ZM100.776 119.741C101.31 119.741 101.782 119.636 102.191 119.426C102.6 119.21 102.921 118.92 103.154 118.557C103.387 118.193 103.504 117.781 103.504 117.321V115.932C103.39 116.006 103.234 116.074 103.035 116.136C102.842 116.193 102.623 116.247 102.379 116.298C102.134 116.344 101.89 116.386 101.646 116.426C101.401 116.46 101.18 116.491 100.981 116.52C100.555 116.582 100.183 116.682 99.8643 116.818C99.5462 116.955 99.299 117.139 99.1229 117.372C98.9467 117.599 98.8587 117.884 98.8587 118.224C98.8587 118.719 99.0376 119.097 99.3956 119.358C99.7592 119.614 100.219 119.741 100.776 119.741ZM116.388 108.909V111.636H108.505V108.909H116.388ZM110.295 105.773H113.925V117.977C113.925 118.312 113.977 118.574 114.079 118.761C114.181 118.943 114.323 119.071 114.505 119.145C114.692 119.219 114.908 119.256 115.153 119.256C115.323 119.256 115.494 119.241 115.664 119.213C115.835 119.179 115.965 119.153 116.056 119.136L116.627 121.838C116.445 121.895 116.19 121.96 115.86 122.034C115.531 122.114 115.13 122.162 114.658 122.179C113.783 122.213 113.016 122.097 112.357 121.83C111.704 121.562 111.195 121.148 110.832 120.585C110.468 120.023 110.289 119.312 110.295 118.455V105.773ZM118.254 122V108.909H121.884V122H118.254ZM120.077 107.222C119.538 107.222 119.075 107.043 118.688 106.685C118.308 106.321 118.117 105.886 118.117 105.381C118.117 104.881 118.308 104.452 118.688 104.094C119.075 103.73 119.538 103.548 120.077 103.548C120.617 103.548 121.077 103.73 121.458 104.094C121.844 104.452 122.038 104.881 122.038 105.381C122.038 105.886 121.844 106.321 121.458 106.685C121.077 107.043 120.617 107.222 120.077 107.222ZM130.259 122.256C128.912 122.256 127.753 121.983 126.781 121.438C125.815 120.886 125.071 120.108 124.548 119.102C124.026 118.091 123.764 116.895 123.764 115.514C123.764 114.168 124.026 112.986 124.548 111.969C125.071 110.952 125.807 110.159 126.756 109.591C127.71 109.023 128.83 108.739 130.114 108.739C130.977 108.739 131.781 108.878 132.526 109.156C133.276 109.429 133.929 109.841 134.486 110.392C135.048 110.943 135.486 111.636 135.798 112.472C136.111 113.301 136.267 114.273 136.267 115.386V116.384H125.213V114.134H132.849C132.849 113.611 132.736 113.148 132.509 112.744C132.281 112.341 131.966 112.026 131.562 111.798C131.165 111.565 130.702 111.449 130.173 111.449C129.622 111.449 129.134 111.577 128.707 111.832C128.287 112.082 127.957 112.42 127.719 112.847C127.48 113.267 127.358 113.736 127.352 114.253V116.392C127.352 117.04 127.472 117.599 127.71 118.071C127.955 118.543 128.298 118.906 128.741 119.162C129.185 119.418 129.71 119.545 130.318 119.545C130.722 119.545 131.091 119.489 131.426 119.375C131.761 119.261 132.048 119.091 132.287 118.864C132.526 118.636 132.707 118.358 132.832 118.028L136.19 118.25C136.02 119.057 135.67 119.761 135.142 120.364C134.619 120.96 133.943 121.426 133.114 121.761C132.29 122.091 131.338 122.256 130.259 122.256ZM141.767 114.432V122H138.136V108.909H141.597V111.219H141.75C142.04 110.457 142.526 109.855 143.207 109.412C143.889 108.963 144.716 108.739 145.688 108.739C146.597 108.739 147.389 108.938 148.065 109.335C148.741 109.733 149.267 110.301 149.642 111.04C150.017 111.773 150.205 112.648 150.205 113.665V122H146.574V114.312C146.58 113.511 146.375 112.886 145.96 112.438C145.545 111.983 144.974 111.756 144.247 111.756C143.759 111.756 143.327 111.861 142.952 112.071C142.582 112.281 142.293 112.588 142.082 112.991C141.878 113.389 141.773 113.869 141.767 114.432ZM159.529 108.909V111.636H151.646V108.909H159.529ZM153.435 105.773H157.066V117.977C157.066 118.312 157.117 118.574 157.219 118.761C157.322 118.943 157.464 119.071 157.646 119.145C157.833 119.219 158.049 119.256 158.293 119.256C158.464 119.256 158.634 119.241 158.805 119.213C158.975 119.179 159.106 119.153 159.197 119.136L159.768 121.838C159.586 121.895 159.33 121.96 159.001 122.034C158.671 122.114 158.271 122.162 157.799 122.179C156.924 122.213 156.157 122.097 155.498 121.83C154.844 121.562 154.336 121.148 153.972 120.585C153.609 120.023 153.43 119.312 153.435 118.455V105.773ZM25.517 146V128.545H32.4034C33.7216 128.545 34.8466 128.781 35.7784 129.253C36.7159 129.719 37.429 130.381 37.9176 131.239C38.4119 132.091 38.6591 133.094 38.6591 134.247C38.6591 135.406 38.4091 136.403 37.9091 137.239C37.4091 138.068 36.6847 138.705 35.7358 139.148C34.7926 139.591 33.6506 139.812 32.3097 139.812H27.6989V136.847H31.7131C32.4176 136.847 33.0028 136.75 33.4688 136.557C33.9347 136.364 34.2813 136.074 34.5085 135.688C34.7415 135.301 34.858 134.821 34.858 134.247C34.858 133.668 34.7415 133.179 34.5085 132.781C34.2813 132.384 33.9318 132.082 33.4602 131.878C32.9943 131.668 32.4063 131.562 31.696 131.562H29.2074V146H25.517ZM34.9432 138.057L39.2812 146H35.2074L30.9631 138.057H34.9432ZM46.4538 146.256C45.1072 146.256 43.9482 145.983 42.9766 145.438C42.0107 144.886 41.2663 144.108 40.7436 143.102C40.2209 142.091 39.9595 140.895 39.9595 139.514C39.9595 138.168 40.2209 136.986 40.7436 135.969C41.2663 134.952 42.0021 134.159 42.951 133.591C43.9055 133.023 45.0249 132.739 46.3089 132.739C47.1726 132.739 47.9766 132.878 48.7209 133.156C49.4709 133.429 50.1243 133.841 50.6811 134.392C51.2436 134.943 51.6811 135.636 51.9936 136.472C52.3061 137.301 52.4624 138.273 52.4624 139.386V140.384H41.4084V138.134H49.0447C49.0447 137.611 48.9311 137.148 48.7038 136.744C48.4766 136.341 48.1612 136.026 47.7578 135.798C47.3601 135.565 46.897 135.449 46.3686 135.449C45.8175 135.449 45.3288 135.577 44.9027 135.832C44.4822 136.082 44.1527 136.42 43.9141 136.847C43.6754 137.267 43.5533 137.736 43.5476 138.253V140.392C43.5476 141.04 43.6669 141.599 43.9055 142.071C44.1499 142.543 44.4936 142.906 44.9368 143.162C45.38 143.418 45.9055 143.545 46.5135 143.545C46.9169 143.545 47.2862 143.489 47.6214 143.375C47.9567 143.261 48.2436 143.091 48.4822 142.864C48.7209 142.636 48.9027 142.358 49.0277 142.028L52.3857 142.25C52.2152 143.057 51.8658 143.761 51.3374 144.364C50.8146 144.96 50.1385 145.426 49.3089 145.761C48.4851 146.091 47.5334 146.256 46.4538 146.256ZM60.2294 151.182C59.0533 151.182 58.0447 151.02 57.2038 150.696C56.3686 150.378 55.7038 149.943 55.2095 149.392C54.7152 148.841 54.3942 148.222 54.2464 147.534L57.6044 147.082C57.7067 147.344 57.8686 147.588 58.0902 147.815C58.3118 148.043 58.6044 148.224 58.968 148.361C59.3374 148.503 59.7862 148.574 60.3146 148.574C61.1044 148.574 61.755 148.381 62.2663 147.994C62.7834 147.614 63.0419 146.974 63.0419 146.077V143.682H62.8885C62.7294 144.045 62.4908 144.389 62.1726 144.713C61.8544 145.037 61.4453 145.301 60.9453 145.506C60.4453 145.71 59.8487 145.812 59.1555 145.812C58.1726 145.812 57.2777 145.585 56.4709 145.131C55.6697 144.67 55.0305 143.969 54.5533 143.026C54.0817 142.077 53.8459 140.878 53.8459 139.429C53.8459 137.946 54.0874 136.707 54.5703 135.713C55.0533 134.719 55.6953 133.974 56.4964 133.48C57.3033 132.986 58.1868 132.739 59.147 132.739C59.88 132.739 60.4936 132.864 60.9879 133.114C61.4822 133.358 61.88 133.665 62.1811 134.034C62.4879 134.398 62.7237 134.756 62.8885 135.108H63.0249V132.909H66.63V146.128C66.63 147.241 66.3572 148.173 65.8118 148.923C65.2663 149.673 64.5107 150.236 63.5447 150.611C62.5845 150.991 61.4794 151.182 60.2294 151.182ZM60.3061 143.085C60.8913 143.085 61.3857 142.94 61.7891 142.651C62.1982 142.355 62.5107 141.935 62.7266 141.389C62.9482 140.838 63.0589 140.179 63.0589 139.412C63.0589 138.645 62.951 137.98 62.7351 137.418C62.5192 136.849 62.2067 136.409 61.7976 136.097C61.3885 135.784 60.8913 135.628 60.3061 135.628C59.7095 135.628 59.2067 135.79 58.7976 136.114C58.3885 136.432 58.0788 136.875 57.8686 137.443C57.6584 138.011 57.5533 138.668 57.5533 139.412C57.5533 140.168 57.6584 140.821 57.8686 141.372C58.0845 141.918 58.3942 142.341 58.7976 142.642C59.2067 142.937 59.7095 143.085 60.3061 143.085ZM69.0192 146V132.909H72.6499V146H69.0192ZM70.843 131.222C70.3033 131.222 69.8402 131.043 69.4538 130.685C69.0732 130.321 68.8828 129.886 68.8828 129.381C68.8828 128.881 69.0732 128.452 69.4538 128.094C69.8402 127.73 70.3033 127.548 70.843 127.548C71.3828 127.548 71.843 127.73 72.2237 128.094C72.6101 128.452 72.8033 128.881 72.8033 129.381C72.8033 129.886 72.6101 130.321 72.2237 130.685C71.843 131.043 71.3828 131.222 70.843 131.222ZM85.9503 136.642L82.6264 136.847C82.5696 136.562 82.4474 136.307 82.2599 136.08C82.0724 135.847 81.8253 135.662 81.5185 135.526C81.2173 135.384 80.8565 135.312 80.4361 135.312C79.8736 135.312 79.3991 135.432 79.0128 135.67C78.6264 135.903 78.4332 136.216 78.4332 136.608C78.4332 136.92 78.5582 137.185 78.8082 137.401C79.0582 137.616 79.4872 137.79 80.0952 137.92L82.4645 138.398C83.7372 138.659 84.6861 139.08 85.3111 139.659C85.9361 140.239 86.2486 141 86.2486 141.943C86.2486 142.801 85.9957 143.554 85.4901 144.202C84.9901 144.849 84.3026 145.355 83.4276 145.719C82.5582 146.077 81.5554 146.256 80.419 146.256C78.6861 146.256 77.3054 145.895 76.277 145.173C75.2543 144.446 74.6548 143.457 74.4787 142.207L78.0497 142.02C78.1577 142.548 78.419 142.952 78.8338 143.23C79.2486 143.503 79.7798 143.639 80.4276 143.639C81.0639 143.639 81.5753 143.517 81.9616 143.273C82.3537 143.023 82.5526 142.702 82.5582 142.31C82.5526 141.98 82.4134 141.71 82.1406 141.5C81.8679 141.284 81.4474 141.119 80.8793 141.006L78.6122 140.554C77.3338 140.298 76.3821 139.855 75.7571 139.224C75.1378 138.594 74.8281 137.79 74.8281 136.812C74.8281 135.972 75.0554 135.247 75.5099 134.639C75.9702 134.031 76.6151 133.562 77.4446 133.233C78.2798 132.903 79.2571 132.739 80.3764 132.739C82.0298 132.739 83.331 133.088 84.2798 133.787C85.2344 134.486 85.7912 135.437 85.9503 136.642ZM94.9979 132.909V135.636H87.1143V132.909H94.9979ZM88.9041 129.773H92.5348V141.977C92.5348 142.312 92.5859 142.574 92.6882 142.761C92.7905 142.943 92.9325 143.071 93.1143 143.145C93.3018 143.219 93.5178 143.256 93.7621 143.256C93.9325 143.256 94.103 143.241 94.2734 143.213C94.4439 143.179 94.5746 143.153 94.6655 143.136L95.2365 145.838C95.0547 145.895 94.799 145.96 94.4695 146.034C94.1399 146.114 93.7393 146.162 93.2678 146.179C92.3928 146.213 91.6257 146.097 90.9666 145.83C90.3132 145.562 89.8047 145.148 89.4411 144.585C89.0774 144.023 88.8984 143.312 88.9041 142.455V129.773ZM96.8629 146V132.909H100.383V135.193H100.519C100.758 134.381 101.158 133.767 101.721 133.352C102.283 132.932 102.931 132.722 103.664 132.722C103.846 132.722 104.042 132.733 104.252 132.756C104.462 132.778 104.647 132.81 104.806 132.849V136.071C104.636 136.02 104.4 135.974 104.099 135.935C103.798 135.895 103.522 135.875 103.272 135.875C102.738 135.875 102.261 135.991 101.84 136.224C101.425 136.452 101.096 136.77 100.852 137.179C100.613 137.588 100.494 138.06 100.494 138.594V146H96.8629ZM109.541 146.247C108.706 146.247 107.962 146.102 107.308 145.812C106.655 145.517 106.138 145.082 105.757 144.509C105.382 143.929 105.195 143.207 105.195 142.344C105.195 141.616 105.328 141.006 105.595 140.511C105.862 140.017 106.226 139.619 106.686 139.318C107.146 139.017 107.669 138.79 108.254 138.636C108.845 138.483 109.464 138.375 110.112 138.312C110.874 138.233 111.487 138.159 111.953 138.091C112.419 138.017 112.757 137.909 112.967 137.767C113.178 137.625 113.283 137.415 113.283 137.136V137.085C113.283 136.545 113.112 136.128 112.771 135.832C112.436 135.537 111.959 135.389 111.339 135.389C110.686 135.389 110.166 135.534 109.78 135.824C109.393 136.108 109.138 136.466 109.013 136.898L105.655 136.625C105.825 135.83 106.161 135.142 106.661 134.562C107.161 133.977 107.805 133.528 108.595 133.216C109.391 132.898 110.311 132.739 111.357 132.739C112.084 132.739 112.78 132.824 113.445 132.994C114.115 133.165 114.709 133.429 115.226 133.787C115.749 134.145 116.161 134.605 116.462 135.168C116.763 135.724 116.913 136.392 116.913 137.17V146H113.47V144.185H113.368C113.158 144.594 112.876 144.955 112.524 145.267C112.172 145.574 111.749 145.815 111.254 145.991C110.76 146.162 110.189 146.247 109.541 146.247ZM110.581 143.741C111.115 143.741 111.587 143.636 111.996 143.426C112.405 143.21 112.726 142.92 112.959 142.557C113.192 142.193 113.308 141.781 113.308 141.321V139.932C113.195 140.006 113.038 140.074 112.839 140.136C112.646 140.193 112.428 140.247 112.183 140.298C111.939 140.344 111.695 140.386 111.45 140.426C111.206 140.46 110.984 140.491 110.786 140.52C110.359 140.582 109.987 140.682 109.669 140.818C109.351 140.955 109.104 141.139 108.928 141.372C108.751 141.599 108.663 141.884 108.663 142.224C108.663 142.719 108.842 143.097 109.2 143.358C109.564 143.614 110.024 143.741 110.581 143.741ZM126.193 132.909V135.636H118.31V132.909H126.193ZM120.099 129.773H123.73V141.977C123.73 142.312 123.781 142.574 123.884 142.761C123.986 142.943 124.128 143.071 124.31 143.145C124.497 143.219 124.713 143.256 124.957 143.256C125.128 143.256 125.298 143.241 125.469 143.213C125.639 143.179 125.77 143.153 125.861 143.136L126.432 145.838C126.25 145.895 125.994 145.96 125.665 146.034C125.335 146.114 124.935 146.162 124.463 146.179C123.588 146.213 122.821 146.097 122.162 145.83C121.509 145.562 121 145.148 120.636 144.585C120.273 144.023 120.094 143.312 120.099 142.455V129.773ZM128.058 146V132.909H131.689V146H128.058ZM129.882 131.222C129.342 131.222 128.879 131.043 128.493 130.685C128.112 130.321 127.922 129.886 127.922 129.381C127.922 128.881 128.112 128.452 128.493 128.094C128.879 127.73 129.342 127.548 129.882 127.548C130.422 127.548 130.882 127.73 131.263 128.094C131.649 128.452 131.842 128.881 131.842 129.381C131.842 129.886 131.649 130.321 131.263 130.685C130.882 131.043 130.422 131.222 129.882 131.222ZM140.012 146.256C138.688 146.256 137.543 145.974 136.577 145.412C135.617 144.844 134.876 144.054 134.353 143.043C133.83 142.026 133.569 140.847 133.569 139.506C133.569 138.153 133.83 136.972 134.353 135.96C134.876 134.943 135.617 134.153 136.577 133.591C137.543 133.023 138.688 132.739 140.012 132.739C141.336 132.739 142.478 133.023 143.438 133.591C144.404 134.153 145.148 134.943 145.671 135.96C146.194 136.972 146.455 138.153 146.455 139.506C146.455 140.847 146.194 142.026 145.671 143.043C145.148 144.054 144.404 144.844 143.438 145.412C142.478 145.974 141.336 146.256 140.012 146.256ZM140.029 143.443C140.631 143.443 141.134 143.273 141.538 142.932C141.941 142.585 142.245 142.114 142.45 141.517C142.66 140.92 142.765 140.241 142.765 139.48C142.765 138.719 142.66 138.04 142.45 137.443C142.245 136.847 141.941 136.375 141.538 136.028C141.134 135.682 140.631 135.509 140.029 135.509C139.421 135.509 138.91 135.682 138.495 136.028C138.086 136.375 137.776 136.847 137.566 137.443C137.362 138.04 137.259 138.719 137.259 139.48C137.259 140.241 137.362 140.92 137.566 141.517C137.776 142.114 138.086 142.585 138.495 142.932C138.91 143.273 139.421 143.443 140.029 143.443ZM151.947 138.432V146H148.316V132.909H151.776V135.219H151.93C152.219 134.457 152.705 133.855 153.387 133.412C154.069 132.963 154.896 132.739 155.867 132.739C156.776 132.739 157.569 132.938 158.245 133.335C158.921 133.733 159.447 134.301 159.822 135.04C160.197 135.773 160.384 136.648 160.384 137.665V146H156.754V138.312C156.759 137.511 156.555 136.886 156.14 136.438C155.725 135.983 155.154 135.756 154.427 135.756C153.938 135.756 153.506 135.861 153.131 136.071C152.762 136.281 152.472 136.588 152.262 136.991C152.058 137.389 151.952 137.869 151.947 138.432Z" fill="#2E2F35"/>
<g opacity="0.6">
<path opacity="0.0526316" d="M202.504 8.32362C199.246 12.5142 195.045 24.2308 204.306 37.5724C215.882 54.2496 235.444 56.6277 248.987 70.6456C258.982 80.9918 277.825 110.956 271.616 132.787" stroke="white" stroke-width="0.811531"/>
<path opacity="0.105263" d="M210.246 2.96759C206.571 6.79212 201.178 18.0021 209.004 32.246C218.786 50.0508 237.994 54.4759 250.008 69.8431C258.875 81.1853 274.506 112.97 266.066 134.028" stroke="white" stroke-width="0.811531"/>
<path opacity="0.157895" d="M218.301 -1.67409C214.25 1.74249 207.723 12.3231 214.028 27.3131C221.91 46.0506 240.553 52.4741 250.907 69.0223C258.549 81.2362 270.797 114.493 260.218 134.546" stroke="white" stroke-width="0.811531"/>
<path opacity="0.210526" d="M226.595 -5.57356C222.211 -2.60236 214.622 7.233 219.337 22.8049C225.232 42.2697 243.106 50.6212 251.687 68.1692C258.02 81.1208 266.749 115.485 254.148 134.315" stroke="white" stroke-width="0.811531"/>
<path opacity="0.263158" d="M235.048 -8.70848C230.379 -6.21522 221.812 2.76709 224.886 18.7502C228.728 38.7292 245.638 48.9172 252.351 67.2726C257.305 80.8202 262.422 115.915 247.936 133.315" stroke="white" stroke-width="0.811531"/>
<path opacity="0.315789" d="M243.58 -11.0657C238.678 -9.07773 229.226 -1.04689 230.624 15.1724C232.373 35.4466 248.133 47.3595 252.905 66.3213C256.426 80.3164 257.874 115.758 241.661 131.537" stroke="white" stroke-width="0.811531"/>
<path opacity="0.368421" d="M252.11 -12.6432C247.029 -11.1823 236.795 -4.19087 236.503 12.0869C236.139 32.4341 250.577 45.9415 253.354 65.3018C255.405 79.5912 253.167 114.991 235.406 128.976" stroke="white" stroke-width="0.811531"/>
<path opacity="0.421053" d="M260.557 -13.4448C255.353 -12.5269 244.449 -6.65156 242.47 9.50634C239.997 29.7037 252.954 44.6574 253.708 64.2042C254.264 78.6312 248.366 113.602 229.251 125.64" stroke="white" stroke-width="0.811531"/>
<path opacity="0.473684" d="M268.842 -13.4821C263.571 -13.1173 252.117 -8.42234 248.473 7.43864C243.917 27.2649 255.251 43.5012 253.973 63.0203C253.03 77.4269 243.535 111.585 223.277 121.544" stroke="white" stroke-width="0.811531"/>
<path opacity="0.526316" d="M276.885 -12.7781C271.605 -12.9703 259.727 -9.50725 254.457 5.88305C247.869 25.1209 257.457 42.4619 254.161 61.7395C251.728 75.9678 238.741 108.938 217.56 116.71" stroke="white" stroke-width="0.811531"/>
<path opacity="0.578947" d="M284.612 -11.3621C279.381 -12.1094 267.209 -9.9161 260.37 4.83489C251.823 23.2736 259.559 41.5293 254.28 60.3541C250.384 74.2483 234.048 105.671 212.177 111.169" stroke="white" stroke-width="0.811531"/>
<path opacity="0.631579" d="M291.949 -9.2699C286.824 -10.5639 274.491 -9.66452 266.16 4.28555C255.746 21.7231 261.545 40.6935 254.343 58.8593C249.026 72.2671 229.519 101.797 207.197 104.962" stroke="white" stroke-width="0.811531"/>
<path opacity="0.684211" d="M298.83 -6.54798C293.867 -8.37464 281.508 -8.7789 271.775 4.21741C259.609 20.4628 263.409 39.9399 254.36 57.2478C247.682 70.0222 225.218 97.3362 202.69 98.1332" stroke="white" stroke-width="0.811531"/>
<path opacity="0.736842" d="M305.191 -3.24585C300.445 -5.58513 288.196 -7.28864 277.168 4.61152C263.382 19.4867 265.14 39.2573 254.346 55.5175C246.379 67.5187 221.204 92.3174 198.716 90.7377" stroke="white" stroke-width="0.811531"/>
<path opacity="0.789474" d="M310.974 0.57632C306.497 -2.24994 294.492 -5.23404 282.289 5.43958C267.036 18.7816 266.733 38.629 254.311 53.6634C245.142 64.7599 217.532 86.7716 195.332 82.8325" stroke="white" stroke-width="0.811531"/>
<path opacity="0.842105" d="M316.13 4.85571C311.97 1.57344 300.34 -2.65857 287.097 6.67158C270.544 18.3343 268.183 38.041 254.269 51.6849C243.999 61.7551 214.256 80.7387 192.586 74.4833" stroke="white" stroke-width="0.811531"/>
<path opacity="0.894737" d="M320.613 9.52496C316.817 5.82264 305.69 0.389103 291.551 8.27355C273.878 18.1291 269.486 37.4793 254.232 49.5832C242.974 58.5167 211.424 74.2642 190.522 65.7611" stroke="white" stroke-width="0.811531"/>
<path opacity="0.947368" d="M324.388 14.5094C320.997 10.4276 310.495 3.85206 295.615 10.2044C277.016 18.1449 270.64 36.9266 254.215 47.3578C242.091 55.0568 209.08 67.3956 189.175 56.738" stroke="white" stroke-width="0.811531"/>
<path d="M327.425 19.733C324.476 15.3164 314.713 7.6709 299.257 12.4216C279.936 18.36 271.646 36.3673 254.228 45.0116C241.372 51.3918 207.262 60.1867 188.571 47.4913" stroke="white" stroke-width="0.811531"/>
</g>
</g>
<defs>
<clipPath id="clip0_328_1194">
<rect width="305" height="178" rx="16" fill="white"/>
</clipPath>
</defs>
</svg>
