<svg width="305" height="178" viewBox="0 0 305 178" fill="none" xmlns="http://www.w3.org/2000/svg">
<g clip-path="url(#clip0_448_1600)">
<rect width="305" height="178" rx="16" fill="#E0DCF0"/>
<path d="M25.517 119V101.545H29.2074V108.747H36.6989V101.545H40.3807V119H36.6989V111.79H29.2074V119H25.517ZM46.6136 101.545V119H42.9233V101.545H46.6136ZM49.1499 119V101.545H56.0362C57.3601 101.545 58.4879 101.798 59.4197 102.304C60.3516 102.804 61.0618 103.5 61.5504 104.392C62.0447 105.278 62.2919 106.301 62.2919 107.46C62.2919 108.619 62.0419 109.642 61.5419 110.528C61.0419 111.415 60.3175 112.105 59.3686 112.599C58.4254 113.094 57.2834 113.341 55.9425 113.341H51.5533V110.384H55.3459C56.0561 110.384 56.6413 110.261 57.1016 110.017C57.5675 109.767 57.9141 109.423 58.1413 108.986C58.3743 108.543 58.4908 108.034 58.4908 107.46C58.4908 106.881 58.3743 106.375 58.1413 105.943C57.9141 105.506 57.5675 105.168 57.1016 104.929C56.6357 104.685 56.0447 104.562 55.3288 104.562H52.8402V119H49.1499ZM65.1818 119H61.2273L67.2528 101.545H72.0085L78.0256 119H74.071L69.6989 105.534H69.5625L65.1818 119ZM64.9347 112.139H74.2756V115.02H64.9347V112.139ZM82.6349 119H78.6804L84.706 101.545H89.4616L95.4787 119H91.5241L87.152 105.534H87.0156L82.6349 119ZM82.3878 112.139H91.7287V115.02H82.3878V112.139ZM25.517 148V130.545H32.4034C33.7216 130.545 34.8466 130.781 35.7784 131.253C36.7159 131.719 37.429 132.381 37.9176 133.239C38.4119 134.091 38.6591 135.094 38.6591 136.247C38.6591 137.406 38.4091 138.403 37.9091 139.239C37.4091 140.068 36.6847 140.705 35.7358 141.148C34.7926 141.591 33.6506 141.812 32.3097 141.812H27.6989V138.847H31.7131C32.4176 138.847 33.0028 138.75 33.4688 138.557C33.9347 138.364 34.2813 138.074 34.5085 137.688C34.7415 137.301 34.858 136.821 34.858 136.247C34.858 135.668 34.7415 135.179 34.5085 134.781C34.2813 134.384 33.9318 134.082 33.4602 133.878C32.9943 133.668 32.4063 133.562 31.696 133.562H29.2074V148H25.517ZM34.9432 140.057L39.2812 148H35.2074L30.9631 140.057H34.9432ZM46.4538 148.256C45.1072 148.256 43.9482 147.983 42.9766 147.438C42.0107 146.886 41.2663 146.108 40.7436 145.102C40.2209 144.091 39.9595 142.895 39.9595 141.514C39.9595 140.168 40.2209 138.986 40.7436 137.969C41.2663 136.952 42.0021 136.159 42.951 135.591C43.9055 135.023 45.0249 134.739 46.3089 134.739C47.1726 134.739 47.9766 134.878 48.7209 135.156C49.4709 135.429 50.1243 135.841 50.6811 136.392C51.2436 136.943 51.6811 137.636 51.9936 138.472C52.3061 139.301 52.4624 140.273 52.4624 141.386V142.384H41.4084V140.134H49.0447C49.0447 139.611 48.9311 139.148 48.7038 138.744C48.4766 138.341 48.1612 138.026 47.7578 137.798C47.3601 137.565 46.897 137.449 46.3686 137.449C45.8175 137.449 45.3288 137.577 44.9027 137.832C44.4822 138.082 44.1527 138.42 43.9141 138.847C43.6754 139.267 43.5533 139.736 43.5476 140.253V142.392C43.5476 143.04 43.6669 143.599 43.9055 144.071C44.1499 144.543 44.4936 144.906 44.9368 145.162C45.38 145.418 45.9055 145.545 46.5135 145.545C46.9169 145.545 47.2862 145.489 47.6214 145.375C47.9567 145.261 48.2436 145.091 48.4822 144.864C48.7209 144.636 48.9027 144.358 49.0277 144.028L52.3857 144.25C52.2152 145.057 51.8658 145.761 51.3374 146.364C50.8146 146.96 50.1385 147.426 49.3089 147.761C48.4851 148.091 47.5334 148.256 46.4538 148.256ZM57.9624 130.545V148H54.3317V130.545H57.9624ZM66.3366 148.256C64.9901 148.256 63.831 147.983 62.8594 147.438C61.8935 146.886 61.1491 146.108 60.6264 145.102C60.1037 144.091 59.8423 142.895 59.8423 141.514C59.8423 140.168 60.1037 138.986 60.6264 137.969C61.1491 136.952 61.8849 136.159 62.8338 135.591C63.7884 135.023 64.9077 134.739 66.1918 134.739C67.0554 134.739 67.8594 134.878 68.6037 135.156C69.3537 135.429 70.0071 135.841 70.5639 136.392C71.1264 136.943 71.5639 137.636 71.8764 138.472C72.1889 139.301 72.3452 140.273 72.3452 141.386V142.384H61.2912V140.134H68.9276C68.9276 139.611 68.8139 139.148 68.5866 138.744C68.3594 138.341 68.044 138.026 67.6406 137.798C67.2429 137.565 66.7798 137.449 66.2514 137.449C65.7003 137.449 65.2116 137.577 64.7855 137.832C64.3651 138.082 64.0355 138.42 63.7969 138.847C63.5582 139.267 63.4361 139.736 63.4304 140.253V142.392C63.4304 143.04 63.5497 143.599 63.7884 144.071C64.0327 144.543 64.3764 144.906 64.8196 145.162C65.2628 145.418 65.7884 145.545 66.3963 145.545C66.7997 145.545 67.169 145.489 67.5043 145.375C67.8395 145.261 68.1264 145.091 68.3651 144.864C68.6037 144.636 68.7855 144.358 68.9105 144.028L72.2685 144.25C72.098 145.057 71.7486 145.761 71.2202 146.364C70.6974 146.96 70.0213 147.426 69.1918 147.761C68.3679 148.091 67.4162 148.256 66.3366 148.256ZM77.9474 148.247C77.1122 148.247 76.3679 148.102 75.7145 147.812C75.0611 147.517 74.544 147.082 74.1634 146.509C73.7884 145.929 73.6009 145.207 73.6009 144.344C73.6009 143.616 73.7344 143.006 74.0014 142.511C74.2685 142.017 74.6321 141.619 75.0923 141.318C75.5526 141.017 76.0753 140.79 76.6605 140.636C77.2514 140.483 77.8707 140.375 78.5185 140.312C79.2798 140.233 79.8935 140.159 80.3594 140.091C80.8253 140.017 81.1634 139.909 81.3736 139.767C81.5838 139.625 81.6889 139.415 81.6889 139.136V139.085C81.6889 138.545 81.5185 138.128 81.1776 137.832C80.8423 137.537 80.3651 137.389 79.7457 137.389C79.0923 137.389 78.5724 137.534 78.1861 137.824C77.7997 138.108 77.544 138.466 77.419 138.898L74.0611 138.625C74.2315 137.83 74.5668 137.142 75.0668 136.562C75.5668 135.977 76.2116 135.528 77.0014 135.216C77.7969 134.898 78.7173 134.739 79.7628 134.739C80.4901 134.739 81.1861 134.824 81.8509 134.994C82.5213 135.165 83.1151 135.429 83.6321 135.787C84.1548 136.145 84.5668 136.605 84.8679 137.168C85.169 137.724 85.3196 138.392 85.3196 139.17V148H81.8764V146.185H81.7741C81.5639 146.594 81.2827 146.955 80.9304 147.267C80.5781 147.574 80.1548 147.815 79.6605 147.991C79.1662 148.162 78.5952 148.247 77.9474 148.247ZM78.9872 145.741C79.5213 145.741 79.9929 145.636 80.402 145.426C80.8111 145.21 81.1321 144.92 81.3651 144.557C81.598 144.193 81.7145 143.781 81.7145 143.321V141.932C81.6009 142.006 81.4446 142.074 81.2457 142.136C81.0526 142.193 80.8338 142.247 80.5895 142.298C80.3452 142.344 80.1009 142.386 79.8565 142.426C79.6122 142.46 79.3906 142.491 79.1918 142.52C78.7656 142.582 78.3935 142.682 78.0753 142.818C77.7571 142.955 77.5099 143.139 77.3338 143.372C77.1577 143.599 77.0696 143.884 77.0696 144.224C77.0696 144.719 77.2486 145.097 77.6065 145.358C77.9702 145.614 78.4304 145.741 78.9872 145.741ZM98.5284 138.642L95.2045 138.847C95.1477 138.562 95.0256 138.307 94.8381 138.08C94.6506 137.847 94.4034 137.662 94.0966 137.526C93.7955 137.384 93.4347 137.312 93.0142 137.312C92.4517 137.312 91.9773 137.432 91.5909 137.67C91.2045 137.903 91.0114 138.216 91.0114 138.608C91.0114 138.92 91.1364 139.185 91.3864 139.401C91.6364 139.616 92.0653 139.79 92.6733 139.92L95.0426 140.398C96.3153 140.659 97.2642 141.08 97.8892 141.659C98.5142 142.239 98.8267 143 98.8267 143.943C98.8267 144.801 98.5739 145.554 98.0682 146.202C97.5682 146.849 96.8807 147.355 96.0057 147.719C95.1364 148.077 94.1335 148.256 92.9972 148.256C91.2642 148.256 89.8835 147.895 88.8551 147.173C87.8324 146.446 87.233 145.457 87.0568 144.207L90.6278 144.02C90.7358 144.548 90.9972 144.952 91.4119 145.23C91.8267 145.503 92.358 145.639 93.0057 145.639C93.642 145.639 94.1534 145.517 94.5398 145.273C94.9318 145.023 95.1307 144.702 95.1364 144.31C95.1307 143.98 94.9915 143.71 94.7188 143.5C94.446 143.284 94.0256 143.119 93.4574 143.006L91.1903 142.554C89.9119 142.298 88.9602 141.855 88.3352 141.224C87.7159 140.594 87.4062 139.79 87.4062 138.812C87.4062 137.972 87.6335 137.247 88.0881 136.639C88.5483 136.031 89.1932 135.562 90.0227 135.233C90.858 134.903 91.8352 134.739 92.9545 134.739C94.608 134.739 95.9091 135.088 96.858 135.787C97.8125 136.486 98.3693 137.437 98.5284 138.642ZM106.579 148.256C105.232 148.256 104.073 147.983 103.102 147.438C102.136 146.886 101.391 146.108 100.869 145.102C100.346 144.091 100.085 142.895 100.085 141.514C100.085 140.168 100.346 138.986 100.869 137.969C101.391 136.952 102.127 136.159 103.076 135.591C104.031 135.023 105.15 134.739 106.434 134.739C107.298 134.739 108.102 134.878 108.846 135.156C109.596 135.429 110.249 135.841 110.806 136.392C111.369 136.943 111.806 137.636 112.119 138.472C112.431 139.301 112.587 140.273 112.587 141.386V142.384H101.533V140.134H109.17C109.17 139.611 109.056 139.148 108.829 138.744C108.602 138.341 108.286 138.026 107.883 137.798C107.485 137.565 107.022 137.449 106.494 137.449C105.942 137.449 105.454 137.577 105.028 137.832C104.607 138.082 104.278 138.42 104.039 138.847C103.8 139.267 103.678 139.736 103.673 140.253V142.392C103.673 143.04 103.792 143.599 104.031 144.071C104.275 144.543 104.619 144.906 105.062 145.162C105.505 145.418 106.031 145.545 106.638 145.545C107.042 145.545 107.411 145.489 107.746 145.375C108.082 145.261 108.369 145.091 108.607 144.864C108.846 144.636 109.028 144.358 109.153 144.028L112.511 144.25C112.34 145.057 111.991 145.761 111.462 146.364C110.94 146.96 110.263 147.426 109.434 147.761C108.61 148.091 107.658 148.256 106.579 148.256Z" fill="#484343"/>
<g opacity="0.6">
<path opacity="0.0344828" d="M234.316 -2.14327C236.368 -2.85527 239.058 -1.84069 242.227 0.813851C245.376 3.45243 248.915 7.64311 252.622 13.0776C260.033 23.9428 268.08 39.728 275 57.857C281.921 75.986 286.399 93.0098 288.047 105.875C288.871 112.31 288.986 117.689 288.352 121.64C287.714 125.616 286.337 128.041 284.285 128.753C282.234 129.465 279.544 128.451 276.375 125.796C273.225 123.158 269.686 118.967 265.98 113.533C258.569 102.667 250.522 86.8822 243.601 68.7532C236.681 50.6242 232.203 33.6003 230.555 20.7353C229.73 14.3006 229.616 8.92158 230.25 4.96995C230.888 0.994423 232.264 -1.43127 234.316 -2.14327Z" stroke="white" stroke-width="0.541021"/>
<path opacity="0.0689655" d="M240.687 -4.4531C242.797 -4.99214 245.384 -3.75731 248.297 -0.849958C251.194 2.04021 254.336 6.50888 257.532 12.2306C263.921 23.6701 270.495 40.0638 275.732 58.6988C280.969 77.3338 283.873 94.6648 284.339 107.618C284.572 114.096 284.194 119.464 283.201 123.348C282.203 127.255 280.61 129.558 278.5 130.097C276.39 130.636 273.803 129.401 270.889 126.493C267.992 123.603 264.85 119.135 261.655 113.413C255.265 101.973 248.692 85.5797 243.455 66.9447C238.218 48.3097 235.313 30.9787 234.847 18.0258C234.614 11.5472 234.992 6.17927 235.985 2.29552C236.984 -1.61134 238.577 -3.91405 240.687 -4.4531Z" stroke="white" stroke-width="0.541021"/>
<path opacity="0.103448" d="M247.201 -6.25108C249.353 -6.61286 251.818 -5.16731 254.454 -2.0292C257.076 1.09055 259.797 5.80323 262.458 11.7686C267.777 23.6955 272.827 40.5729 276.341 59.5721C279.854 78.5713 281.163 96.0776 280.443 109.02C280.083 115.493 279.216 120.809 277.872 124.595C276.52 128.404 274.723 130.566 272.571 130.928C270.419 131.29 267.954 129.844 265.318 126.706C262.697 123.586 259.975 118.873 257.314 112.908C251.995 100.981 246.945 84.1038 243.432 65.1046C239.918 46.1054 238.609 28.5991 239.329 15.657C239.689 9.18374 240.556 3.86773 241.9 0.081372C243.252 -3.72726 245.049 -5.8893 247.201 -6.25108Z" stroke="white" stroke-width="0.541021"/>
<path opacity="0.137931" d="M253.812 -7.5277C255.99 -7.70932 258.313 -6.0642 260.652 -2.71914C262.978 0.606495 265.259 5.52735 267.364 11.6911C271.573 24.0145 275.06 41.2472 276.824 60.4661C278.587 79.6849 278.291 97.2333 276.391 110.066C275.44 116.485 274.091 121.709 272.406 125.369C270.711 129.05 268.723 131.055 266.546 131.237C264.368 131.418 262.045 129.773 259.706 126.428C257.38 123.102 255.099 118.182 252.994 112.018C248.785 99.6945 245.298 82.4618 243.534 63.2429C241.77 44.0241 242.067 26.4757 243.967 13.6427C244.918 7.22411 246.267 2.00045 247.952 -1.65976C249.647 -5.34134 251.635 -7.34608 253.812 -7.5277Z" stroke="white" stroke-width="0.541021"/>
<path opacity="0.172414" d="M260.472 -8.2757C262.658 -8.2757 264.821 -6.44369 266.846 -2.91704C268.859 0.589218 270.681 5.68082 272.215 11.996C275.281 24.6222 277.18 42.0792 277.18 61.3714C277.18 80.6637 275.281 98.1206 272.215 110.747C270.681 117.062 268.859 122.154 266.846 125.66C264.821 129.187 262.658 131.019 260.472 131.019C258.286 131.019 256.122 129.187 254.097 125.66C252.084 122.154 250.262 117.062 248.729 110.747C245.662 98.1206 243.763 80.6637 243.763 61.3714C243.763 42.0792 245.662 24.6222 248.729 11.996C250.262 5.68082 252.084 0.589218 254.097 -2.91704C256.122 -6.44369 258.286 -8.2757 260.472 -8.2757Z" stroke="white" stroke-width="0.541021"/>
<path opacity="0.206897" d="M267.131 -8.49393C269.308 -8.31231 271.296 -6.30757 272.991 -2.62599C274.676 1.03422 276.026 6.25788 276.976 12.6765C278.877 25.5095 279.173 43.0579 277.409 62.2767C275.646 81.4955 272.158 98.7283 267.949 111.052C265.844 117.215 263.564 122.136 261.238 125.462C258.898 128.807 256.575 130.452 254.398 130.27C252.22 130.089 250.232 128.084 248.538 124.403C246.853 120.742 245.503 115.519 244.552 109.1C242.652 96.267 242.356 78.7187 244.119 59.4998C245.883 40.281 249.371 23.0483 253.579 10.7249C255.685 4.56112 257.965 -0.359732 260.291 -3.68537C262.631 -7.03042 264.954 -8.67554 267.131 -8.49393Z" stroke="white" stroke-width="0.541021"/>
<path opacity="0.241379" d="M273.742 -8.1855C275.894 -7.82372 277.691 -5.66168 279.043 -1.85304C280.387 1.93332 281.254 7.24932 281.614 13.7226C282.334 26.6647 281.025 44.171 277.512 63.1702C273.998 82.1694 268.948 99.0468 263.629 110.974C260.968 116.939 258.247 121.652 255.626 124.771C252.989 127.91 250.524 129.355 248.372 128.993C246.22 128.632 244.423 126.47 243.071 122.661C241.727 118.875 240.86 113.559 240.5 107.085C239.78 94.1432 241.089 76.6369 244.603 57.6377C248.117 38.6385 253.166 21.7611 258.486 9.83423C261.146 3.86882 263.868 -0.843865 266.489 -3.96362C269.126 -7.10173 271.59 -8.54728 273.742 -8.1855Z" stroke="white" stroke-width="0.541021"/>
<path opacity="0.275862" d="M280.256 -7.35358C282.366 -6.81453 283.959 -4.51182 284.958 -0.604966C285.951 3.27879 286.328 8.64672 286.095 15.1253C285.63 28.0782 282.725 45.4092 277.488 64.0442C272.251 82.6792 265.678 99.0729 259.288 110.512C256.092 116.234 252.95 120.703 250.054 123.593C247.14 126.5 244.553 127.735 242.443 127.196C240.333 126.657 238.74 124.354 237.741 120.447C236.749 116.564 236.371 111.196 236.604 104.717C237.07 91.7643 239.974 74.4333 245.211 55.7983C250.448 37.1633 257.022 20.7696 263.411 9.33009C266.607 3.6084 269.749 -0.860275 272.645 -3.75044C275.559 -6.65779 278.146 -7.89262 280.256 -7.35358Z" stroke="white" stroke-width="0.541021"/>
<path opacity="0.310345" d="M286.627 -6.01011C288.679 -5.29811 290.055 -2.87241 290.693 1.10312C291.327 5.05474 291.213 10.4338 290.388 16.8685C288.74 29.7335 284.263 46.7574 277.342 64.8864C270.421 83.0154 262.374 98.8006 254.963 109.666C251.257 115.1 247.718 119.291 244.568 121.929C241.399 124.584 238.709 125.599 236.658 124.887C234.606 124.175 233.229 121.749 232.592 117.773C231.958 113.822 232.072 108.443 232.896 102.008C234.544 89.143 239.022 72.1192 245.943 53.9901C252.863 35.8611 260.91 20.0759 268.321 9.21072C272.028 3.77628 275.567 -0.414405 278.717 -3.05298C281.885 -5.70752 284.575 -6.72211 286.627 -6.01011Z" stroke="white" stroke-width="0.541021"/>
<path opacity="0.344828" d="M292.808 -4.16974C294.786 -3.29046 295.935 -0.760336 296.207 3.25374C296.478 7.2432 295.872 12.5924 294.463 18.9342C291.645 31.6136 285.628 48.2008 277.076 65.6858C268.525 83.1709 259.065 98.2275 250.689 108.436C246.5 113.542 242.591 117.422 239.212 119.789C235.812 122.171 233.04 122.957 231.062 122.078C229.085 121.199 227.935 118.669 227.663 114.655C227.392 110.665 227.998 105.316 229.408 98.9741C232.225 86.2947 238.242 69.7075 246.794 52.2225C255.346 34.7374 264.805 19.6808 273.181 9.4726C277.37 4.36677 281.279 0.485967 284.658 -1.88094C288.058 -4.26246 290.83 -5.04902 292.808 -4.16974Z" stroke="white" stroke-width="0.541021"/>
<path opacity="0.37931" d="M298.754 -1.84848C300.643 -0.8089 301.557 1.8063 301.461 5.8285C301.366 9.82546 300.273 15.1042 298.289 21.3049C294.323 33.7021 286.813 49.7263 276.695 66.4344C266.578 83.1424 255.778 97.3558 246.5 106.829C241.86 111.568 237.611 115.109 234.029 117.186C230.423 119.277 227.59 119.829 225.702 118.79C223.813 117.75 222.899 115.135 222.995 111.113C223.09 107.116 224.183 101.837 226.166 95.6362C230.133 83.2391 237.643 67.2148 247.761 50.5068C257.878 33.7987 268.678 19.5853 277.956 10.1118C282.596 5.3734 286.844 1.83199 290.427 -0.245227C294.033 -2.33556 296.865 -2.88806 298.754 -1.84848Z" stroke="white" stroke-width="0.541021"/>
<path opacity="0.413793" d="M304.423 0.931648C306.208 2.12331 306.88 4.80368 306.417 8.80346C305.956 12.7775 304.385 17.9457 301.842 23.958C296.758 35.9787 287.811 51.3181 276.204 67.1219C264.598 82.9258 252.54 96.1879 242.431 104.855C237.375 109.189 232.819 112.364 229.06 114.136C225.276 115.919 222.404 116.234 220.619 115.042C218.834 113.85 218.162 111.17 218.625 107.17C219.086 103.196 220.657 98.0279 223.2 92.0156C228.284 79.9949 237.231 64.6555 248.837 48.8516C260.444 33.0478 272.502 19.7857 282.611 11.119C287.666 6.78413 292.223 3.6091 295.982 1.83741C299.766 0.0542513 302.638 -0.260015 304.423 0.931648Z" stroke="white" stroke-width="0.541021"/>
<path opacity="0.448276" d="M309.772 4.14703C310.605 4.81308 311.129 5.82297 311.341 7.17056C311.553 8.52038 311.449 10.193 311.038 12.1536C310.216 16.0745 308.179 21.0927 305.096 26.8709C298.931 38.4236 288.616 52.9614 275.609 67.7408C262.602 82.5201 249.377 94.7299 238.515 102.524C233.082 106.422 228.252 109.207 224.345 110.659C222.392 111.386 220.682 111.774 219.251 111.809C217.822 111.844 216.688 111.527 215.855 110.861C215.023 110.195 214.499 109.185 214.287 107.837C214.074 106.488 214.178 104.815 214.589 102.854C215.411 98.9334 217.449 93.9153 220.532 88.137C226.696 76.5844 237.011 62.0466 250.018 47.2672C263.025 32.4878 276.25 20.278 287.113 12.4841C292.546 8.58578 297.375 5.80132 301.282 4.34865C303.236 3.62229 304.946 3.23409 306.377 3.19908C307.806 3.16413 308.94 3.48097 309.772 4.14703Z" stroke="white" stroke-width="0.541021"/>
<path opacity="0.482759" d="M314.764 7.7679C315.532 8.49986 315.962 9.54879 316.05 10.9089C316.138 12.2712 315.881 13.9289 315.292 15.848C314.115 19.686 311.626 24.516 308.027 30.0162C300.83 41.0129 289.225 54.6384 274.916 68.2808C260.608 81.9232 246.317 92.9878 234.783 99.8496C229.014 103.282 223.948 105.654 219.923 106.777C217.91 107.338 216.171 107.583 214.742 107.499C213.316 107.415 212.216 107.005 211.448 106.273C210.68 105.541 210.25 104.492 210.162 103.132C210.074 101.77 210.331 100.112 210.92 98.1929C212.097 94.355 214.585 89.525 218.185 84.0248C225.382 73.0281 236.987 59.4026 251.296 45.7601C265.604 32.1177 279.895 21.0532 291.429 14.1914C297.198 10.7593 302.264 8.38662 306.289 7.26409C308.302 6.7028 310.041 6.45814 311.47 6.54219C312.896 6.62609 313.996 7.03594 314.764 7.7679Z" stroke="white" stroke-width="0.541021"/>
<path opacity="0.517241" d="M319.363 11.7639C320.061 12.556 320.393 13.636 320.356 14.9983C320.32 16.3627 319.912 17.9929 319.15 19.8559C317.627 23.5817 314.706 28.1867 310.617 33.367C302.442 43.724 289.636 56.3335 274.134 68.7351C258.633 81.1367 243.384 90.9718 231.267 96.8492C225.206 99.7888 219.943 101.732 215.83 102.515C213.773 102.907 212.018 103.007 210.603 102.804C209.189 102.602 208.131 102.102 207.434 101.31C206.737 100.518 206.405 99.4381 206.441 98.0759C206.478 96.7114 206.885 95.0813 207.647 93.2182C209.171 89.4924 212.092 84.8874 216.181 79.7072C224.356 69.3501 237.162 56.7406 252.664 44.339C268.165 31.9374 283.413 22.1024 295.531 16.225C301.591 13.2853 306.855 11.3425 310.968 10.5587C313.025 10.1667 314.779 10.0675 316.195 10.27C317.609 10.4721 318.666 10.9717 319.363 11.7639Z" stroke="white" stroke-width="0.541021"/>
<path opacity="0.551724" d="M323.537 16.1004C324.158 16.9466 324.391 18.0494 324.23 19.4035C324.068 20.7597 323.514 22.3499 322.584 24.1426C320.726 27.7279 317.395 32.0728 312.848 36.8937C303.757 46.5322 289.846 58.0297 273.27 69.0961C256.694 80.1625 240.604 88.6931 227.996 93.5413C221.689 95.9662 216.268 97.4643 212.098 97.9034C210.013 98.123 208.256 98.076 206.865 97.7567C205.475 97.4379 204.468 96.8524 203.846 96.0062C203.225 95.16 202.992 94.0571 203.153 92.7031C203.315 91.3469 203.869 89.7567 204.799 87.9639C206.657 84.3787 209.988 80.0337 214.535 75.2128C223.626 65.5743 237.536 54.0768 254.113 43.0104C270.689 31.9441 286.778 23.4134 299.387 18.5652C305.694 16.1403 311.115 14.6422 315.285 14.2031C317.369 13.9836 319.126 14.0305 320.518 14.3498C321.908 14.6687 322.915 15.2541 323.537 16.1004Z" stroke="white" stroke-width="0.541021"/>
<path opacity="0.586207" d="M327.255 20.7422C327.796 21.636 327.927 22.7533 327.643 24.0889C327.358 25.4266 326.661 26.9647 325.571 28.6735C323.391 32.0909 319.676 36.1427 314.705 40.5675C304.768 49.4141 289.859 59.712 272.334 69.3589C254.809 79.0058 238.001 86.1671 224.996 89.9492C218.492 91.8408 212.954 92.8828 208.76 92.9737C206.663 93.0192 204.917 92.8264 203.56 92.3926C202.204 91.9595 201.255 91.2927 200.714 90.399C200.173 89.5052 200.042 88.3879 200.326 87.0523C200.611 85.7147 201.309 84.1765 202.398 82.4677C204.578 79.0504 208.293 74.9985 213.264 70.5738C223.201 61.7271 238.11 51.4292 255.635 41.7823C273.16 32.1354 289.968 24.9741 302.973 21.1921C309.477 19.3004 315.015 18.2585 319.209 18.1675C321.306 18.122 323.052 18.3148 324.409 18.7486C325.765 19.1817 326.714 19.8485 327.255 20.7422Z" stroke="white" stroke-width="0.541021"/>
<path opacity="0.62069" d="M330.492 25.6486C330.949 26.5831 330.978 27.7065 330.572 29.0135C330.166 30.3223 329.331 31.7967 328.088 33.4086C325.605 36.632 321.533 40.3598 316.177 44.3547C305.468 52.3421 289.675 61.362 271.334 69.5159C252.994 77.6699 235.595 83.4073 222.294 86.0944C215.642 87.4384 210.029 88.0162 205.843 87.7583C203.749 87.6294 202.027 87.2922 200.715 86.7473C199.404 86.2032 198.52 85.4603 198.063 84.5257C197.606 83.5912 197.577 82.4679 197.983 81.1609C198.389 79.852 199.224 78.3777 200.466 76.7658C202.95 73.5424 207.022 69.8146 212.378 65.8196C223.087 57.8323 238.88 48.8124 257.221 40.6584C275.561 32.5044 292.96 26.767 306.261 24.0799C312.913 22.7359 318.526 22.1581 322.712 22.416C324.806 22.545 326.528 22.8822 327.84 23.4271C329.151 23.9712 330.035 24.7141 330.492 25.6486Z" stroke="white" stroke-width="0.541021"/>
<path opacity="0.655172" d="M333.224 30.7791C333.594 31.7473 333.52 32.8683 332.997 34.1367C332.473 35.4069 331.505 36.8062 330.12 38.3088C327.351 41.3137 322.954 44.689 317.253 48.2238C305.855 55.291 289.297 62.9642 270.281 69.5632C251.265 76.1621 233.407 80.4319 219.911 82.0036C213.161 82.7897 207.517 82.8989 203.37 82.2941C201.296 81.9916 199.611 81.5126 198.354 80.8607C197.098 80.2098 196.285 79.3964 195.916 78.4282C195.546 77.46 195.62 76.339 196.143 75.0707C196.667 73.8005 197.635 72.4012 199.02 70.8985C201.789 67.8937 206.186 64.5183 211.887 60.9835C223.285 53.9164 239.843 46.2431 258.859 39.6442C277.875 33.0452 295.733 28.7754 309.229 27.2038C315.979 26.4177 321.623 26.3085 325.77 26.9133C327.844 27.2157 329.529 27.6947 330.786 28.3466C332.042 28.9976 332.855 29.8109 333.224 30.7791Z" stroke="white" stroke-width="0.541021"/>
<path opacity="0.689655" d="M335.434 36.0909C335.714 37.0855 335.538 38.1957 334.901 39.4158C334.263 40.6376 333.171 41.9513 331.654 43.3332C328.621 46.0967 323.931 49.0938 317.929 52.1414C305.928 58.2346 288.731 64.5028 269.184 69.4965C249.637 74.4902 231.457 77.2598 217.869 77.704C211.072 77.9262 205.44 77.566 201.363 76.6188C199.325 76.1452 197.691 75.528 196.497 74.7741C195.306 74.0212 194.571 73.1436 194.291 72.149C194.012 71.1545 194.188 70.0442 194.825 68.8242C195.463 67.6023 196.555 66.2887 198.072 64.9068C201.105 62.1433 205.794 59.1462 211.797 56.0985C223.798 50.0053 240.995 43.7372 260.542 38.7435C280.088 33.7498 298.268 30.9802 311.857 30.536C318.653 30.3138 324.286 30.674 328.362 31.6212C330.401 32.0948 332.035 32.712 333.229 33.4659C334.42 34.2188 335.155 35.0964 335.434 36.0909Z" stroke="white" stroke-width="0.541021"/>
<path opacity="0.724138" d="M337.107 41.5402C337.294 42.5538 337.018 43.6449 336.271 44.8074C335.524 45.9716 334.316 47.1895 332.679 48.4402C329.404 50.9411 324.459 53.5373 318.201 56.0745C305.688 61.1473 287.984 65.9626 268.055 69.313C248.126 72.6634 229.761 73.9119 216.184 73.2252C209.393 72.8817 203.814 72.0548 199.84 70.7725C197.853 70.1313 196.281 69.3806 195.161 68.5304C194.043 67.6813 193.391 66.7462 193.204 65.7327C193.016 64.7191 193.293 63.628 194.039 62.4655C194.787 61.3014 195.995 60.0834 197.632 58.8327C200.907 56.3318 205.852 53.7357 212.11 51.1984C224.623 46.1256 242.327 41.3103 262.256 37.9599C282.185 34.6095 300.549 33.3611 314.127 34.0477C320.918 34.3912 326.496 35.2181 330.471 36.5004C332.458 37.1417 334.03 37.8923 335.15 38.7426C336.268 39.5916 336.919 40.5267 337.107 41.5402Z" stroke="white" stroke-width="0.541021"/>
<path opacity="0.758621" d="M338.232 47.0821C338.326 48.107 337.951 49.1709 337.101 50.267C336.25 51.3646 334.935 52.4776 333.19 53.5874C329.699 55.8068 324.535 57.9821 318.069 59.9897C305.14 64.0034 287.063 67.3292 266.903 69.0108C246.744 70.6924 228.335 70.4101 214.872 68.5978C208.138 67.6913 202.657 66.404 198.815 64.7963C196.893 63.9923 195.396 63.1139 194.358 62.1738C193.322 61.2351 192.758 60.2495 192.664 59.2245C192.57 58.1996 192.946 57.1357 193.795 56.0396C194.646 54.942 195.961 53.829 197.706 52.7192C201.197 50.4998 206.361 48.3245 212.828 46.317C225.756 42.3032 243.833 38.9774 263.993 37.2958C284.153 35.6142 302.561 35.8965 316.024 37.7088C322.758 38.6153 328.24 39.9026 332.082 41.5103C334.003 42.3143 335.5 43.1928 336.538 44.1328C337.574 45.0716 338.138 46.0571 338.232 47.0821Z" stroke="white" stroke-width="0.541021"/>
<path opacity="0.793103" d="M338.803 52.67C338.803 53.6987 338.332 54.7273 337.385 55.7486C336.437 56.7713 335.026 57.7709 333.185 58.7314C329.505 60.6523 324.162 62.3902 317.536 63.8528C304.29 66.777 285.978 68.588 265.741 68.588C245.504 68.588 227.192 66.777 213.946 63.8528C207.32 62.3902 201.977 60.6523 198.297 58.7314C196.456 57.7709 195.045 56.7713 194.097 55.7486C193.15 54.7273 192.679 53.6987 192.679 52.67C192.679 51.6412 193.15 50.6126 194.097 49.5913C195.045 48.5686 196.456 47.569 198.297 46.6085C201.977 44.6876 207.32 42.9497 213.946 41.4871C227.192 38.5629 245.504 36.752 265.741 36.752C285.978 36.752 304.29 38.5629 317.536 41.4871C324.162 42.9497 329.505 44.6876 333.185 46.6085C335.026 47.5691 336.437 48.5686 337.385 49.5913C338.332 50.6126 338.803 51.6412 338.803 52.67Z" stroke="white" stroke-width="0.541021"/>
<path opacity="0.827586" d="M338.818 58.2577C338.724 59.2827 338.16 60.2682 337.124 61.207C336.086 62.147 334.589 63.0255 332.667 63.8294C328.825 65.4371 323.344 66.7245 316.61 67.6309C303.147 69.4433 284.738 69.7256 264.579 68.044C244.419 66.3624 226.342 63.0366 213.413 59.0228C206.947 57.0152 201.783 54.8399 198.292 52.6206C196.547 51.5107 195.232 50.3977 194.381 49.3001C193.531 48.204 193.156 47.1402 193.25 46.1152C193.344 45.0903 193.908 44.1047 194.944 43.166C195.982 42.2259 197.479 41.3474 199.4 40.5435C203.242 38.9358 208.724 37.6484 215.458 36.742C228.921 34.9297 247.329 34.6473 267.489 36.3289C287.649 38.0105 305.726 41.3363 318.654 45.3501C325.121 47.3577 330.285 49.533 333.776 51.7523C335.521 52.8622 336.836 53.9752 337.687 55.0728C338.536 56.1689 338.912 57.2327 338.818 58.2577Z" stroke="white" stroke-width="0.541021"/>
<path opacity="0.862069" d="M338.278 63.799C338.09 64.8125 337.439 65.7476 336.321 66.5967C335.201 67.4469 333.629 68.1976 331.642 68.8388C327.668 70.1212 322.089 70.9481 315.298 71.2915C301.72 71.9782 283.356 70.7298 263.427 67.3794C243.498 64.0289 225.794 59.2136 213.281 54.1408C207.023 51.6036 202.078 49.0074 198.803 46.5065C197.166 45.2559 195.958 44.0379 195.211 42.8737C194.464 41.7112 194.188 40.6201 194.375 39.6066C194.562 38.593 195.214 37.6579 196.332 36.8089C197.452 35.9587 199.024 35.208 201.011 34.5667C204.985 33.2844 210.564 32.4575 217.355 32.1141C230.932 31.4274 249.297 32.6758 269.226 36.0262C289.155 39.3766 306.859 44.1919 319.372 49.2647C325.63 51.802 330.575 54.3981 333.85 56.899C335.487 58.1497 336.695 59.3677 337.442 60.5318C338.189 61.6943 338.465 62.7855 338.278 63.799Z" stroke="white" stroke-width="0.541021"/>
<path opacity="0.896552" d="M337.191 69.2483C336.911 70.2429 336.177 71.1204 334.985 71.8733C333.792 72.6272 332.157 73.2444 330.119 73.7181C326.043 74.6652 320.41 75.0254 313.613 74.8033C300.025 74.3591 281.845 71.5894 262.298 66.5957C242.751 61.602 225.554 55.3339 213.553 49.2407C207.551 46.1931 202.862 43.1959 199.828 40.4325C198.311 39.0506 197.22 37.7369 196.581 36.5151C195.944 35.295 195.768 34.1848 196.048 33.1902C196.327 32.1956 197.062 31.318 198.254 30.5652C199.447 29.8112 201.081 29.1941 203.12 28.7204C207.196 27.7732 212.829 27.413 219.625 27.6352C233.214 28.0794 251.394 30.8491 270.941 35.8428C290.487 40.8365 307.684 47.1046 319.685 53.1978C325.688 56.2454 330.377 59.2426 333.41 62.006C334.927 63.3879 336.019 64.7016 336.657 65.9234C337.294 67.1435 337.47 68.2537 337.191 69.2483Z" stroke="white" stroke-width="0.541021"/>
<path opacity="0.931035" d="M335.566 74.5604C335.197 75.5286 334.384 76.3419 333.128 76.9929C331.871 77.6448 330.186 78.1238 328.112 78.4262C323.965 79.031 318.321 78.9218 311.571 78.1357C298.075 76.5641 280.217 72.2943 261.201 65.6953C242.186 59.0964 225.627 51.4231 214.229 44.3559C208.528 40.8212 204.131 37.4458 201.362 34.441C199.977 32.9383 199.01 31.539 198.486 30.2688C197.962 29.0005 197.888 27.8794 198.258 26.9113C198.628 25.9431 199.44 25.1297 200.696 24.4788C201.954 23.8269 203.638 23.3479 205.712 23.0454C209.859 22.4406 215.503 22.5498 222.253 23.3359C235.749 24.9076 253.607 29.1774 272.623 35.7763C291.639 42.3753 308.197 50.0485 319.595 57.1157C325.296 60.6505 329.694 64.0258 332.463 67.0307C333.847 68.5333 334.815 69.9326 335.339 71.2028C335.862 72.4712 335.936 73.5922 335.566 74.5604Z" stroke="white" stroke-width="0.541021"/>
<path opacity="0.965517" d="M333.419 79.691C332.962 80.6256 332.078 81.3685 330.767 81.9126C329.455 82.4575 327.733 82.7947 325.64 82.9236C321.453 83.1815 315.841 82.6037 309.188 81.2597C295.887 78.5726 278.488 72.8352 260.148 64.6812C241.808 56.5273 226.014 47.5074 215.306 39.52C209.949 35.5251 205.878 31.7973 203.394 28.5739C202.152 26.962 201.316 25.4876 200.91 24.1787C200.505 22.8718 200.533 21.7484 200.99 20.8139C201.447 19.8794 202.332 19.1365 203.642 18.5924C204.955 18.0474 206.677 17.7103 208.77 17.5813C212.957 17.3234 218.569 17.9012 225.222 19.2452C238.522 21.9323 255.921 27.6697 274.262 35.8237C292.602 43.9777 308.396 52.9976 319.104 60.9849C324.46 64.9799 328.532 68.7077 331.016 71.9311C332.258 73.543 333.094 75.0173 333.5 76.3262C333.905 77.6331 333.876 78.7565 333.419 79.691Z" stroke="white" stroke-width="0.541021"/>
<path d="M330.768 84.5969C330.227 85.4907 329.277 86.1574 327.922 86.5906C326.565 87.0243 324.818 87.2171 322.721 87.1716C318.528 87.0807 312.989 86.0387 306.485 84.1471C293.481 80.365 276.673 73.2037 259.148 63.5568C241.623 53.9099 226.714 43.612 216.776 34.7654C211.806 30.3406 208.09 26.2888 205.911 22.8715C204.821 21.1626 204.123 19.6245 203.838 18.2868C203.554 16.9512 203.685 15.8339 204.226 14.9402C204.768 14.0464 205.717 13.3796 207.072 12.9465C208.43 12.5127 210.176 12.3199 212.273 12.3654C216.467 12.4564 222.005 13.4983 228.509 15.39C241.513 19.172 258.322 26.3333 275.847 35.9802C293.372 45.6271 308.28 55.925 318.218 64.7717C323.188 69.1964 326.904 73.2483 329.083 76.6656C330.173 78.3744 330.871 79.9126 331.156 81.2502C331.44 82.5858 331.309 83.7031 330.768 84.5969Z" stroke="white" stroke-width="0.541021"/>
</g>
</g>
<defs>
<clipPath id="clip0_448_1600">
<rect width="305" height="178" rx="16" fill="white"/>
</clipPath>
</defs>
</svg>
