<svg width="305" height="178" viewBox="0 0 305 178" fill="none" xmlns="http://www.w3.org/2000/svg">
<g clip-path="url(#clip0_448_1687)">
<rect width="305" height="178" rx="16" fill="#E3D3DE"/>
<path d="M40.9176 107.656H37.1847C37.1165 107.173 36.9773 106.744 36.767 106.369C36.5568 105.989 36.2869 105.665 35.9574 105.398C35.6278 105.131 35.2472 104.926 34.8153 104.784C34.3892 104.642 33.9261 104.571 33.4261 104.571C32.5227 104.571 31.7358 104.795 31.0653 105.244C30.3949 105.687 29.875 106.335 29.5057 107.188C29.1364 108.034 28.9517 109.062 28.9517 110.273C28.9517 111.517 29.1364 112.562 29.5057 113.409C29.8807 114.256 30.4034 114.895 31.0739 115.327C31.7443 115.759 32.5199 115.974 33.4006 115.974C33.8949 115.974 34.3523 115.909 34.7727 115.778C35.1989 115.648 35.5767 115.457 35.9062 115.207C36.2358 114.952 36.5085 114.642 36.7244 114.278C36.946 113.915 37.0994 113.5 37.1847 113.034L40.9176 113.051C40.821 113.852 40.5795 114.625 40.1932 115.369C39.8125 116.108 39.2983 116.77 38.6506 117.355C38.0085 117.935 37.2415 118.395 36.3494 118.736C35.4631 119.071 34.4602 119.239 33.3409 119.239C31.7841 119.239 30.392 118.886 29.1648 118.182C27.9432 117.477 26.9773 116.457 26.267 115.122C25.5625 113.787 25.2102 112.17 25.2102 110.273C25.2102 108.369 25.5682 106.75 26.2841 105.415C27 104.08 27.9716 103.062 29.1989 102.364C30.4261 101.659 31.8068 101.307 33.3409 101.307C34.3523 101.307 35.2898 101.449 36.1534 101.733C37.0227 102.017 37.7926 102.432 38.4631 102.977C39.1335 103.517 39.679 104.179 40.0994 104.963C40.5256 105.747 40.7983 106.645 40.9176 107.656ZM48.9105 119.256C47.5866 119.256 46.4418 118.974 45.4759 118.412C44.5156 117.844 43.7741 117.054 43.2514 116.043C42.7287 115.026 42.4673 113.847 42.4673 112.506C42.4673 111.153 42.7287 109.972 43.2514 108.96C43.7741 107.943 44.5156 107.153 45.4759 106.591C46.4418 106.023 47.5866 105.739 48.9105 105.739C50.2344 105.739 51.3764 106.023 52.3366 106.591C53.3026 107.153 54.0469 107.943 54.5696 108.96C55.0923 109.972 55.3537 111.153 55.3537 112.506C55.3537 113.847 55.0923 115.026 54.5696 116.043C54.0469 117.054 53.3026 117.844 52.3366 118.412C51.3764 118.974 50.2344 119.256 48.9105 119.256ZM48.9276 116.443C49.5298 116.443 50.0327 116.273 50.4361 115.932C50.8395 115.585 51.1435 115.114 51.348 114.517C51.5582 113.92 51.6634 113.241 51.6634 112.48C51.6634 111.719 51.5582 111.04 51.348 110.443C51.1435 109.847 50.8395 109.375 50.4361 109.028C50.0327 108.682 49.5298 108.509 48.9276 108.509C48.3196 108.509 47.8082 108.682 47.3935 109.028C46.9844 109.375 46.6747 109.847 46.4645 110.443C46.2599 111.04 46.1577 111.719 46.1577 112.48C46.1577 113.241 46.2599 113.92 46.4645 114.517C46.6747 115.114 46.9844 115.585 47.3935 115.932C47.8082 116.273 48.3196 116.443 48.9276 116.443ZM60.8452 111.432V119H57.2145V105.909H60.6747V108.219H60.8281C61.1179 107.457 61.6037 106.855 62.2855 106.412C62.9673 105.963 63.794 105.739 64.7656 105.739C65.6747 105.739 66.4673 105.938 67.1435 106.335C67.8196 106.733 68.3452 107.301 68.7202 108.04C69.0952 108.773 69.2827 109.648 69.2827 110.665V119H65.652V111.312C65.6577 110.511 65.4531 109.886 65.0384 109.438C64.6236 108.983 64.0526 108.756 63.3253 108.756C62.8366 108.756 62.4048 108.861 62.0298 109.071C61.6605 109.281 61.3707 109.588 61.1605 109.991C60.956 110.389 60.8509 110.869 60.8452 111.432ZM82.5362 109.642L79.2124 109.847C79.1555 109.562 79.0334 109.307 78.8459 109.08C78.6584 108.847 78.4112 108.662 78.1044 108.526C77.8033 108.384 77.4425 108.312 77.022 108.312C76.4595 108.312 75.9851 108.432 75.5987 108.67C75.2124 108.903 75.0192 109.216 75.0192 109.608C75.0192 109.92 75.1442 110.185 75.3942 110.401C75.6442 110.616 76.0732 110.79 76.6811 110.92L79.0504 111.398C80.3232 111.659 81.272 112.08 81.897 112.659C82.522 113.239 82.8345 114 82.8345 114.943C82.8345 115.801 82.5817 116.554 82.076 117.202C81.576 117.849 80.8885 118.355 80.0135 118.719C79.1442 119.077 78.1413 119.256 77.005 119.256C75.272 119.256 73.8913 118.895 72.8629 118.173C71.8402 117.446 71.2408 116.457 71.0646 115.207L74.6357 115.02C74.7436 115.548 75.005 115.952 75.4197 116.23C75.8345 116.503 76.3658 116.639 77.0135 116.639C77.6499 116.639 78.1612 116.517 78.5476 116.273C78.9396 116.023 79.1385 115.702 79.1442 115.31C79.1385 114.98 78.9993 114.71 78.7266 114.5C78.4538 114.284 78.0334 114.119 77.4652 114.006L75.1982 113.554C73.9197 113.298 72.968 112.855 72.343 112.224C71.7237 111.594 71.4141 110.79 71.4141 109.812C71.4141 108.972 71.6413 108.247 72.0959 107.639C72.5561 107.031 73.201 106.562 74.0305 106.233C74.8658 105.903 75.843 105.739 76.9624 105.739C78.6158 105.739 79.9169 106.088 80.8658 106.787C81.8203 107.486 82.3771 108.437 82.5362 109.642ZM90.5866 119.256C89.2401 119.256 88.081 118.983 87.1094 118.438C86.1435 117.886 85.3991 117.108 84.8764 116.102C84.3537 115.091 84.0923 113.895 84.0923 112.514C84.0923 111.168 84.3537 109.986 84.8764 108.969C85.3991 107.952 86.1349 107.159 87.0838 106.591C88.0384 106.023 89.1577 105.739 90.4418 105.739C91.3054 105.739 92.1094 105.878 92.8537 106.156C93.6037 106.429 94.2571 106.841 94.8139 107.392C95.3764 107.943 95.8139 108.636 96.1264 109.472C96.4389 110.301 96.5952 111.273 96.5952 112.386V113.384H85.5412V111.134H93.1776C93.1776 110.611 93.0639 110.148 92.8366 109.744C92.6094 109.341 92.294 109.026 91.8906 108.798C91.4929 108.565 91.0298 108.449 90.5014 108.449C89.9503 108.449 89.4616 108.577 89.0355 108.832C88.6151 109.082 88.2855 109.42 88.0469 109.847C87.8082 110.267 87.6861 110.736 87.6804 111.253V113.392C87.6804 114.04 87.7997 114.599 88.0384 115.071C88.2827 115.543 88.6264 115.906 89.0696 116.162C89.5128 116.418 90.0384 116.545 90.6463 116.545C91.0497 116.545 91.419 116.489 91.7543 116.375C92.0895 116.261 92.3764 116.091 92.6151 115.864C92.8537 115.636 93.0355 115.358 93.1605 115.028L96.5185 115.25C96.348 116.057 95.9986 116.761 95.4702 117.364C94.9474 117.96 94.2713 118.426 93.4418 118.761C92.6179 119.091 91.6662 119.256 90.5866 119.256ZM102.095 111.432V119H98.4645V105.909H101.925V108.219H102.078C102.368 107.457 102.854 106.855 103.536 106.412C104.217 105.963 105.044 105.739 106.016 105.739C106.925 105.739 107.717 105.938 108.393 106.335C109.07 106.733 109.595 107.301 109.97 108.04C110.345 108.773 110.533 109.648 110.533 110.665V119H106.902V111.312C106.908 110.511 106.703 109.886 106.288 109.438C105.874 108.983 105.303 108.756 104.575 108.756C104.087 108.756 103.655 108.861 103.28 109.071C102.911 109.281 102.621 109.588 102.411 109.991C102.206 110.389 102.101 110.869 102.095 111.432ZM119.857 105.909V108.636H111.974V105.909H119.857ZM113.763 102.773H117.394V114.977C117.394 115.312 117.445 115.574 117.548 115.761C117.65 115.943 117.792 116.071 117.974 116.145C118.161 116.219 118.377 116.256 118.621 116.256C118.792 116.256 118.962 116.241 119.133 116.213C119.303 116.179 119.434 116.153 119.525 116.136L120.096 118.838C119.914 118.895 119.658 118.96 119.329 119.034C118.999 119.114 118.599 119.162 118.127 119.179C117.252 119.213 116.485 119.097 115.826 118.83C115.173 118.562 114.664 118.148 114.3 117.585C113.937 117.023 113.758 116.312 113.763 115.455V102.773ZM133.817 105.909V108.636H125.737V105.909H133.817ZM127.587 119V104.963C127.587 104.014 127.771 103.227 128.141 102.602C128.516 101.977 129.027 101.509 129.675 101.196C130.322 100.884 131.058 100.727 131.882 100.727C132.439 100.727 132.947 100.77 133.408 100.855C133.874 100.94 134.22 101.017 134.447 101.085L133.8 103.812C133.658 103.767 133.482 103.724 133.271 103.685C133.067 103.645 132.857 103.625 132.641 103.625C132.107 103.625 131.734 103.75 131.524 104C131.314 104.244 131.209 104.588 131.209 105.031V119H127.587ZM140.981 119.256C139.657 119.256 138.512 118.974 137.546 118.412C136.586 117.844 135.844 117.054 135.322 116.043C134.799 115.026 134.538 113.847 134.538 112.506C134.538 111.153 134.799 109.972 135.322 108.96C135.844 107.943 136.586 107.153 137.546 106.591C138.512 106.023 139.657 105.739 140.981 105.739C142.305 105.739 143.447 106.023 144.407 106.591C145.373 107.153 146.117 107.943 146.64 108.96C147.163 109.972 147.424 111.153 147.424 112.506C147.424 113.847 147.163 115.026 146.64 116.043C146.117 117.054 145.373 117.844 144.407 118.412C143.447 118.974 142.305 119.256 140.981 119.256ZM140.998 116.443C141.6 116.443 142.103 116.273 142.506 115.932C142.91 115.585 143.214 115.114 143.418 114.517C143.629 113.92 143.734 113.241 143.734 112.48C143.734 111.719 143.629 111.04 143.418 110.443C143.214 109.847 142.91 109.375 142.506 109.028C142.103 108.682 141.6 108.509 140.998 108.509C140.39 108.509 139.879 108.682 139.464 109.028C139.055 109.375 138.745 109.847 138.535 110.443C138.33 111.04 138.228 111.719 138.228 112.48C138.228 113.241 138.33 113.92 138.535 114.517C138.745 115.114 139.055 115.585 139.464 115.932C139.879 116.273 140.39 116.443 140.998 116.443ZM149.285 119V105.909H152.805V108.193H152.941C153.18 107.381 153.58 106.767 154.143 106.352C154.705 105.932 155.353 105.722 156.086 105.722C156.268 105.722 156.464 105.733 156.674 105.756C156.884 105.778 157.069 105.81 157.228 105.849V109.071C157.058 109.02 156.822 108.974 156.521 108.935C156.219 108.895 155.944 108.875 155.694 108.875C155.16 108.875 154.683 108.991 154.262 109.224C153.847 109.452 153.518 109.77 153.273 110.179C153.035 110.588 152.915 111.06 152.915 111.594V119H149.285ZM40.9176 136.656H37.1847C37.1165 136.173 36.9773 135.744 36.767 135.369C36.5568 134.989 36.2869 134.665 35.9574 134.398C35.6278 134.131 35.2472 133.926 34.8153 133.784C34.3892 133.642 33.9261 133.571 33.4261 133.571C32.5227 133.571 31.7358 133.795 31.0653 134.244C30.3949 134.687 29.875 135.335 29.5057 136.188C29.1364 137.034 28.9517 138.062 28.9517 139.273C28.9517 140.517 29.1364 141.562 29.5057 142.409C29.8807 143.256 30.4034 143.895 31.0739 144.327C31.7443 144.759 32.5199 144.974 33.4006 144.974C33.8949 144.974 34.3523 144.909 34.7727 144.778C35.1989 144.648 35.5767 144.457 35.9062 144.207C36.2358 143.952 36.5085 143.642 36.7244 143.278C36.946 142.915 37.0994 142.5 37.1847 142.034L40.9176 142.051C40.821 142.852 40.5795 143.625 40.1932 144.369C39.8125 145.108 39.2983 145.77 38.6506 146.355C38.0085 146.935 37.2415 147.395 36.3494 147.736C35.4631 148.071 34.4602 148.239 33.3409 148.239C31.7841 148.239 30.392 147.886 29.1648 147.182C27.9432 146.477 26.9773 145.457 26.267 144.122C25.5625 142.787 25.2102 141.17 25.2102 139.273C25.2102 137.369 25.5682 135.75 26.2841 134.415C27 133.08 27.9716 132.062 29.1989 131.364C30.4261 130.659 31.8068 130.307 33.3409 130.307C34.3523 130.307 35.2898 130.449 36.1534 130.733C37.0227 131.017 37.7926 131.432 38.4631 131.977C39.1335 132.517 39.679 133.179 40.0994 133.963C40.5256 134.747 40.7983 135.645 40.9176 136.656ZM48.9105 148.256C47.5866 148.256 46.4418 147.974 45.4759 147.412C44.5156 146.844 43.7741 146.054 43.2514 145.043C42.7287 144.026 42.4673 142.847 42.4673 141.506C42.4673 140.153 42.7287 138.972 43.2514 137.96C43.7741 136.943 44.5156 136.153 45.4759 135.591C46.4418 135.023 47.5866 134.739 48.9105 134.739C50.2344 134.739 51.3764 135.023 52.3366 135.591C53.3026 136.153 54.0469 136.943 54.5696 137.96C55.0923 138.972 55.3537 140.153 55.3537 141.506C55.3537 142.847 55.0923 144.026 54.5696 145.043C54.0469 146.054 53.3026 146.844 52.3366 147.412C51.3764 147.974 50.2344 148.256 48.9105 148.256ZM48.9276 145.443C49.5298 145.443 50.0327 145.273 50.4361 144.932C50.8395 144.585 51.1435 144.114 51.348 143.517C51.5582 142.92 51.6634 142.241 51.6634 141.48C51.6634 140.719 51.5582 140.04 51.348 139.443C51.1435 138.847 50.8395 138.375 50.4361 138.028C50.0327 137.682 49.5298 137.509 48.9276 137.509C48.3196 137.509 47.8082 137.682 47.3935 138.028C46.9844 138.375 46.6747 138.847 46.4645 139.443C46.2599 140.04 46.1577 140.719 46.1577 141.48C46.1577 142.241 46.2599 142.92 46.4645 143.517C46.6747 144.114 46.9844 144.585 47.3935 144.932C47.8082 145.273 48.3196 145.443 48.9276 145.443ZM65.6094 142.426V134.909H69.2401V148H65.7543V145.622H65.6179C65.3224 146.389 64.831 147.006 64.1435 147.472C63.4616 147.937 62.6293 148.17 61.6463 148.17C60.7713 148.17 60.0014 147.972 59.3366 147.574C58.6719 147.176 58.152 146.611 57.777 145.878C57.4077 145.145 57.2202 144.267 57.2145 143.244V134.909H60.8452V142.597C60.8509 143.369 61.0582 143.98 61.4673 144.429C61.8764 144.878 62.4247 145.102 63.1122 145.102C63.5497 145.102 63.9588 145.003 64.3395 144.804C64.7202 144.599 65.027 144.298 65.2599 143.901C65.4986 143.503 65.6151 143.011 65.6094 142.426ZM75.2749 140.432V148H71.6442V134.909H75.1044V137.219H75.2578C75.5476 136.457 76.0334 135.855 76.7152 135.412C77.397 134.963 78.2237 134.739 79.1953 134.739C80.1044 134.739 80.897 134.938 81.5732 135.335C82.2493 135.733 82.7749 136.301 83.1499 137.04C83.5249 137.773 83.7124 138.648 83.7124 139.665V148H80.0817V140.312C80.0874 139.511 79.8828 138.886 79.468 138.438C79.0533 137.983 78.4822 137.756 77.755 137.756C77.2663 137.756 76.8345 137.861 76.4595 138.071C76.0902 138.281 75.8004 138.588 75.5902 138.991C75.3857 139.389 75.2805 139.869 75.2749 140.432ZM96.9659 138.642L93.642 138.847C93.5852 138.562 93.4631 138.307 93.2756 138.08C93.0881 137.847 92.8409 137.662 92.5341 137.526C92.233 137.384 91.8722 137.312 91.4517 137.312C90.8892 137.312 90.4148 137.432 90.0284 137.67C89.642 137.903 89.4489 138.216 89.4489 138.608C89.4489 138.92 89.5739 139.185 89.8239 139.401C90.0739 139.616 90.5028 139.79 91.1108 139.92L93.4801 140.398C94.7528 140.659 95.7017 141.08 96.3267 141.659C96.9517 142.239 97.2642 143 97.2642 143.943C97.2642 144.801 97.0114 145.554 96.5057 146.202C96.0057 146.849 95.3182 147.355 94.4432 147.719C93.5739 148.077 92.571 148.256 91.4347 148.256C89.7017 148.256 88.321 147.895 87.2926 147.173C86.2699 146.446 85.6705 145.457 85.4943 144.207L89.0653 144.02C89.1733 144.548 89.4347 144.952 89.8494 145.23C90.2642 145.503 90.7955 145.639 91.4432 145.639C92.0795 145.639 92.5909 145.517 92.9773 145.273C93.3693 145.023 93.5682 144.702 93.5739 144.31C93.5682 143.98 93.429 143.71 93.1562 143.5C92.8835 143.284 92.4631 143.119 91.8949 143.006L89.6278 142.554C88.3494 142.298 87.3977 141.855 86.7727 141.224C86.1534 140.594 85.8438 139.79 85.8438 138.812C85.8438 137.972 86.071 137.247 86.5256 136.639C86.9858 136.031 87.6307 135.562 88.4602 135.233C89.2955 134.903 90.2727 134.739 91.392 134.739C93.0455 134.739 94.3466 135.088 95.2955 135.787C96.25 136.486 96.8068 137.437 96.9659 138.642ZM105.016 148.256C103.67 148.256 102.511 147.983 101.539 147.438C100.573 146.886 99.8288 146.108 99.3061 145.102C98.7834 144.091 98.522 142.895 98.522 141.514C98.522 140.168 98.7834 138.986 99.3061 137.969C99.8288 136.952 100.565 136.159 101.513 135.591C102.468 135.023 103.587 134.739 104.871 134.739C105.735 134.739 106.539 134.878 107.283 135.156C108.033 135.429 108.687 135.841 109.244 136.392C109.806 136.943 110.244 137.636 110.556 138.472C110.869 139.301 111.025 140.273 111.025 141.386V142.384H99.9709V140.134H107.607C107.607 139.611 107.494 139.148 107.266 138.744C107.039 138.341 106.724 138.026 106.32 137.798C105.923 137.565 105.46 137.449 104.931 137.449C104.38 137.449 103.891 137.577 103.465 137.832C103.045 138.082 102.715 138.42 102.477 138.847C102.238 139.267 102.116 139.736 102.11 140.253V142.392C102.11 143.04 102.229 143.599 102.468 144.071C102.712 144.543 103.056 144.906 103.499 145.162C103.942 145.418 104.468 145.545 105.076 145.545C105.479 145.545 105.849 145.489 106.184 145.375C106.519 145.261 106.806 145.091 107.045 144.864C107.283 144.636 107.465 144.358 107.59 144.028L110.948 144.25C110.778 145.057 110.428 145.761 109.9 146.364C109.377 146.96 108.701 147.426 107.871 147.761C107.048 148.091 106.096 148.256 105.016 148.256ZM116.525 130.545V148H112.894V130.545H116.525ZM118.933 148V134.909H122.564V148H118.933ZM120.757 133.222C120.217 133.222 119.754 133.043 119.368 132.685C118.987 132.321 118.797 131.886 118.797 131.381C118.797 130.881 118.987 130.452 119.368 130.094C119.754 129.73 120.217 129.548 120.757 129.548C121.297 129.548 121.757 129.73 122.138 130.094C122.524 130.452 122.717 130.881 122.717 131.381C122.717 131.886 122.524 132.321 122.138 132.685C121.757 133.043 121.297 133.222 120.757 133.222ZM128.603 140.432V148H124.972V134.909H128.433V137.219H128.586C128.876 136.457 129.362 135.855 130.043 135.412C130.725 134.963 131.552 134.739 132.523 134.739C133.433 134.739 134.225 134.938 134.901 135.335C135.577 135.733 136.103 136.301 136.478 137.04C136.853 137.773 137.04 138.648 137.04 139.665V148H133.41V140.312C133.415 139.511 133.211 138.886 132.796 138.438C132.381 137.983 131.81 137.756 131.083 137.756C130.594 137.756 130.163 137.861 129.788 138.071C129.418 138.281 129.129 138.588 128.918 138.991C128.714 139.389 128.609 139.869 128.603 140.432ZM145.3 153.182C144.124 153.182 143.115 153.02 142.274 152.696C141.439 152.378 140.774 151.943 140.28 151.392C139.786 150.841 139.464 150.222 139.317 149.534L142.675 149.082C142.777 149.344 142.939 149.588 143.161 149.815C143.382 150.043 143.675 150.224 144.038 150.361C144.408 150.503 144.857 150.574 145.385 150.574C146.175 150.574 146.825 150.381 147.337 149.994C147.854 149.614 148.112 148.974 148.112 148.077V145.682H147.959C147.8 146.045 147.561 146.389 147.243 146.713C146.925 147.037 146.516 147.301 146.016 147.506C145.516 147.71 144.919 147.812 144.226 147.812C143.243 147.812 142.348 147.585 141.541 147.131C140.74 146.67 140.101 145.969 139.624 145.026C139.152 144.077 138.916 142.878 138.916 141.429C138.916 139.946 139.158 138.707 139.641 137.713C140.124 136.719 140.766 135.974 141.567 135.48C142.374 134.986 143.257 134.739 144.217 134.739C144.95 134.739 145.564 134.864 146.058 135.114C146.553 135.358 146.95 135.665 147.251 136.034C147.558 136.398 147.794 136.756 147.959 137.108H148.095V134.909H151.7V148.128C151.7 149.241 151.428 150.173 150.882 150.923C150.337 151.673 149.581 152.236 148.615 152.611C147.655 152.991 146.55 153.182 145.3 153.182ZM145.376 145.085C145.962 145.085 146.456 144.94 146.859 144.651C147.268 144.355 147.581 143.935 147.797 143.389C148.018 142.838 148.129 142.179 148.129 141.412C148.129 140.645 148.021 139.98 147.805 139.418C147.589 138.849 147.277 138.409 146.868 138.097C146.459 137.784 145.962 137.628 145.376 137.628C144.78 137.628 144.277 137.79 143.868 138.114C143.459 138.432 143.149 138.875 142.939 139.443C142.729 140.011 142.624 140.668 142.624 141.412C142.624 142.168 142.729 142.821 142.939 143.372C143.155 143.918 143.464 144.341 143.868 144.642C144.277 144.937 144.78 145.085 145.376 145.085Z" fill="#484343"/>
<g opacity="0.3">
<path d="M188.761 22.4552C178.223 -15.7284 217.257 -19.6151 245.427 -8.08558C261.862 -2.15611 272.656 -20.5963 293.017 -13.2371C313.377 -5.87781 288.969 17.3038 320.123 29.2013C351.277 41.0987 336.068 94.3305 308.839 94.9438C281.61 95.5571 289.092 104.511 261.862 124.994C234.633 145.477 188.761 117.022 200.167 86.9713C211.574 56.9211 200.167 63.7897 188.761 22.4552Z" stroke="white" stroke-width="1.2494"/>
<path d="M247.366 52.1737C246.15 48.5369 251.844 42.6699 256.424 45.1738C260.617 47.4666 264.887 45.9202 267.708 46.9424C275.134 49.6335 272.403 51.0579 275.723 54.2539C279.762 58.1431 281.69 68.3271 272.403 68.3271C264.764 68.3271 267.05 72.0371 261.33 73.681C255.61 75.3248 249.123 72.5266 249.123 65.1596C249.123 62.3931 249.391 58.2309 247.366 52.1737Z" stroke="white" stroke-width="1.2494"/>
<path d="M194.089 24.971C184.399 -10.0721 220.402 -14.1387 246.427 -3.42976C261.749 2.1691 271.95 -14.7353 290.716 -7.95213C309.901 -1.01727 287.463 20.1864 316.087 31.2928C344.776 42.4623 331.125 91.7806 305.527 92.3382C280.079 92.8957 287.088 101.373 261.814 120.143C236.54 138.914 194.248 112.791 204.618 84.8025C214.988 57.2326 204.642 63.0984 194.089 24.971Z" stroke="white" stroke-width="1.2494"/>
<path d="M199.414 27.4849C190.571 -4.41754 223.543 -8.66425 247.424 1.22421C261.634 6.49247 271.241 -8.87611 288.413 -2.66906C306.422 3.84142 285.955 23.0672 312.048 33.3826C338.272 43.824 326.179 89.2289 302.212 89.7307C278.544 90.2325 285.082 98.2328 261.763 115.291C238.445 132.349 199.733 108.558 209.066 82.6318C218.399 57.5422 209.115 62.4053 199.414 27.4849Z" stroke="white" stroke-width="1.2494"/>
<path d="M204.742 30.0038C196.747 1.24199 226.688 -3.18475 248.424 5.8832C261.521 10.8209 270.535 -3.01192 286.112 2.61903C302.945 8.70513 284.449 25.953 308.012 35.4773C331.771 45.1907 321.236 86.6822 298.9 87.1282C277.013 87.5742 283.078 95.0979 261.715 110.443C240.352 125.788 205.221 104.33 213.517 80.4662C221.813 57.8569 213.59 61.7171 204.742 30.0038Z" stroke="white" stroke-width="1.2494"/>
<path d="M210.069 32.52C202.921 6.89879 229.832 2.29201 249.423 10.5394C261.407 15.1465 269.828 2.84953 283.811 7.90439C299.468 13.5661 282.942 28.836 303.975 37.5693C325.269 46.5547 316.292 84.1327 295.587 84.523C275.481 84.9132 281.074 91.9602 261.666 105.593C242.258 119.225 210.708 100.1 217.967 78.2978C225.226 58.1689 218.064 61.0263 210.069 32.52Z" stroke="white" stroke-width="1.2494"/>
<path d="M215.396 35.1636C209.096 12.6831 232.975 7.89625 250.422 15.3232C261.293 19.5996 269.121 8.83846 281.509 13.3172C295.991 18.5546 281.435 31.8465 299.938 39.7888C318.767 48.0461 311.348 81.7107 292.274 82.0452C273.949 82.3798 279.069 88.95 261.617 100.87C244.165 112.79 216.195 95.9965 222.417 76.2569C228.639 58.6083 222.538 60.4629 215.396 35.1636Z" stroke="white" stroke-width="1.2494"/>
<path d="M220.722 37.9599C215.269 18.62 236.118 13.6532 251.42 20.2596C261.178 24.2055 268.413 14.9801 279.207 18.8827C292.513 23.6957 279.928 35.0098 295.9 42.161C312.264 49.6903 306.403 79.4415 288.96 79.7202C272.416 79.999 277.064 86.0925 261.567 96.2997C246.07 106.507 221.681 92.0462 226.866 74.3687C232.051 59.2004 227.012 60.0522 220.722 37.9599Z" stroke="white" stroke-width="1.2494"/>
<path d="M226.05 40.7618C221.445 24.5625 239.263 19.4156 252.42 25.2016C261.065 28.8168 267.707 21.1272 276.906 24.4538C289.036 28.8424 278.422 38.1785 291.864 44.5387C305.763 51.34 301.459 77.1777 285.647 77.4007C270.885 77.6237 275.06 83.2406 261.519 91.7351C247.977 100.23 227.168 88.1014 231.316 72.486C235.464 59.7981 231.486 59.6471 226.05 40.7618Z" stroke="white" stroke-width="1.2494"/>
<path d="M231.377 43.5777C227.619 30.5191 242.406 25.1921 253.419 30.1575C260.951 33.4422 267 27.2884 274.605 30.0389C285.559 34.0031 276.915 41.3613 287.826 46.9304C299.261 53.0037 296.515 74.928 282.334 75.0952C269.353 75.2625 273.056 80.4026 261.47 87.1845C249.884 93.9664 232.655 84.1706 235.766 70.6173C238.877 60.4098 235.961 59.2559 231.377 43.5777Z" stroke="white" stroke-width="1.2494"/>
<path d="M236.705 46.4104C233.794 36.4924 245.55 30.9854 254.419 35.1303C260.838 38.0844 266.294 33.4664 272.304 35.6408C282.082 39.1806 275.409 44.5609 283.79 49.339C292.76 54.6842 291.572 72.695 279.022 72.8065C267.821 72.918 271.052 77.5815 261.421 82.6507C251.79 87.7199 238.142 80.2567 240.216 68.7654C242.29 61.0382 240.435 58.8816 236.705 46.4104Z" stroke="white" stroke-width="1.2494"/>
<path d="M242.033 49.2691C239.97 42.4917 248.696 36.8047 255.419 40.1291C260.725 42.7526 265.588 39.6704 270.004 41.2687C278.606 44.3841 273.904 47.7865 279.754 51.7735C286.259 56.3907 286.629 70.4881 275.71 70.5439C266.291 70.5996 269.049 74.7864 261.374 78.1429C253.698 81.4994 243.631 76.3687 244.668 66.9396C245.705 61.6928 244.911 58.5333 242.033 49.2691Z" stroke="white" stroke-width="1.2494"/>
</g>
</g>
<defs>
<clipPath id="clip0_448_1687">
<rect width="305" height="178" rx="16" fill="white"/>
</clipPath>
</defs>
</svg>
