<svg width="305" height="178" viewBox="0 0 305 178" fill="none" xmlns="http://www.w3.org/2000/svg">
<g clip-path="url(#clip0_336_2318)">
<rect width="305" height="178" rx="16" fill="#F0D8A4"/>
<path d="M40.9176 107.656H37.1847C37.1165 107.173 36.9773 106.744 36.767 106.369C36.5568 105.989 36.2869 105.665 35.9574 105.398C35.6278 105.131 35.2472 104.926 34.8153 104.784C34.3892 104.642 33.9261 104.571 33.4261 104.571C32.5227 104.571 31.7358 104.795 31.0653 105.244C30.3949 105.687 29.875 106.335 29.5057 107.188C29.1364 108.034 28.9517 109.062 28.9517 110.273C28.9517 111.517 29.1364 112.562 29.5057 113.409C29.8807 114.256 30.4034 114.895 31.0739 115.327C31.7443 115.759 32.5199 115.974 33.4006 115.974C33.8949 115.974 34.3523 115.909 34.7727 115.778C35.1989 115.648 35.5767 115.457 35.9062 115.207C36.2358 114.952 36.5085 114.642 36.7244 114.278C36.946 113.915 37.0994 113.5 37.1847 113.034L40.9176 113.051C40.821 113.852 40.5795 114.625 40.1932 115.369C39.8125 116.108 39.2983 116.77 38.6506 117.355C38.0085 117.935 37.2415 118.395 36.3494 118.736C35.4631 119.071 34.4602 119.239 33.3409 119.239C31.7841 119.239 30.392 118.886 29.1648 118.182C27.9432 117.477 26.9773 116.457 26.267 115.122C25.5625 113.787 25.2102 112.17 25.2102 110.273C25.2102 108.369 25.5682 106.75 26.2841 105.415C27 104.08 27.9716 103.062 29.1989 102.364C30.4261 101.659 31.8068 101.307 33.3409 101.307C34.3523 101.307 35.2898 101.449 36.1534 101.733C37.0227 102.017 37.7926 102.432 38.4631 102.977C39.1335 103.517 39.679 104.179 40.0994 104.963C40.5256 105.747 40.7983 106.645 40.9176 107.656ZM48.9105 119.256C47.5866 119.256 46.4418 118.974 45.4759 118.412C44.5156 117.844 43.7741 117.054 43.2514 116.043C42.7287 115.026 42.4673 113.847 42.4673 112.506C42.4673 111.153 42.7287 109.972 43.2514 108.96C43.7741 107.943 44.5156 107.153 45.4759 106.591C46.4418 106.023 47.5866 105.739 48.9105 105.739C50.2344 105.739 51.3764 106.023 52.3366 106.591C53.3026 107.153 54.0469 107.943 54.5696 108.96C55.0923 109.972 55.3537 111.153 55.3537 112.506C55.3537 113.847 55.0923 115.026 54.5696 116.043C54.0469 117.054 53.3026 117.844 52.3366 118.412C51.3764 118.974 50.2344 119.256 48.9105 119.256ZM48.9276 116.443C49.5298 116.443 50.0327 116.273 50.4361 115.932C50.8395 115.585 51.1435 115.114 51.348 114.517C51.5582 113.92 51.6634 113.241 51.6634 112.48C51.6634 111.719 51.5582 111.04 51.348 110.443C51.1435 109.847 50.8395 109.375 50.4361 109.028C50.0327 108.682 49.5298 108.509 48.9276 108.509C48.3196 108.509 47.8082 108.682 47.3935 109.028C46.9844 109.375 46.6747 109.847 46.4645 110.443C46.2599 111.04 46.1577 111.719 46.1577 112.48C46.1577 113.241 46.2599 113.92 46.4645 114.517C46.6747 115.114 46.9844 115.585 47.3935 115.932C47.8082 116.273 48.3196 116.443 48.9276 116.443ZM60.8452 111.432V119H57.2145V105.909H60.6747V108.219H60.8281C61.1179 107.457 61.6037 106.855 62.2855 106.412C62.9673 105.963 63.794 105.739 64.7656 105.739C65.6747 105.739 66.4673 105.938 67.1435 106.335C67.8196 106.733 68.3452 107.301 68.7202 108.04C69.0952 108.773 69.2827 109.648 69.2827 110.665V119H65.652V111.312C65.6577 110.511 65.4531 109.886 65.0384 109.438C64.6236 108.983 64.0526 108.756 63.3253 108.756C62.8366 108.756 62.4048 108.861 62.0298 109.071C61.6605 109.281 61.3707 109.588 61.1605 109.991C60.956 110.389 60.8509 110.869 60.8452 111.432ZM82.5362 109.642L79.2124 109.847C79.1555 109.562 79.0334 109.307 78.8459 109.08C78.6584 108.847 78.4112 108.662 78.1044 108.526C77.8033 108.384 77.4425 108.312 77.022 108.312C76.4595 108.312 75.9851 108.432 75.5987 108.67C75.2124 108.903 75.0192 109.216 75.0192 109.608C75.0192 109.92 75.1442 110.185 75.3942 110.401C75.6442 110.616 76.0732 110.79 76.6811 110.92L79.0504 111.398C80.3232 111.659 81.272 112.08 81.897 112.659C82.522 113.239 82.8345 114 82.8345 114.943C82.8345 115.801 82.5817 116.554 82.076 117.202C81.576 117.849 80.8885 118.355 80.0135 118.719C79.1442 119.077 78.1413 119.256 77.005 119.256C75.272 119.256 73.8913 118.895 72.8629 118.173C71.8402 117.446 71.2408 116.457 71.0646 115.207L74.6357 115.02C74.7436 115.548 75.005 115.952 75.4197 116.23C75.8345 116.503 76.3658 116.639 77.0135 116.639C77.6499 116.639 78.1612 116.517 78.5476 116.273C78.9396 116.023 79.1385 115.702 79.1442 115.31C79.1385 114.98 78.9993 114.71 78.7266 114.5C78.4538 114.284 78.0334 114.119 77.4652 114.006L75.1982 113.554C73.9197 113.298 72.968 112.855 72.343 112.224C71.7237 111.594 71.4141 110.79 71.4141 109.812C71.4141 108.972 71.6413 108.247 72.0959 107.639C72.5561 107.031 73.201 106.562 74.0305 106.233C74.8658 105.903 75.843 105.739 76.9624 105.739C78.6158 105.739 79.9169 106.088 80.8658 106.787C81.8203 107.486 82.3771 108.437 82.5362 109.642ZM90.5866 119.256C89.2401 119.256 88.081 118.983 87.1094 118.438C86.1435 117.886 85.3991 117.108 84.8764 116.102C84.3537 115.091 84.0923 113.895 84.0923 112.514C84.0923 111.168 84.3537 109.986 84.8764 108.969C85.3991 107.952 86.1349 107.159 87.0838 106.591C88.0384 106.023 89.1577 105.739 90.4418 105.739C91.3054 105.739 92.1094 105.878 92.8537 106.156C93.6037 106.429 94.2571 106.841 94.8139 107.392C95.3764 107.943 95.8139 108.636 96.1264 109.472C96.4389 110.301 96.5952 111.273 96.5952 112.386V113.384H85.5412V111.134H93.1776C93.1776 110.611 93.0639 110.148 92.8366 109.744C92.6094 109.341 92.294 109.026 91.8906 108.798C91.4929 108.565 91.0298 108.449 90.5014 108.449C89.9503 108.449 89.4616 108.577 89.0355 108.832C88.6151 109.082 88.2855 109.42 88.0469 109.847C87.8082 110.267 87.6861 110.736 87.6804 111.253V113.392C87.6804 114.04 87.7997 114.599 88.0384 115.071C88.2827 115.543 88.6264 115.906 89.0696 116.162C89.5128 116.418 90.0384 116.545 90.6463 116.545C91.0497 116.545 91.419 116.489 91.7543 116.375C92.0895 116.261 92.3764 116.091 92.6151 115.864C92.8537 115.636 93.0355 115.358 93.1605 115.028L96.5185 115.25C96.348 116.057 95.9986 116.761 95.4702 117.364C94.9474 117.96 94.2713 118.426 93.4418 118.761C92.6179 119.091 91.6662 119.256 90.5866 119.256ZM102.095 111.432V119H98.4645V105.909H101.925V108.219H102.078C102.368 107.457 102.854 106.855 103.536 106.412C104.217 105.963 105.044 105.739 106.016 105.739C106.925 105.739 107.717 105.938 108.393 106.335C109.07 106.733 109.595 107.301 109.97 108.04C110.345 108.773 110.533 109.648 110.533 110.665V119H106.902V111.312C106.908 110.511 106.703 109.886 106.288 109.438C105.874 108.983 105.303 108.756 104.575 108.756C104.087 108.756 103.655 108.861 103.28 109.071C102.911 109.281 102.621 109.588 102.411 109.991C102.206 110.389 102.101 110.869 102.095 111.432ZM119.857 105.909V108.636H111.974V105.909H119.857ZM113.763 102.773H117.394V114.977C117.394 115.312 117.445 115.574 117.548 115.761C117.65 115.943 117.792 116.071 117.974 116.145C118.161 116.219 118.377 116.256 118.621 116.256C118.792 116.256 118.962 116.241 119.133 116.213C119.303 116.179 119.434 116.153 119.525 116.136L120.096 118.838C119.914 118.895 119.658 118.96 119.329 119.034C118.999 119.114 118.599 119.162 118.127 119.179C117.252 119.213 116.485 119.097 115.826 118.83C115.173 118.562 114.664 118.148 114.3 117.585C113.937 117.023 113.758 116.312 113.763 115.455V102.773ZM133.817 105.909V108.636H125.737V105.909H133.817ZM127.587 119V104.963C127.587 104.014 127.771 103.227 128.141 102.602C128.516 101.977 129.027 101.509 129.675 101.196C130.322 100.884 131.058 100.727 131.882 100.727C132.439 100.727 132.947 100.77 133.408 100.855C133.874 100.94 134.22 101.017 134.447 101.085L133.8 103.812C133.658 103.767 133.482 103.724 133.271 103.685C133.067 103.645 132.857 103.625 132.641 103.625C132.107 103.625 131.734 103.75 131.524 104C131.314 104.244 131.209 104.588 131.209 105.031V119H127.587ZM140.981 119.256C139.657 119.256 138.512 118.974 137.546 118.412C136.586 117.844 135.844 117.054 135.322 116.043C134.799 115.026 134.538 113.847 134.538 112.506C134.538 111.153 134.799 109.972 135.322 108.96C135.844 107.943 136.586 107.153 137.546 106.591C138.512 106.023 139.657 105.739 140.981 105.739C142.305 105.739 143.447 106.023 144.407 106.591C145.373 107.153 146.117 107.943 146.64 108.96C147.163 109.972 147.424 111.153 147.424 112.506C147.424 113.847 147.163 115.026 146.64 116.043C146.117 117.054 145.373 117.844 144.407 118.412C143.447 118.974 142.305 119.256 140.981 119.256ZM140.998 116.443C141.6 116.443 142.103 116.273 142.506 115.932C142.91 115.585 143.214 115.114 143.418 114.517C143.629 113.92 143.734 113.241 143.734 112.48C143.734 111.719 143.629 111.04 143.418 110.443C143.214 109.847 142.91 109.375 142.506 109.028C142.103 108.682 141.6 108.509 140.998 108.509C140.39 108.509 139.879 108.682 139.464 109.028C139.055 109.375 138.745 109.847 138.535 110.443C138.33 111.04 138.228 111.719 138.228 112.48C138.228 113.241 138.33 113.92 138.535 114.517C138.745 115.114 139.055 115.585 139.464 115.932C139.879 116.273 140.39 116.443 140.998 116.443ZM149.285 119V105.909H152.805V108.193H152.941C153.18 107.381 153.58 106.767 154.143 106.352C154.705 105.932 155.353 105.722 156.086 105.722C156.268 105.722 156.464 105.733 156.674 105.756C156.884 105.778 157.069 105.81 157.228 105.849V109.071C157.058 109.02 156.822 108.974 156.521 108.935C156.219 108.895 155.944 108.875 155.694 108.875C155.16 108.875 154.683 108.991 154.262 109.224C153.847 109.452 153.518 109.77 153.273 110.179C153.035 110.588 152.915 111.06 152.915 111.594V119H149.285ZM163.66 119V105.909H167.18V108.193H167.316C167.555 107.381 167.955 106.767 168.518 106.352C169.08 105.932 169.728 105.722 170.461 105.722C170.643 105.722 170.839 105.733 171.049 105.756C171.259 105.778 171.444 105.81 171.603 105.849V109.071C171.433 109.02 171.197 108.974 170.896 108.935C170.594 108.895 170.319 108.875 170.069 108.875C169.535 108.875 169.058 108.991 168.637 109.224C168.222 109.452 167.893 109.77 167.648 110.179C167.41 110.588 167.29 111.06 167.29 111.594V119H163.66ZM178.337 119.256C176.99 119.256 175.831 118.983 174.859 118.438C173.893 117.886 173.149 117.108 172.626 116.102C172.104 115.091 171.842 113.895 171.842 112.514C171.842 111.168 172.104 109.986 172.626 108.969C173.149 107.952 173.885 107.159 174.834 106.591C175.788 106.023 176.908 105.739 178.192 105.739C179.055 105.739 179.859 105.878 180.604 106.156C181.354 106.429 182.007 106.841 182.564 107.392C183.126 107.943 183.564 108.636 183.876 109.472C184.189 110.301 184.345 111.273 184.345 112.386V113.384H173.291V111.134H180.928C180.928 110.611 180.814 110.148 180.587 109.744C180.359 109.341 180.044 109.026 179.641 108.798C179.243 108.565 178.78 108.449 178.251 108.449C177.7 108.449 177.212 108.577 176.786 108.832C176.365 109.082 176.036 109.42 175.797 109.847C175.558 110.267 175.436 110.736 175.43 111.253V113.392C175.43 114.04 175.55 114.599 175.788 115.071C176.033 115.543 176.376 115.906 176.82 116.162C177.263 116.418 177.788 116.545 178.396 116.545C178.8 116.545 179.169 116.489 179.504 116.375C179.839 116.261 180.126 116.091 180.365 115.864C180.604 115.636 180.786 115.358 180.911 115.028L184.268 115.25C184.098 116.057 183.749 116.761 183.22 117.364C182.697 117.96 182.021 118.426 181.192 118.761C180.368 119.091 179.416 119.256 178.337 119.256ZM189.845 101.545V119H186.214V101.545H189.845ZM198.219 119.256C196.873 119.256 195.714 118.983 194.742 118.438C193.776 117.886 193.032 117.108 192.509 116.102C191.987 115.091 191.725 113.895 191.725 112.514C191.725 111.168 191.987 109.986 192.509 108.969C193.032 107.952 193.768 107.159 194.717 106.591C195.671 106.023 196.79 105.739 198.075 105.739C198.938 105.739 199.742 105.878 200.487 106.156C201.237 106.429 201.89 106.841 202.447 107.392C203.009 107.943 203.447 108.636 203.759 109.472C204.072 110.301 204.228 111.273 204.228 112.386V113.384H193.174V111.134H200.81C200.81 110.611 200.697 110.148 200.469 109.744C200.242 109.341 199.927 109.026 199.523 108.798C199.126 108.565 198.663 108.449 198.134 108.449C197.583 108.449 197.094 108.577 196.668 108.832C196.248 109.082 195.918 109.42 195.68 109.847C195.441 110.267 195.319 110.736 195.313 111.253V113.392C195.313 114.04 195.433 114.599 195.671 115.071C195.915 115.543 196.259 115.906 196.702 116.162C197.146 116.418 197.671 116.545 198.279 116.545C198.683 116.545 199.052 116.489 199.387 116.375C199.722 116.261 200.009 116.091 200.248 115.864C200.487 115.636 200.668 115.358 200.793 115.028L204.151 115.25C203.981 116.057 203.631 116.761 203.103 117.364C202.58 117.96 201.904 118.426 201.075 118.761C200.251 119.091 199.299 119.256 198.219 119.256ZM209.83 119.247C208.995 119.247 208.251 119.102 207.597 118.812C206.944 118.517 206.427 118.082 206.046 117.509C205.671 116.929 205.484 116.207 205.484 115.344C205.484 114.616 205.617 114.006 205.884 113.511C206.151 113.017 206.515 112.619 206.975 112.318C207.435 112.017 207.958 111.79 208.543 111.636C209.134 111.483 209.754 111.375 210.401 111.312C211.163 111.233 211.776 111.159 212.242 111.091C212.708 111.017 213.046 110.909 213.256 110.767C213.467 110.625 213.572 110.415 213.572 110.136V110.085C213.572 109.545 213.401 109.128 213.06 108.832C212.725 108.537 212.248 108.389 211.629 108.389C210.975 108.389 210.455 108.534 210.069 108.824C209.683 109.108 209.427 109.466 209.302 109.898L205.944 109.625C206.114 108.83 206.45 108.142 206.95 107.562C207.45 106.977 208.094 106.528 208.884 106.216C209.68 105.898 210.6 105.739 211.646 105.739C212.373 105.739 213.069 105.824 213.734 105.994C214.404 106.165 214.998 106.429 215.515 106.787C216.038 107.145 216.45 107.605 216.751 108.168C217.052 108.724 217.202 109.392 217.202 110.17V119H213.759V117.185H213.657C213.447 117.594 213.165 117.955 212.813 118.267C212.461 118.574 212.038 118.815 211.543 118.991C211.049 119.162 210.478 119.247 209.83 119.247ZM210.87 116.741C211.404 116.741 211.876 116.636 212.285 116.426C212.694 116.21 213.015 115.92 213.248 115.557C213.481 115.193 213.597 114.781 213.597 114.321V112.932C213.484 113.006 213.327 113.074 213.129 113.136C212.935 113.193 212.717 113.247 212.472 113.298C212.228 113.344 211.984 113.386 211.739 113.426C211.495 113.46 211.273 113.491 211.075 113.52C210.648 113.582 210.276 113.682 209.958 113.818C209.64 113.955 209.393 114.139 209.217 114.372C209.04 114.599 208.952 114.884 208.952 115.224C208.952 115.719 209.131 116.097 209.489 116.358C209.853 116.614 210.313 116.741 210.87 116.741ZM230.411 109.642L227.087 109.847C227.031 109.562 226.908 109.307 226.721 109.08C226.533 108.847 226.286 108.662 225.979 108.526C225.678 108.384 225.317 108.312 224.897 108.312C224.335 108.312 223.86 108.432 223.474 108.67C223.087 108.903 222.894 109.216 222.894 109.608C222.894 109.92 223.019 110.185 223.269 110.401C223.519 110.616 223.948 110.79 224.556 110.92L226.925 111.398C228.198 111.659 229.147 112.08 229.772 112.659C230.397 113.239 230.71 114 230.71 114.943C230.71 115.801 230.457 116.554 229.951 117.202C229.451 117.849 228.763 118.355 227.888 118.719C227.019 119.077 226.016 119.256 224.88 119.256C223.147 119.256 221.766 118.895 220.738 118.173C219.715 117.446 219.116 116.457 218.94 115.207L222.511 115.02C222.619 115.548 222.88 115.952 223.295 116.23C223.71 116.503 224.241 116.639 224.888 116.639C225.525 116.639 226.036 116.517 226.423 116.273C226.815 116.023 227.013 115.702 227.019 115.31C227.013 114.98 226.874 114.71 226.602 114.5C226.329 114.284 225.908 114.119 225.34 114.006L223.073 113.554C221.795 113.298 220.843 112.855 220.218 112.224C219.599 111.594 219.289 110.79 219.289 109.812C219.289 108.972 219.516 108.247 219.971 107.639C220.431 107.031 221.076 106.562 221.906 106.233C222.741 105.903 223.718 105.739 224.837 105.739C226.491 105.739 227.792 106.088 228.741 106.787C229.695 107.486 230.252 108.437 230.411 109.642ZM238.462 119.256C237.115 119.256 235.956 118.983 234.984 118.438C234.018 117.886 233.274 117.108 232.751 116.102C232.229 115.091 231.967 113.895 231.967 112.514C231.967 111.168 232.229 109.986 232.751 108.969C233.274 107.952 234.01 107.159 234.959 106.591C235.913 106.023 237.033 105.739 238.317 105.739C239.18 105.739 239.984 105.878 240.729 106.156C241.479 106.429 242.132 106.841 242.689 107.392C243.251 107.943 243.689 108.636 244.001 109.472C244.314 110.301 244.47 111.273 244.47 112.386V113.384H233.416V111.134H241.053C241.053 110.611 240.939 110.148 240.712 109.744C240.484 109.341 240.169 109.026 239.766 108.798C239.368 108.565 238.905 108.449 238.376 108.449C237.825 108.449 237.337 108.577 236.911 108.832C236.49 109.082 236.161 109.42 235.922 109.847C235.683 110.267 235.561 110.736 235.555 111.253V113.392C235.555 114.04 235.675 114.599 235.913 115.071C236.158 115.543 236.501 115.906 236.945 116.162C237.388 116.418 237.913 116.545 238.521 116.545C238.925 116.545 239.294 116.489 239.629 116.375C239.964 116.261 240.251 116.091 240.49 115.864C240.729 115.636 240.911 115.358 241.036 115.028L244.393 115.25C244.223 116.057 243.874 116.761 243.345 117.364C242.822 117.96 242.146 118.426 241.317 118.761C240.493 119.091 239.541 119.256 238.462 119.256ZM31.3636 148.256C30.0398 148.256 28.8949 147.974 27.929 147.412C26.9688 146.844 26.2273 146.054 25.7045 145.043C25.1818 144.026 24.9205 142.847 24.9205 141.506C24.9205 140.153 25.1818 138.972 25.7045 137.96C26.2273 136.943 26.9688 136.153 27.929 135.591C28.8949 135.023 30.0398 134.739 31.3636 134.739C32.6875 134.739 33.8295 135.023 34.7898 135.591C35.7557 136.153 36.5 136.943 37.0227 137.96C37.5455 138.972 37.8068 140.153 37.8068 141.506C37.8068 142.847 37.5455 144.026 37.0227 145.043C36.5 146.054 35.7557 146.844 34.7898 147.412C33.8295 147.974 32.6875 148.256 31.3636 148.256ZM31.3807 145.443C31.983 145.443 32.4858 145.273 32.8892 144.932C33.2926 144.585 33.5966 144.114 33.8011 143.517C34.0114 142.92 34.1165 142.241 34.1165 141.48C34.1165 140.719 34.0114 140.04 33.8011 139.443C33.5966 138.847 33.2926 138.375 32.8892 138.028C32.4858 137.682 31.983 137.509 31.3807 137.509C30.7727 137.509 30.2614 137.682 29.8466 138.028C29.4375 138.375 29.1278 138.847 28.9176 139.443C28.7131 140.04 28.6108 140.719 28.6108 141.48C28.6108 142.241 28.7131 142.92 28.9176 143.517C29.1278 144.114 29.4375 144.585 29.8466 144.932C30.2614 145.273 30.7727 145.443 31.3807 145.443ZM46.7074 134.909V137.636H38.6278V134.909H46.7074ZM40.4773 148V133.963C40.4773 133.014 40.6619 132.227 41.0312 131.602C41.4062 130.977 41.9176 130.509 42.5653 130.196C43.2131 129.884 43.9489 129.727 44.7727 129.727C45.3295 129.727 45.8381 129.77 46.2983 129.855C46.7642 129.94 47.1108 130.017 47.3381 130.085L46.6903 132.812C46.5483 132.767 46.3722 132.724 46.1619 132.685C45.9574 132.645 45.7472 132.625 45.5312 132.625C44.9972 132.625 44.625 132.75 44.4148 133C44.2045 133.244 44.0994 133.588 44.0994 134.031V148H40.4773ZM53.4801 148V134.909H57.1108V148H53.4801ZM55.304 133.222C54.7642 133.222 54.3011 133.043 53.9148 132.685C53.5341 132.321 53.3438 131.886 53.3438 131.381C53.3438 130.881 53.5341 130.452 53.9148 130.094C54.3011 129.73 54.7642 129.548 55.304 129.548C55.8438 129.548 56.304 129.73 56.6847 130.094C57.071 130.452 57.2642 130.881 57.2642 131.381C57.2642 131.886 57.071 132.321 56.6847 132.685C56.304 133.043 55.8438 133.222 55.304 133.222ZM63.1499 140.432V148H59.5192V134.909H62.9794V137.219H63.1328C63.4226 136.457 63.9084 135.855 64.5902 135.412C65.272 134.963 66.0987 134.739 67.0703 134.739C67.9794 134.739 68.772 134.938 69.4482 135.335C70.1243 135.733 70.6499 136.301 71.0249 137.04C71.3999 137.773 71.5874 138.648 71.5874 139.665V148H67.9567V140.312C67.9624 139.511 67.7578 138.886 67.343 138.438C66.9283 137.983 66.3572 137.756 65.63 137.756C65.1413 137.756 64.7095 137.861 64.3345 138.071C63.9652 138.281 63.6754 138.588 63.4652 138.991C63.2607 139.389 63.1555 139.869 63.1499 140.432ZM80.9886 134.909V137.636H72.9091V134.909H80.9886ZM74.7585 148V133.963C74.7585 133.014 74.9432 132.227 75.3125 131.602C75.6875 130.977 76.1989 130.509 76.8466 130.196C77.4943 129.884 78.2301 129.727 79.054 129.727C79.6108 129.727 80.1193 129.77 80.5795 129.855C81.0455 129.94 81.392 130.017 81.6193 130.085L80.9716 132.812C80.8295 132.767 80.6534 132.724 80.4432 132.685C80.2386 132.645 80.0284 132.625 79.8125 132.625C79.2784 132.625 78.9062 132.75 78.696 133C78.4858 133.244 78.3807 133.588 78.3807 134.031V148H74.7585ZM88.1527 148.256C86.8288 148.256 85.6839 147.974 84.718 147.412C83.7578 146.844 83.0163 146.054 82.4936 145.043C81.9709 144.026 81.7095 142.847 81.7095 141.506C81.7095 140.153 81.9709 138.972 82.4936 137.96C83.0163 136.943 83.7578 136.153 84.718 135.591C85.6839 135.023 86.8288 134.739 88.1527 134.739C89.4766 134.739 90.6186 135.023 91.5788 135.591C92.5447 136.153 93.2891 136.943 93.8118 137.96C94.3345 138.972 94.5959 140.153 94.5959 141.506C94.5959 142.847 94.3345 144.026 93.8118 145.043C93.2891 146.054 92.5447 146.844 91.5788 147.412C90.6186 147.974 89.4766 148.256 88.1527 148.256ZM88.1697 145.443C88.772 145.443 89.2749 145.273 89.6783 144.932C90.0817 144.585 90.3857 144.114 90.5902 143.517C90.8004 142.92 90.9055 142.241 90.9055 141.48C90.9055 140.719 90.8004 140.04 90.5902 139.443C90.3857 138.847 90.0817 138.375 89.6783 138.028C89.2749 137.682 88.772 137.509 88.1697 137.509C87.5618 137.509 87.0504 137.682 86.6357 138.028C86.2266 138.375 85.9169 138.847 85.7067 139.443C85.5021 140.04 85.3999 140.719 85.3999 141.48C85.3999 142.241 85.5021 142.92 85.7067 143.517C85.9169 144.114 86.2266 144.585 86.6357 144.932C87.0504 145.273 87.5618 145.443 88.1697 145.443ZM96.4567 148V134.909H99.9766V137.193H100.113C100.352 136.381 100.752 135.767 101.315 135.352C101.877 134.932 102.525 134.722 103.258 134.722C103.44 134.722 103.636 134.733 103.846 134.756C104.056 134.778 104.241 134.81 104.4 134.849V138.071C104.229 138.02 103.994 137.974 103.692 137.935C103.391 137.895 103.116 137.875 102.866 137.875C102.332 137.875 101.854 137.991 101.434 138.224C101.019 138.452 100.69 138.77 100.445 139.179C100.207 139.588 100.087 140.06 100.087 140.594V148H96.4567ZM105.777 148V134.909H109.237V137.219H109.391C109.663 136.452 110.118 135.847 110.754 135.403C111.391 134.96 112.152 134.739 113.038 134.739C113.936 134.739 114.7 134.963 115.331 135.412C115.962 135.855 116.382 136.457 116.592 137.219H116.729C116.996 136.469 117.479 135.869 118.178 135.42C118.882 134.966 119.714 134.739 120.675 134.739C121.896 134.739 122.888 135.128 123.649 135.906C124.416 136.679 124.8 137.776 124.8 139.196V148H121.178V139.912C121.178 139.185 120.984 138.639 120.598 138.276C120.212 137.912 119.729 137.73 119.149 137.73C118.49 137.73 117.976 137.94 117.607 138.361C117.237 138.776 117.053 139.324 117.053 140.006V148H113.533V139.835C113.533 139.193 113.348 138.682 112.979 138.301C112.615 137.92 112.135 137.73 111.538 137.73C111.135 137.73 110.771 137.832 110.447 138.037C110.129 138.236 109.876 138.517 109.689 138.881C109.501 139.239 109.408 139.659 109.408 140.142V148H105.777ZM130.901 148.247C130.065 148.247 129.321 148.102 128.668 147.812C128.014 147.517 127.497 147.082 127.116 146.509C126.741 145.929 126.554 145.207 126.554 144.344C126.554 143.616 126.688 143.006 126.955 142.511C127.222 142.017 127.585 141.619 128.045 141.318C128.506 141.017 129.028 140.79 129.614 140.636C130.205 140.483 130.824 140.375 131.472 140.312C132.233 140.233 132.847 140.159 133.312 140.091C133.778 140.017 134.116 139.909 134.327 139.767C134.537 139.625 134.642 139.415 134.642 139.136V139.085C134.642 138.545 134.472 138.128 134.131 137.832C133.795 137.537 133.318 137.389 132.699 137.389C132.045 137.389 131.526 137.534 131.139 137.824C130.753 138.108 130.497 138.466 130.372 138.898L127.014 138.625C127.185 137.83 127.52 137.142 128.02 136.562C128.52 135.977 129.165 135.528 129.955 135.216C130.75 134.898 131.67 134.739 132.716 134.739C133.443 134.739 134.139 134.824 134.804 134.994C135.474 135.165 136.068 135.429 136.585 135.787C137.108 136.145 137.52 136.605 137.821 137.168C138.122 137.724 138.273 138.392 138.273 139.17V148H134.83V146.185H134.727C134.517 146.594 134.236 146.955 133.884 147.267C133.531 147.574 133.108 147.815 132.614 147.991C132.119 148.162 131.548 148.247 130.901 148.247ZM131.94 145.741C132.474 145.741 132.946 145.636 133.355 145.426C133.764 145.21 134.085 144.92 134.318 144.557C134.551 144.193 134.668 143.781 134.668 143.321V141.932C134.554 142.006 134.398 142.074 134.199 142.136C134.006 142.193 133.787 142.247 133.543 142.298C133.298 142.344 133.054 142.386 132.81 142.426C132.565 142.46 132.344 142.491 132.145 142.52C131.719 142.582 131.347 142.682 131.028 142.818C130.71 142.955 130.463 143.139 130.287 143.372C130.111 143.599 130.023 143.884 130.023 144.224C130.023 144.719 130.202 145.097 130.56 145.358C130.923 145.614 131.384 145.741 131.94 145.741ZM147.553 134.909V137.636H139.669V134.909H147.553ZM141.459 131.773H145.089V143.977C145.089 144.312 145.141 144.574 145.243 144.761C145.345 144.943 145.487 145.071 145.669 145.145C145.857 145.219 146.072 145.256 146.317 145.256C146.487 145.256 146.658 145.241 146.828 145.213C146.999 145.179 147.129 145.153 147.22 145.136L147.791 147.838C147.609 147.895 147.354 147.96 147.024 148.034C146.695 148.114 146.294 148.162 145.822 148.179C144.947 148.213 144.18 148.097 143.521 147.83C142.868 147.562 142.359 147.148 141.996 146.585C141.632 146.023 141.453 145.312 141.459 144.455V131.773ZM149.418 148V134.909H153.048V148H149.418ZM151.241 133.222C150.702 133.222 150.239 133.043 149.852 132.685C149.472 132.321 149.281 131.886 149.281 131.381C149.281 130.881 149.472 130.452 149.852 130.094C150.239 129.73 150.702 129.548 151.241 129.548C151.781 129.548 152.241 129.73 152.622 130.094C153.009 130.452 153.202 130.881 153.202 131.381C153.202 131.886 153.009 132.321 152.622 132.685C152.241 133.043 151.781 133.222 151.241 133.222ZM161.371 148.256C160.048 148.256 158.903 147.974 157.937 147.412C156.977 146.844 156.235 146.054 155.712 145.043C155.19 144.026 154.928 142.847 154.928 141.506C154.928 140.153 155.19 138.972 155.712 137.96C156.235 136.943 156.977 136.153 157.937 135.591C158.903 135.023 160.048 134.739 161.371 134.739C162.695 134.739 163.837 135.023 164.798 135.591C165.763 136.153 166.508 136.943 167.031 137.96C167.553 138.972 167.815 140.153 167.815 141.506C167.815 142.847 167.553 144.026 167.031 145.043C166.508 146.054 165.763 146.844 164.798 147.412C163.837 147.974 162.695 148.256 161.371 148.256ZM161.388 145.443C161.991 145.443 162.494 145.273 162.897 144.932C163.3 144.585 163.604 144.114 163.809 143.517C164.019 142.92 164.124 142.241 164.124 141.48C164.124 140.719 164.019 140.04 163.809 139.443C163.604 138.847 163.3 138.375 162.897 138.028C162.494 137.682 161.991 137.509 161.388 137.509C160.781 137.509 160.269 137.682 159.854 138.028C159.445 138.375 159.136 138.847 158.925 139.443C158.721 140.04 158.619 140.719 158.619 141.48C158.619 142.241 158.721 142.92 158.925 143.517C159.136 144.114 159.445 144.585 159.854 144.932C160.269 145.273 160.781 145.443 161.388 145.443ZM173.306 140.432V148H169.675V134.909H173.136V137.219H173.289C173.579 136.457 174.065 135.855 174.746 135.412C175.428 134.963 176.255 134.739 177.227 134.739C178.136 134.739 178.928 134.938 179.604 135.335C180.281 135.733 180.806 136.301 181.181 137.04C181.556 137.773 181.744 138.648 181.744 139.665V148H178.113V140.312C178.119 139.511 177.914 138.886 177.499 138.438C177.085 137.983 176.513 137.756 175.786 137.756C175.298 137.756 174.866 137.861 174.491 138.071C174.121 138.281 173.832 138.588 173.621 138.991C173.417 139.389 173.312 139.869 173.306 140.432Z" fill="#484343"/>
<g opacity="0.6">
<path opacity="0.0344828" d="M234.316 -2.14327C236.368 -2.85527 239.058 -1.84069 242.227 0.813851C245.376 3.45243 248.915 7.64311 252.622 13.0776C260.033 23.9428 268.08 39.728 275 57.857C281.921 75.986 286.399 93.0098 288.047 105.875C288.871 112.31 288.986 117.689 288.352 121.64C287.714 125.616 286.337 128.041 284.285 128.753C282.234 129.465 279.544 128.451 276.375 125.796C273.225 123.158 269.686 118.967 265.98 113.533C258.569 102.667 250.522 86.8822 243.601 68.7532C236.681 50.6242 232.203 33.6003 230.555 20.7353C229.73 14.3006 229.616 8.92158 230.25 4.96995C230.888 0.994423 232.264 -1.43127 234.316 -2.14327Z" stroke="white" stroke-width="0.541021"/>
<path opacity="0.0689655" d="M240.687 -4.4531C242.797 -4.99214 245.384 -3.75731 248.297 -0.849958C251.194 2.04021 254.336 6.50888 257.532 12.2306C263.921 23.6701 270.495 40.0638 275.732 58.6988C280.969 77.3338 283.873 94.6648 284.339 107.618C284.572 114.096 284.194 119.464 283.201 123.348C282.203 127.255 280.61 129.558 278.5 130.097C276.39 130.636 273.803 129.401 270.889 126.493C267.992 123.603 264.85 119.135 261.655 113.413C255.265 101.973 248.692 85.5797 243.455 66.9447C238.218 48.3097 235.313 30.9787 234.847 18.0258C234.614 11.5472 234.992 6.17927 235.985 2.29552C236.984 -1.61134 238.577 -3.91405 240.687 -4.4531Z" stroke="white" stroke-width="0.541021"/>
<path opacity="0.103448" d="M247.201 -6.25108C249.353 -6.61286 251.818 -5.16731 254.454 -2.0292C257.076 1.09055 259.797 5.80323 262.458 11.7686C267.777 23.6955 272.827 40.5729 276.341 59.5721C279.854 78.5713 281.163 96.0776 280.443 109.02C280.083 115.493 279.216 120.809 277.872 124.595C276.52 128.404 274.723 130.566 272.571 130.928C270.419 131.29 267.954 129.844 265.318 126.706C262.697 123.586 259.975 118.873 257.314 112.908C251.995 100.981 246.945 84.1038 243.432 65.1046C239.918 46.1054 238.609 28.5991 239.329 15.657C239.689 9.18374 240.556 3.86773 241.9 0.081372C243.252 -3.72726 245.049 -5.8893 247.201 -6.25108Z" stroke="white" stroke-width="0.541021"/>
<path opacity="0.137931" d="M253.812 -7.5277C255.99 -7.70932 258.313 -6.0642 260.652 -2.71914C262.978 0.606495 265.259 5.52735 267.364 11.6911C271.573 24.0145 275.06 41.2472 276.824 60.4661C278.587 79.6849 278.291 97.2333 276.391 110.066C275.44 116.485 274.091 121.709 272.406 125.369C270.711 129.05 268.723 131.055 266.546 131.237C264.368 131.418 262.045 129.773 259.706 126.428C257.38 123.102 255.099 118.182 252.994 112.018C248.785 99.6945 245.298 82.4618 243.534 63.2429C241.77 44.0241 242.067 26.4757 243.967 13.6427C244.918 7.22411 246.267 2.00045 247.952 -1.65976C249.647 -5.34134 251.635 -7.34608 253.812 -7.5277Z" stroke="white" stroke-width="0.541021"/>
<path opacity="0.172414" d="M260.472 -8.2757C262.658 -8.2757 264.821 -6.44369 266.846 -2.91704C268.859 0.589218 270.681 5.68082 272.215 11.996C275.281 24.6222 277.18 42.0792 277.18 61.3714C277.18 80.6637 275.281 98.1206 272.215 110.747C270.681 117.062 268.859 122.154 266.846 125.66C264.821 129.187 262.658 131.019 260.472 131.019C258.286 131.019 256.122 129.187 254.097 125.66C252.084 122.154 250.262 117.062 248.729 110.747C245.662 98.1206 243.763 80.6637 243.763 61.3714C243.763 42.0792 245.662 24.6222 248.729 11.996C250.262 5.68082 252.084 0.589218 254.097 -2.91704C256.122 -6.44369 258.286 -8.2757 260.472 -8.2757Z" stroke="white" stroke-width="0.541021"/>
<path opacity="0.206897" d="M267.131 -8.49393C269.308 -8.31231 271.296 -6.30757 272.991 -2.62599C274.676 1.03422 276.026 6.25788 276.976 12.6765C278.877 25.5095 279.173 43.0579 277.409 62.2767C275.646 81.4955 272.158 98.7283 267.949 111.052C265.844 117.215 263.564 122.136 261.238 125.462C258.898 128.807 256.575 130.452 254.398 130.27C252.22 130.089 250.232 128.084 248.538 124.403C246.853 120.742 245.503 115.519 244.552 109.1C242.652 96.267 242.356 78.7187 244.119 59.4998C245.883 40.281 249.371 23.0483 253.579 10.7249C255.685 4.56112 257.965 -0.359732 260.291 -3.68537C262.631 -7.03042 264.954 -8.67554 267.131 -8.49393Z" stroke="white" stroke-width="0.541021"/>
<path opacity="0.241379" d="M273.742 -8.1855C275.894 -7.82372 277.691 -5.66168 279.043 -1.85304C280.387 1.93332 281.254 7.24932 281.614 13.7226C282.334 26.6647 281.025 44.171 277.512 63.1702C273.998 82.1694 268.948 99.0468 263.629 110.974C260.968 116.939 258.247 121.652 255.626 124.771C252.989 127.91 250.524 129.355 248.372 128.993C246.22 128.632 244.423 126.47 243.071 122.661C241.727 118.875 240.86 113.559 240.5 107.085C239.78 94.1432 241.089 76.6369 244.603 57.6377C248.117 38.6385 253.166 21.7611 258.486 9.83423C261.146 3.86882 263.868 -0.843865 266.489 -3.96362C269.126 -7.10173 271.59 -8.54728 273.742 -8.1855Z" stroke="white" stroke-width="0.541021"/>
<path opacity="0.275862" d="M280.256 -7.35358C282.366 -6.81453 283.959 -4.51182 284.958 -0.604966C285.951 3.27879 286.328 8.64672 286.095 15.1253C285.63 28.0782 282.725 45.4092 277.488 64.0442C272.251 82.6792 265.678 99.0729 259.288 110.512C256.092 116.234 252.95 120.703 250.054 123.593C247.14 126.5 244.553 127.735 242.443 127.196C240.333 126.657 238.74 124.354 237.741 120.447C236.749 116.564 236.371 111.196 236.604 104.717C237.07 91.7643 239.974 74.4333 245.211 55.7983C250.448 37.1633 257.022 20.7696 263.411 9.33009C266.607 3.6084 269.749 -0.860275 272.645 -3.75044C275.559 -6.65779 278.146 -7.89262 280.256 -7.35358Z" stroke="white" stroke-width="0.541021"/>
<path opacity="0.310345" d="M286.627 -6.01011C288.679 -5.29811 290.055 -2.87241 290.693 1.10312C291.327 5.05474 291.213 10.4338 290.388 16.8685C288.74 29.7335 284.263 46.7574 277.342 64.8864C270.421 83.0154 262.374 98.8006 254.963 109.666C251.257 115.1 247.718 119.291 244.568 121.929C241.399 124.584 238.709 125.599 236.658 124.887C234.606 124.175 233.229 121.749 232.592 117.773C231.958 113.822 232.072 108.443 232.896 102.008C234.544 89.143 239.022 72.1192 245.943 53.9901C252.863 35.8611 260.91 20.0759 268.321 9.21072C272.028 3.77628 275.567 -0.414405 278.717 -3.05298C281.885 -5.70752 284.575 -6.72211 286.627 -6.01011Z" stroke="white" stroke-width="0.541021"/>
<path opacity="0.344828" d="M292.808 -4.16974C294.786 -3.29046 295.935 -0.760336 296.207 3.25374C296.478 7.2432 295.872 12.5924 294.463 18.9342C291.645 31.6136 285.628 48.2008 277.076 65.6858C268.525 83.1709 259.065 98.2275 250.689 108.436C246.5 113.542 242.591 117.422 239.212 119.789C235.812 122.171 233.04 122.957 231.062 122.078C229.085 121.199 227.935 118.669 227.663 114.655C227.392 110.665 227.998 105.316 229.408 98.9741C232.225 86.2947 238.242 69.7075 246.794 52.2225C255.346 34.7374 264.805 19.6808 273.181 9.4726C277.37 4.36677 281.279 0.485967 284.658 -1.88094C288.058 -4.26246 290.83 -5.04902 292.808 -4.16974Z" stroke="white" stroke-width="0.541021"/>
<path opacity="0.37931" d="M298.754 -1.84848C300.643 -0.8089 301.557 1.8063 301.461 5.8285C301.366 9.82546 300.273 15.1042 298.289 21.3049C294.323 33.7021 286.813 49.7263 276.695 66.4344C266.578 83.1424 255.778 97.3558 246.5 106.829C241.86 111.568 237.611 115.109 234.029 117.186C230.423 119.277 227.59 119.829 225.702 118.79C223.813 117.75 222.899 115.135 222.995 111.113C223.09 107.116 224.183 101.837 226.166 95.6362C230.133 83.2391 237.643 67.2148 247.761 50.5068C257.878 33.7987 268.678 19.5853 277.956 10.1118C282.596 5.3734 286.844 1.83199 290.427 -0.245227C294.033 -2.33556 296.865 -2.88806 298.754 -1.84848Z" stroke="white" stroke-width="0.541021"/>
<path opacity="0.413793" d="M304.423 0.931648C306.208 2.12331 306.88 4.80368 306.417 8.80346C305.956 12.7775 304.385 17.9457 301.842 23.958C296.758 35.9787 287.811 51.3181 276.204 67.1219C264.598 82.9258 252.54 96.1879 242.431 104.855C237.375 109.189 232.819 112.364 229.06 114.136C225.276 115.919 222.404 116.234 220.619 115.042C218.834 113.85 218.162 111.17 218.625 107.17C219.086 103.196 220.657 98.0279 223.2 92.0156C228.284 79.9949 237.231 64.6555 248.837 48.8516C260.444 33.0478 272.502 19.7857 282.611 11.119C287.666 6.78413 292.223 3.6091 295.982 1.83741C299.766 0.0542513 302.638 -0.260015 304.423 0.931648Z" stroke="white" stroke-width="0.541021"/>
<path opacity="0.448276" d="M309.772 4.14703C310.605 4.81308 311.129 5.82297 311.341 7.17056C311.553 8.52038 311.449 10.193 311.038 12.1536C310.216 16.0745 308.179 21.0927 305.096 26.8709C298.931 38.4236 288.616 52.9614 275.609 67.7408C262.602 82.5201 249.377 94.7299 238.515 102.524C233.082 106.422 228.252 109.207 224.345 110.659C222.392 111.386 220.682 111.774 219.251 111.809C217.822 111.844 216.688 111.527 215.855 110.861C215.023 110.195 214.499 109.185 214.287 107.837C214.074 106.488 214.178 104.815 214.589 102.854C215.411 98.9334 217.449 93.9153 220.532 88.137C226.696 76.5844 237.011 62.0466 250.018 47.2672C263.025 32.4878 276.25 20.278 287.113 12.4841C292.546 8.58578 297.375 5.80132 301.282 4.34865C303.236 3.62229 304.946 3.23409 306.377 3.19908C307.806 3.16413 308.94 3.48097 309.772 4.14703Z" stroke="white" stroke-width="0.541021"/>
<path opacity="0.482759" d="M314.764 7.7679C315.532 8.49986 315.962 9.54879 316.05 10.9089C316.138 12.2712 315.881 13.9289 315.292 15.848C314.115 19.686 311.626 24.516 308.027 30.0162C300.83 41.0129 289.225 54.6384 274.916 68.2808C260.608 81.9232 246.317 92.9878 234.783 99.8496C229.014 103.282 223.948 105.654 219.923 106.777C217.91 107.338 216.171 107.583 214.742 107.499C213.316 107.415 212.216 107.005 211.448 106.273C210.68 105.541 210.25 104.492 210.162 103.132C210.074 101.77 210.331 100.112 210.92 98.1929C212.097 94.355 214.585 89.525 218.185 84.0248C225.382 73.0281 236.987 59.4026 251.296 45.7601C265.604 32.1177 279.895 21.0532 291.429 14.1914C297.198 10.7593 302.264 8.38662 306.289 7.26409C308.302 6.7028 310.041 6.45814 311.47 6.54219C312.896 6.62609 313.996 7.03594 314.764 7.7679Z" stroke="white" stroke-width="0.541021"/>
<path opacity="0.517241" d="M319.363 11.7639C320.061 12.556 320.393 13.636 320.356 14.9983C320.32 16.3627 319.912 17.9929 319.15 19.8559C317.627 23.5817 314.706 28.1867 310.617 33.367C302.442 43.724 289.636 56.3335 274.134 68.7351C258.633 81.1367 243.384 90.9718 231.267 96.8492C225.206 99.7888 219.943 101.732 215.83 102.515C213.773 102.907 212.018 103.007 210.603 102.804C209.189 102.602 208.131 102.102 207.434 101.31C206.737 100.518 206.405 99.4381 206.441 98.0759C206.478 96.7114 206.885 95.0813 207.647 93.2182C209.171 89.4924 212.092 84.8874 216.181 79.7072C224.356 69.3501 237.162 56.7406 252.664 44.339C268.165 31.9374 283.413 22.1024 295.531 16.225C301.591 13.2853 306.855 11.3425 310.968 10.5587C313.025 10.1667 314.779 10.0675 316.195 10.27C317.609 10.4721 318.666 10.9717 319.363 11.7639Z" stroke="white" stroke-width="0.541021"/>
<path opacity="0.551724" d="M323.537 16.1004C324.158 16.9466 324.391 18.0494 324.23 19.4035C324.068 20.7597 323.514 22.3499 322.584 24.1426C320.726 27.7279 317.395 32.0728 312.848 36.8937C303.757 46.5322 289.846 58.0297 273.27 69.0961C256.694 80.1625 240.604 88.6931 227.996 93.5413C221.689 95.9662 216.268 97.4643 212.098 97.9034C210.013 98.123 208.256 98.076 206.865 97.7567C205.475 97.4379 204.468 96.8524 203.846 96.0062C203.225 95.16 202.992 94.0571 203.153 92.7031C203.315 91.3469 203.869 89.7567 204.799 87.9639C206.657 84.3787 209.988 80.0337 214.535 75.2128C223.626 65.5743 237.536 54.0768 254.113 43.0104C270.689 31.9441 286.778 23.4134 299.387 18.5652C305.694 16.1403 311.115 14.6422 315.285 14.2031C317.369 13.9836 319.126 14.0305 320.518 14.3498C321.908 14.6687 322.915 15.2541 323.537 16.1004Z" stroke="white" stroke-width="0.541021"/>
<path opacity="0.586207" d="M327.255 20.7422C327.796 21.636 327.927 22.7533 327.643 24.0889C327.358 25.4266 326.661 26.9647 325.571 28.6735C323.391 32.0909 319.676 36.1427 314.705 40.5675C304.768 49.4141 289.859 59.712 272.334 69.3589C254.809 79.0058 238.001 86.1671 224.996 89.9492C218.492 91.8408 212.954 92.8828 208.76 92.9737C206.663 93.0192 204.917 92.8264 203.56 92.3926C202.204 91.9595 201.255 91.2927 200.714 90.399C200.173 89.5052 200.042 88.3879 200.326 87.0523C200.611 85.7147 201.309 84.1765 202.398 82.4677C204.578 79.0504 208.293 74.9985 213.264 70.5738C223.201 61.7271 238.11 51.4292 255.635 41.7823C273.16 32.1354 289.968 24.9741 302.973 21.1921C309.477 19.3004 315.015 18.2585 319.209 18.1675C321.306 18.122 323.052 18.3148 324.409 18.7486C325.765 19.1817 326.714 19.8485 327.255 20.7422Z" stroke="white" stroke-width="0.541021"/>
<path opacity="0.62069" d="M330.492 25.6486C330.949 26.5831 330.978 27.7065 330.572 29.0135C330.166 30.3223 329.331 31.7967 328.088 33.4086C325.605 36.632 321.533 40.3598 316.177 44.3547C305.468 52.3421 289.675 61.362 271.334 69.5159C252.994 77.6699 235.595 83.4073 222.294 86.0944C215.642 87.4384 210.029 88.0162 205.843 87.7583C203.749 87.6294 202.027 87.2922 200.715 86.7473C199.404 86.2032 198.52 85.4603 198.063 84.5257C197.606 83.5912 197.577 82.4679 197.983 81.1609C198.389 79.852 199.224 78.3777 200.466 76.7658C202.95 73.5424 207.022 69.8146 212.378 65.8196C223.087 57.8323 238.88 48.8124 257.221 40.6584C275.561 32.5044 292.96 26.767 306.261 24.0799C312.913 22.7359 318.526 22.1581 322.712 22.416C324.806 22.545 326.528 22.8822 327.84 23.4271C329.151 23.9712 330.035 24.7141 330.492 25.6486Z" stroke="white" stroke-width="0.541021"/>
<path opacity="0.655172" d="M333.224 30.7791C333.594 31.7473 333.52 32.8683 332.997 34.1367C332.473 35.4069 331.505 36.8062 330.12 38.3088C327.351 41.3137 322.954 44.689 317.253 48.2238C305.855 55.291 289.297 62.9642 270.281 69.5632C251.265 76.1621 233.407 80.4319 219.911 82.0036C213.161 82.7897 207.517 82.8989 203.37 82.2941C201.296 81.9916 199.611 81.5126 198.354 80.8607C197.098 80.2098 196.285 79.3964 195.916 78.4282C195.546 77.46 195.62 76.339 196.143 75.0707C196.667 73.8005 197.635 72.4012 199.02 70.8985C201.789 67.8937 206.186 64.5183 211.887 60.9835C223.285 53.9164 239.843 46.2431 258.859 39.6442C277.875 33.0452 295.733 28.7754 309.229 27.2038C315.979 26.4177 321.623 26.3085 325.77 26.9133C327.844 27.2157 329.529 27.6947 330.786 28.3466C332.042 28.9976 332.855 29.8109 333.224 30.7791Z" stroke="white" stroke-width="0.541021"/>
<path opacity="0.689655" d="M335.434 36.0909C335.714 37.0855 335.538 38.1957 334.901 39.4158C334.263 40.6376 333.171 41.9513 331.654 43.3332C328.621 46.0967 323.931 49.0938 317.929 52.1414C305.928 58.2346 288.731 64.5028 269.184 69.4965C249.637 74.4902 231.457 77.2598 217.869 77.704C211.072 77.9262 205.44 77.566 201.363 76.6188C199.325 76.1452 197.691 75.528 196.497 74.7741C195.306 74.0212 194.571 73.1436 194.291 72.149C194.012 71.1545 194.188 70.0442 194.825 68.8242C195.463 67.6023 196.555 66.2887 198.072 64.9068C201.105 62.1433 205.794 59.1462 211.797 56.0985C223.798 50.0053 240.995 43.7372 260.542 38.7435C280.088 33.7498 298.268 30.9802 311.857 30.536C318.653 30.3138 324.286 30.674 328.362 31.6212C330.401 32.0948 332.035 32.712 333.229 33.4659C334.42 34.2188 335.155 35.0964 335.434 36.0909Z" stroke="white" stroke-width="0.541021"/>
<path opacity="0.724138" d="M337.107 41.5402C337.294 42.5538 337.018 43.6449 336.271 44.8074C335.524 45.9716 334.316 47.1895 332.679 48.4402C329.404 50.9411 324.459 53.5373 318.201 56.0745C305.688 61.1473 287.984 65.9626 268.055 69.313C248.126 72.6634 229.761 73.9119 216.184 73.2252C209.393 72.8817 203.814 72.0548 199.84 70.7725C197.853 70.1313 196.281 69.3806 195.161 68.5304C194.043 67.6813 193.391 66.7462 193.204 65.7327C193.016 64.7191 193.293 63.628 194.039 62.4655C194.787 61.3014 195.995 60.0834 197.632 58.8327C200.907 56.3318 205.852 53.7357 212.11 51.1984C224.623 46.1256 242.327 41.3103 262.256 37.9599C282.185 34.6095 300.549 33.3611 314.127 34.0477C320.918 34.3912 326.496 35.2181 330.471 36.5004C332.458 37.1417 334.03 37.8923 335.15 38.7426C336.268 39.5916 336.919 40.5267 337.107 41.5402Z" stroke="white" stroke-width="0.541021"/>
<path opacity="0.758621" d="M338.232 47.0821C338.326 48.107 337.951 49.1709 337.101 50.267C336.25 51.3646 334.935 52.4776 333.19 53.5874C329.699 55.8068 324.535 57.9821 318.069 59.9897C305.14 64.0034 287.063 67.3292 266.903 69.0108C246.744 70.6924 228.335 70.4101 214.872 68.5978C208.138 67.6913 202.657 66.404 198.815 64.7963C196.893 63.9923 195.396 63.1139 194.358 62.1738C193.322 61.2351 192.758 60.2495 192.664 59.2245C192.57 58.1996 192.946 57.1357 193.795 56.0396C194.646 54.942 195.961 53.829 197.706 52.7192C201.197 50.4998 206.361 48.3245 212.828 46.317C225.756 42.3032 243.833 38.9774 263.993 37.2958C284.153 35.6142 302.561 35.8965 316.024 37.7088C322.758 38.6153 328.24 39.9026 332.082 41.5103C334.003 42.3143 335.5 43.1928 336.538 44.1328C337.574 45.0716 338.138 46.0571 338.232 47.0821Z" stroke="white" stroke-width="0.541021"/>
<path opacity="0.793103" d="M338.803 52.67C338.803 53.6987 338.332 54.7273 337.385 55.7486C336.437 56.7713 335.026 57.7709 333.185 58.7314C329.505 60.6523 324.162 62.3902 317.536 63.8528C304.29 66.777 285.978 68.588 265.741 68.588C245.504 68.588 227.192 66.777 213.946 63.8528C207.32 62.3902 201.977 60.6523 198.297 58.7314C196.456 57.7709 195.045 56.7713 194.097 55.7486C193.15 54.7273 192.679 53.6987 192.679 52.67C192.679 51.6412 193.15 50.6126 194.097 49.5913C195.045 48.5686 196.456 47.569 198.297 46.6085C201.977 44.6876 207.32 42.9497 213.946 41.4871C227.192 38.5629 245.504 36.752 265.741 36.752C285.978 36.752 304.29 38.5629 317.536 41.4871C324.162 42.9497 329.505 44.6876 333.185 46.6085C335.026 47.5691 336.437 48.5686 337.385 49.5913C338.332 50.6126 338.803 51.6412 338.803 52.67Z" stroke="white" stroke-width="0.541021"/>
<path opacity="0.827586" d="M338.818 58.2577C338.724 59.2827 338.16 60.2682 337.124 61.207C336.086 62.147 334.589 63.0255 332.667 63.8294C328.825 65.4371 323.344 66.7245 316.61 67.6309C303.147 69.4433 284.738 69.7256 264.579 68.044C244.419 66.3624 226.342 63.0366 213.413 59.0228C206.947 57.0152 201.783 54.8399 198.292 52.6206C196.547 51.5107 195.232 50.3977 194.381 49.3001C193.531 48.204 193.156 47.1402 193.25 46.1152C193.344 45.0903 193.908 44.1047 194.944 43.166C195.982 42.2259 197.479 41.3474 199.4 40.5435C203.242 38.9358 208.724 37.6484 215.458 36.742C228.921 34.9297 247.329 34.6473 267.489 36.3289C287.649 38.0105 305.726 41.3363 318.654 45.3501C325.121 47.3577 330.285 49.533 333.776 51.7523C335.521 52.8622 336.836 53.9752 337.687 55.0728C338.536 56.1689 338.912 57.2327 338.818 58.2577Z" stroke="white" stroke-width="0.541021"/>
<path opacity="0.862069" d="M338.278 63.799C338.09 64.8125 337.439 65.7476 336.321 66.5967C335.201 67.4469 333.629 68.1976 331.642 68.8388C327.668 70.1212 322.089 70.9481 315.298 71.2915C301.72 71.9782 283.356 70.7298 263.427 67.3794C243.498 64.0289 225.794 59.2136 213.281 54.1408C207.023 51.6036 202.078 49.0074 198.803 46.5065C197.166 45.2559 195.958 44.0379 195.211 42.8737C194.464 41.7112 194.188 40.6201 194.375 39.6066C194.562 38.593 195.214 37.6579 196.332 36.8089C197.452 35.9587 199.024 35.208 201.011 34.5667C204.985 33.2844 210.564 32.4575 217.355 32.1141C230.932 31.4274 249.297 32.6758 269.226 36.0262C289.155 39.3766 306.859 44.1919 319.372 49.2647C325.63 51.802 330.575 54.3981 333.85 56.899C335.487 58.1497 336.695 59.3677 337.442 60.5318C338.189 61.6943 338.465 62.7855 338.278 63.799Z" stroke="white" stroke-width="0.541021"/>
<path opacity="0.896552" d="M337.191 69.2483C336.911 70.2429 336.177 71.1204 334.985 71.8733C333.792 72.6272 332.157 73.2444 330.119 73.7181C326.043 74.6652 320.41 75.0254 313.613 74.8033C300.025 74.3591 281.845 71.5894 262.298 66.5957C242.751 61.602 225.554 55.3339 213.553 49.2407C207.551 46.1931 202.862 43.1959 199.828 40.4325C198.311 39.0506 197.22 37.7369 196.581 36.5151C195.944 35.295 195.768 34.1848 196.048 33.1902C196.327 32.1956 197.062 31.318 198.254 30.5652C199.447 29.8112 201.081 29.1941 203.12 28.7204C207.196 27.7732 212.829 27.413 219.625 27.6352C233.214 28.0794 251.394 30.8491 270.941 35.8428C290.487 40.8365 307.684 47.1046 319.685 53.1978C325.688 56.2454 330.377 59.2426 333.41 62.006C334.927 63.3879 336.019 64.7016 336.657 65.9234C337.294 67.1435 337.47 68.2537 337.191 69.2483Z" stroke="white" stroke-width="0.541021"/>
<path opacity="0.931035" d="M335.566 74.5604C335.197 75.5286 334.384 76.3419 333.128 76.9929C331.871 77.6448 330.186 78.1238 328.112 78.4262C323.965 79.031 318.321 78.9218 311.571 78.1357C298.075 76.5641 280.217 72.2943 261.201 65.6953C242.186 59.0964 225.627 51.4231 214.229 44.3559C208.528 40.8212 204.131 37.4458 201.362 34.441C199.977 32.9383 199.01 31.539 198.486 30.2688C197.962 29.0005 197.888 27.8794 198.258 26.9113C198.628 25.9431 199.44 25.1297 200.696 24.4788C201.954 23.8269 203.638 23.3479 205.712 23.0454C209.859 22.4406 215.503 22.5498 222.253 23.3359C235.749 24.9076 253.607 29.1774 272.623 35.7763C291.639 42.3753 308.197 50.0485 319.595 57.1157C325.296 60.6505 329.694 64.0258 332.463 67.0307C333.847 68.5333 334.815 69.9326 335.339 71.2028C335.862 72.4712 335.936 73.5922 335.566 74.5604Z" stroke="white" stroke-width="0.541021"/>
<path opacity="0.965517" d="M333.419 79.691C332.962 80.6256 332.078 81.3685 330.767 81.9126C329.455 82.4575 327.733 82.7947 325.64 82.9236C321.453 83.1815 315.841 82.6037 309.188 81.2597C295.887 78.5726 278.488 72.8352 260.148 64.6812C241.808 56.5273 226.014 47.5074 215.306 39.52C209.949 35.5251 205.878 31.7973 203.394 28.5739C202.152 26.962 201.316 25.4876 200.91 24.1787C200.505 22.8718 200.533 21.7484 200.99 20.8139C201.447 19.8794 202.332 19.1365 203.642 18.5924C204.955 18.0474 206.677 17.7103 208.77 17.5813C212.957 17.3234 218.569 17.9012 225.222 19.2452C238.522 21.9323 255.921 27.6697 274.262 35.8237C292.602 43.9777 308.396 52.9976 319.104 60.9849C324.46 64.9799 328.532 68.7077 331.016 71.9311C332.258 73.543 333.094 75.0173 333.5 76.3262C333.905 77.6331 333.876 78.7565 333.419 79.691Z" stroke="white" stroke-width="0.541021"/>
<path d="M330.768 84.5969C330.227 85.4907 329.277 86.1574 327.922 86.5906C326.565 87.0243 324.818 87.2171 322.721 87.1716C318.528 87.0807 312.989 86.0387 306.485 84.1471C293.481 80.365 276.673 73.2037 259.148 63.5568C241.623 53.9099 226.714 43.612 216.776 34.7654C211.806 30.3406 208.09 26.2888 205.911 22.8715C204.821 21.1626 204.123 19.6245 203.838 18.2868C203.554 16.9512 203.685 15.8339 204.226 14.9402C204.768 14.0464 205.717 13.3796 207.072 12.9465C208.43 12.5127 210.176 12.3199 212.273 12.3654C216.467 12.4564 222.005 13.4983 228.509 15.39C241.513 19.172 258.322 26.3333 275.847 35.9802C293.372 45.6271 308.28 55.925 318.218 64.7717C323.188 69.1964 326.904 73.2483 329.083 76.6656C330.173 78.3744 330.871 79.9126 331.156 81.2502C331.44 82.5858 331.309 83.7031 330.768 84.5969Z" stroke="white" stroke-width="0.541021"/>
</g>
</g>
<defs>
<clipPath id="clip0_336_2318">
<rect width="305" height="178" rx="16" fill="white"/>
</clipPath>
</defs>
</svg>
