<svg width="305" height="178" viewBox="0 0 305 178" fill="none" xmlns="http://www.w3.org/2000/svg">
<g clip-path="url(#clip0_448_1088)">
<rect width="305" height="178" rx="16" fill="#D1C9D1"/>
<path d="M40.9176 110.656H37.1847C37.1165 110.173 36.9773 109.744 36.767 109.369C36.5568 108.989 36.2869 108.665 35.9574 108.398C35.6278 108.131 35.2472 107.926 34.8153 107.784C34.3892 107.642 33.9261 107.571 33.4261 107.571C32.5227 107.571 31.7358 107.795 31.0653 108.244C30.3949 108.687 29.875 109.335 29.5057 110.188C29.1364 111.034 28.9517 112.062 28.9517 113.273C28.9517 114.517 29.1364 115.562 29.5057 116.409C29.8807 117.256 30.4034 117.895 31.0739 118.327C31.7443 118.759 32.5199 118.974 33.4006 118.974C33.8949 118.974 34.3523 118.909 34.7727 118.778C35.1989 118.648 35.5767 118.457 35.9062 118.207C36.2358 117.952 36.5085 117.642 36.7244 117.278C36.946 116.915 37.0994 116.5 37.1847 116.034L40.9176 116.051C40.821 116.852 40.5795 117.625 40.1932 118.369C39.8125 119.108 39.2983 119.77 38.6506 120.355C38.0085 120.935 37.2415 121.395 36.3494 121.736C35.4631 122.071 34.4602 122.239 33.3409 122.239C31.7841 122.239 30.392 121.886 29.1648 121.182C27.9432 120.477 26.9773 119.457 26.267 118.122C25.5625 116.787 25.2102 115.17 25.2102 113.273C25.2102 111.369 25.5682 109.75 26.2841 108.415C27 107.08 27.9716 106.062 29.1989 105.364C30.4261 104.659 31.8068 104.307 33.3409 104.307C34.3523 104.307 35.2898 104.449 36.1534 104.733C37.0227 105.017 37.7926 105.432 38.4631 105.977C39.1335 106.517 39.679 107.179 40.0994 107.963C40.5256 108.747 40.7983 109.645 40.9176 110.656ZM48.9105 122.256C47.5866 122.256 46.4418 121.974 45.4759 121.412C44.5156 120.844 43.7741 120.054 43.2514 119.043C42.7287 118.026 42.4673 116.847 42.4673 115.506C42.4673 114.153 42.7287 112.972 43.2514 111.96C43.7741 110.943 44.5156 110.153 45.4759 109.591C46.4418 109.023 47.5866 108.739 48.9105 108.739C50.2344 108.739 51.3764 109.023 52.3366 109.591C53.3026 110.153 54.0469 110.943 54.5696 111.96C55.0923 112.972 55.3537 114.153 55.3537 115.506C55.3537 116.847 55.0923 118.026 54.5696 119.043C54.0469 120.054 53.3026 120.844 52.3366 121.412C51.3764 121.974 50.2344 122.256 48.9105 122.256ZM48.9276 119.443C49.5298 119.443 50.0327 119.273 50.4361 118.932C50.8395 118.585 51.1435 118.114 51.348 117.517C51.5582 116.92 51.6634 116.241 51.6634 115.48C51.6634 114.719 51.5582 114.04 51.348 113.443C51.1435 112.847 50.8395 112.375 50.4361 112.028C50.0327 111.682 49.5298 111.509 48.9276 111.509C48.3196 111.509 47.8082 111.682 47.3935 112.028C46.9844 112.375 46.6747 112.847 46.4645 113.443C46.2599 114.04 46.1577 114.719 46.1577 115.48C46.1577 116.241 46.2599 116.92 46.4645 117.517C46.6747 118.114 46.9844 118.585 47.3935 118.932C47.8082 119.273 48.3196 119.443 48.9276 119.443ZM60.8452 114.432V122H57.2145V108.909H60.6747V111.219H60.8281C61.1179 110.457 61.6037 109.855 62.2855 109.412C62.9673 108.963 63.794 108.739 64.7656 108.739C65.6747 108.739 66.4673 108.938 67.1435 109.335C67.8196 109.733 68.3452 110.301 68.7202 111.04C69.0952 111.773 69.2827 112.648 69.2827 113.665V122H65.652V114.312C65.6577 113.511 65.4531 112.886 65.0384 112.438C64.6236 111.983 64.0526 111.756 63.3253 111.756C62.8366 111.756 62.4048 111.861 62.0298 112.071C61.6605 112.281 61.3707 112.588 61.1605 112.991C60.956 113.389 60.8509 113.869 60.8452 114.432ZM82.5362 112.642L79.2124 112.847C79.1555 112.562 79.0334 112.307 78.8459 112.08C78.6584 111.847 78.4112 111.662 78.1044 111.526C77.8033 111.384 77.4425 111.312 77.022 111.312C76.4595 111.312 75.9851 111.432 75.5987 111.67C75.2124 111.903 75.0192 112.216 75.0192 112.608C75.0192 112.92 75.1442 113.185 75.3942 113.401C75.6442 113.616 76.0732 113.79 76.6811 113.92L79.0504 114.398C80.3232 114.659 81.272 115.08 81.897 115.659C82.522 116.239 82.8345 117 82.8345 117.943C82.8345 118.801 82.5817 119.554 82.076 120.202C81.576 120.849 80.8885 121.355 80.0135 121.719C79.1442 122.077 78.1413 122.256 77.005 122.256C75.272 122.256 73.8913 121.895 72.8629 121.173C71.8402 120.446 71.2408 119.457 71.0646 118.207L74.6357 118.02C74.7436 118.548 75.005 118.952 75.4197 119.23C75.8345 119.503 76.3658 119.639 77.0135 119.639C77.6499 119.639 78.1612 119.517 78.5476 119.273C78.9396 119.023 79.1385 118.702 79.1442 118.31C79.1385 117.98 78.9993 117.71 78.7266 117.5C78.4538 117.284 78.0334 117.119 77.4652 117.006L75.1982 116.554C73.9197 116.298 72.968 115.855 72.343 115.224C71.7237 114.594 71.4141 113.79 71.4141 112.812C71.4141 111.972 71.6413 111.247 72.0959 110.639C72.5561 110.031 73.201 109.562 74.0305 109.233C74.8658 108.903 75.843 108.739 76.9624 108.739C78.6158 108.739 79.9169 109.088 80.8658 109.787C81.8203 110.486 82.3771 111.437 82.5362 112.642ZM90.5866 122.256C89.2401 122.256 88.081 121.983 87.1094 121.438C86.1435 120.886 85.3991 120.108 84.8764 119.102C84.3537 118.091 84.0923 116.895 84.0923 115.514C84.0923 114.168 84.3537 112.986 84.8764 111.969C85.3991 110.952 86.1349 110.159 87.0838 109.591C88.0384 109.023 89.1577 108.739 90.4418 108.739C91.3054 108.739 92.1094 108.878 92.8537 109.156C93.6037 109.429 94.2571 109.841 94.8139 110.392C95.3764 110.943 95.8139 111.636 96.1264 112.472C96.4389 113.301 96.5952 114.273 96.5952 115.386V116.384H85.5412V114.134H93.1776C93.1776 113.611 93.0639 113.148 92.8366 112.744C92.6094 112.341 92.294 112.026 91.8906 111.798C91.4929 111.565 91.0298 111.449 90.5014 111.449C89.9503 111.449 89.4616 111.577 89.0355 111.832C88.6151 112.082 88.2855 112.42 88.0469 112.847C87.8082 113.267 87.6861 113.736 87.6804 114.253V116.392C87.6804 117.04 87.7997 117.599 88.0384 118.071C88.2827 118.543 88.6264 118.906 89.0696 119.162C89.5128 119.418 90.0384 119.545 90.6463 119.545C91.0497 119.545 91.419 119.489 91.7543 119.375C92.0895 119.261 92.3764 119.091 92.6151 118.864C92.8537 118.636 93.0355 118.358 93.1605 118.028L96.5185 118.25C96.348 119.057 95.9986 119.761 95.4702 120.364C94.9474 120.96 94.2713 121.426 93.4418 121.761C92.6179 122.091 91.6662 122.256 90.5866 122.256ZM102.095 114.432V122H98.4645V108.909H101.925V111.219H102.078C102.368 110.457 102.854 109.855 103.536 109.412C104.217 108.963 105.044 108.739 106.016 108.739C106.925 108.739 107.717 108.938 108.393 109.335C109.07 109.733 109.595 110.301 109.97 111.04C110.345 111.773 110.533 112.648 110.533 113.665V122H106.902V114.312C106.908 113.511 106.703 112.886 106.288 112.438C105.874 111.983 105.303 111.756 104.575 111.756C104.087 111.756 103.655 111.861 103.28 112.071C102.911 112.281 102.621 112.588 102.411 112.991C102.206 113.389 102.101 113.869 102.095 114.432ZM119.857 108.909V111.636H111.974V108.909H119.857ZM113.763 105.773H117.394V117.977C117.394 118.312 117.445 118.574 117.548 118.761C117.65 118.943 117.792 119.071 117.974 119.145C118.161 119.219 118.377 119.256 118.621 119.256C118.792 119.256 118.962 119.241 119.133 119.213C119.303 119.179 119.434 119.153 119.525 119.136L120.096 121.838C119.914 121.895 119.658 121.96 119.329 122.034C118.999 122.114 118.599 122.162 118.127 122.179C117.252 122.213 116.485 122.097 115.826 121.83C115.173 121.562 114.664 121.148 114.3 120.585C113.937 120.023 113.758 119.312 113.763 118.455V105.773ZM133.817 108.909V111.636H125.737V108.909H133.817ZM127.587 122V107.963C127.587 107.014 127.771 106.227 128.141 105.602C128.516 104.977 129.027 104.509 129.675 104.196C130.322 103.884 131.058 103.727 131.882 103.727C132.439 103.727 132.947 103.77 133.408 103.855C133.874 103.94 134.22 104.017 134.447 104.085L133.8 106.812C133.658 106.767 133.482 106.724 133.271 106.685C133.067 106.645 132.857 106.625 132.641 106.625C132.107 106.625 131.734 106.75 131.524 107C131.314 107.244 131.209 107.588 131.209 108.031V122H127.587ZM140.981 122.256C139.657 122.256 138.512 121.974 137.546 121.412C136.586 120.844 135.844 120.054 135.322 119.043C134.799 118.026 134.538 116.847 134.538 115.506C134.538 114.153 134.799 112.972 135.322 111.96C135.844 110.943 136.586 110.153 137.546 109.591C138.512 109.023 139.657 108.739 140.981 108.739C142.305 108.739 143.447 109.023 144.407 109.591C145.373 110.153 146.117 110.943 146.64 111.96C147.163 112.972 147.424 114.153 147.424 115.506C147.424 116.847 147.163 118.026 146.64 119.043C146.117 120.054 145.373 120.844 144.407 121.412C143.447 121.974 142.305 122.256 140.981 122.256ZM140.998 119.443C141.6 119.443 142.103 119.273 142.506 118.932C142.91 118.585 143.214 118.114 143.418 117.517C143.629 116.92 143.734 116.241 143.734 115.48C143.734 114.719 143.629 114.04 143.418 113.443C143.214 112.847 142.91 112.375 142.506 112.028C142.103 111.682 141.6 111.509 140.998 111.509C140.39 111.509 139.879 111.682 139.464 112.028C139.055 112.375 138.745 112.847 138.535 113.443C138.33 114.04 138.228 114.719 138.228 115.48C138.228 116.241 138.33 116.92 138.535 117.517C138.745 118.114 139.055 118.585 139.464 118.932C139.879 119.273 140.39 119.443 140.998 119.443ZM149.285 122V108.909H152.805V111.193H152.941C153.18 110.381 153.58 109.767 154.143 109.352C154.705 108.932 155.353 108.722 156.086 108.722C156.268 108.722 156.464 108.733 156.674 108.756C156.884 108.778 157.069 108.81 157.228 108.849V112.071C157.058 112.02 156.822 111.974 156.521 111.935C156.219 111.895 155.944 111.875 155.694 111.875C155.16 111.875 154.683 111.991 154.262 112.224C153.847 112.452 153.518 112.77 153.273 113.179C153.035 113.588 152.915 114.06 152.915 114.594V122H149.285ZM24.8523 131.588V128.545H39.1875V131.588H33.8438V146H30.196V131.588H24.8523ZM45.0476 146.256C43.701 146.256 42.5419 145.983 41.5703 145.438C40.6044 144.886 39.8601 144.108 39.3374 143.102C38.8146 142.091 38.5533 140.895 38.5533 139.514C38.5533 138.168 38.8146 136.986 39.3374 135.969C39.8601 134.952 40.5959 134.159 41.5447 133.591C42.4993 133.023 43.6186 132.739 44.9027 132.739C45.7663 132.739 46.5703 132.878 47.3146 133.156C48.0646 133.429 48.718 133.841 49.2749 134.392C49.8374 134.943 50.2749 135.636 50.5874 136.472C50.8999 137.301 51.0561 138.273 51.0561 139.386V140.384H40.0021V138.134H47.6385C47.6385 137.611 47.5249 137.148 47.2976 136.744C47.0703 136.341 46.755 136.026 46.3516 135.798C45.9538 135.565 45.4908 135.449 44.9624 135.449C44.4112 135.449 43.9226 135.577 43.4964 135.832C43.076 136.082 42.7464 136.42 42.5078 136.847C42.2692 137.267 42.147 137.736 42.1413 138.253V140.392C42.1413 141.04 42.2607 141.599 42.4993 142.071C42.7436 142.543 43.0874 142.906 43.5305 143.162C43.9737 143.418 44.4993 143.545 45.1072 143.545C45.5107 143.545 45.88 143.489 46.2152 143.375C46.5504 143.261 46.8374 143.091 47.076 142.864C47.3146 142.636 47.4964 142.358 47.6214 142.028L50.9794 142.25C50.8089 143.057 50.4595 143.761 49.9311 144.364C49.4084 144.96 48.7322 145.426 47.9027 145.761C47.0788 146.091 46.1271 146.256 45.0476 146.256ZM56.5561 128.545V146H52.9254V128.545H56.5561ZM64.9304 146.256C63.5838 146.256 62.4247 145.983 61.4531 145.438C60.4872 144.886 59.7429 144.108 59.2202 143.102C58.6974 142.091 58.4361 140.895 58.4361 139.514C58.4361 138.168 58.6974 136.986 59.2202 135.969C59.7429 134.952 60.4787 134.159 61.4276 133.591C62.3821 133.023 63.5014 132.739 64.7855 132.739C65.6491 132.739 66.4531 132.878 67.1974 133.156C67.9474 133.429 68.6009 133.841 69.1577 134.392C69.7202 134.943 70.1577 135.636 70.4702 136.472C70.7827 137.301 70.9389 138.273 70.9389 139.386V140.384H59.8849V138.134H67.5213C67.5213 137.611 67.4077 137.148 67.1804 136.744C66.9531 136.341 66.6378 136.026 66.2344 135.798C65.8366 135.565 65.3736 135.449 64.8452 135.449C64.294 135.449 63.8054 135.577 63.3793 135.832C62.9588 136.082 62.6293 136.42 62.3906 136.847C62.152 137.267 62.0298 137.736 62.0241 138.253V140.392C62.0241 141.04 62.1435 141.599 62.3821 142.071C62.6264 142.543 62.9702 142.906 63.4134 143.162C63.8565 143.418 64.3821 143.545 64.9901 143.545C65.3935 143.545 65.7628 143.489 66.098 143.375C66.4332 143.261 66.7202 143.091 66.9588 142.864C67.1974 142.636 67.3793 142.358 67.5043 142.028L70.8622 142.25C70.6918 143.057 70.3423 143.761 69.8139 144.364C69.2912 144.96 68.6151 145.426 67.7855 145.761C66.9616 146.091 66.0099 146.256 64.9304 146.256ZM76.4389 138.432V146H72.8082V128.545H76.3366V135.219H76.4901C76.7855 134.446 77.2628 133.841 77.9219 133.403C78.581 132.96 79.4077 132.739 80.402 132.739C81.3111 132.739 82.1037 132.938 82.7798 133.335C83.4616 133.727 83.9901 134.293 84.3651 135.031C84.7457 135.764 84.9332 136.642 84.9276 137.665V146H81.2969V138.312C81.3026 137.506 81.098 136.878 80.6832 136.429C80.2741 135.98 79.7003 135.756 78.9616 135.756C78.4673 135.756 78.0298 135.861 77.6491 136.071C77.2741 136.281 76.9787 136.588 76.7628 136.991C76.5526 137.389 76.4446 137.869 76.4389 138.432ZM93.2507 146.256C91.9041 146.256 90.745 145.983 89.7734 145.438C88.8075 144.886 88.0632 144.108 87.5405 143.102C87.0178 142.091 86.7564 140.895 86.7564 139.514C86.7564 138.168 87.0178 136.986 87.5405 135.969C88.0632 134.952 88.799 134.159 89.7479 133.591C90.7024 133.023 91.8217 132.739 93.1058 132.739C93.9695 132.739 94.7734 132.878 95.5178 133.156C96.2678 133.429 96.9212 133.841 97.478 134.392C98.0405 134.943 98.478 135.636 98.7905 136.472C99.103 137.301 99.2592 138.273 99.2592 139.386V140.384H88.2053V138.134H95.8416C95.8416 137.611 95.728 137.148 95.5007 136.744C95.2734 136.341 94.9581 136.026 94.5547 135.798C94.157 135.565 93.6939 135.449 93.1655 135.449C92.6143 135.449 92.1257 135.577 91.6996 135.832C91.2791 136.082 90.9496 136.42 90.7109 136.847C90.4723 137.267 90.3501 137.736 90.3445 138.253V140.392C90.3445 141.04 90.4638 141.599 90.7024 142.071C90.9467 142.543 91.2905 142.906 91.7337 143.162C92.1768 143.418 92.7024 143.545 93.3104 143.545C93.7138 143.545 94.0831 143.489 94.4183 143.375C94.7536 143.261 95.0405 143.091 95.2791 142.864C95.5178 142.636 95.6996 142.358 95.8246 142.028L99.1825 142.25C99.0121 143.057 98.6626 143.761 98.1342 144.364C97.6115 144.96 96.9354 145.426 96.1058 145.761C95.282 146.091 94.3303 146.256 93.2507 146.256ZM104.862 146.247C104.026 146.247 103.282 146.102 102.629 145.812C101.975 145.517 101.458 145.082 101.077 144.509C100.702 143.929 100.515 143.207 100.515 142.344C100.515 141.616 100.648 141.006 100.915 140.511C101.183 140.017 101.546 139.619 102.006 139.318C102.467 139.017 102.989 138.79 103.575 138.636C104.165 138.483 104.785 138.375 105.433 138.312C106.194 138.233 106.808 138.159 107.273 138.091C107.739 138.017 108.077 137.909 108.288 137.767C108.498 137.625 108.603 137.415 108.603 137.136V137.085C108.603 136.545 108.433 136.128 108.092 135.832C107.756 135.537 107.279 135.389 106.66 135.389C106.006 135.389 105.487 135.534 105.1 135.824C104.714 136.108 104.458 136.466 104.333 136.898L100.975 136.625C101.146 135.83 101.481 135.142 101.981 134.562C102.481 133.977 103.126 133.528 103.915 133.216C104.711 132.898 105.631 132.739 106.677 132.739C107.404 132.739 108.1 132.824 108.765 132.994C109.435 133.165 110.029 133.429 110.546 133.787C111.069 134.145 111.481 134.605 111.782 135.168C112.083 135.724 112.234 136.392 112.234 137.17V146H108.79V144.185H108.688C108.478 144.594 108.197 144.955 107.844 145.267C107.492 145.574 107.069 145.815 106.575 145.991C106.08 146.162 105.509 146.247 104.862 146.247ZM105.901 143.741C106.435 143.741 106.907 143.636 107.316 143.426C107.725 143.21 108.046 142.92 108.279 142.557C108.512 142.193 108.629 141.781 108.629 141.321V139.932C108.515 140.006 108.359 140.074 108.16 140.136C107.967 140.193 107.748 140.247 107.504 140.298C107.259 140.344 107.015 140.386 106.771 140.426C106.526 140.46 106.305 140.491 106.106 140.52C105.68 140.582 105.308 140.682 104.989 140.818C104.671 140.955 104.424 141.139 104.248 141.372C104.072 141.599 103.984 141.884 103.984 142.224C103.984 142.719 104.163 143.097 104.521 143.358C104.884 143.614 105.344 143.741 105.901 143.741ZM118.181 128.545V146H114.55V128.545H118.181ZM127.553 132.909V135.636H119.669V132.909H127.553ZM121.459 129.773H125.089V141.977C125.089 142.312 125.141 142.574 125.243 142.761C125.345 142.943 125.487 143.071 125.669 143.145C125.857 143.219 126.072 143.256 126.317 143.256C126.487 143.256 126.658 143.241 126.828 143.213C126.999 143.179 127.129 143.153 127.22 143.136L127.791 145.838C127.609 145.895 127.354 145.96 127.024 146.034C126.695 146.114 126.294 146.162 125.822 146.179C124.947 146.213 124.18 146.097 123.521 145.83C122.868 145.562 122.359 145.148 121.996 144.585C121.632 144.023 121.453 143.312 121.459 142.455V129.773ZM133.33 138.432V146H129.699V128.545H133.227V135.219H133.381C133.676 134.446 134.153 133.841 134.812 133.403C135.472 132.96 136.298 132.739 137.293 132.739C138.202 132.739 138.994 132.938 139.67 133.335C140.352 133.727 140.881 134.293 141.256 135.031C141.636 135.764 141.824 136.642 141.818 137.665V146H138.188V138.312C138.193 137.506 137.989 136.878 137.574 136.429C137.165 135.98 136.591 135.756 135.852 135.756C135.358 135.756 134.92 135.861 134.54 136.071C134.165 136.281 133.869 136.588 133.653 136.991C133.443 137.389 133.335 137.869 133.33 138.432Z" fill="#484343"/>
<g opacity="0.4">
<path d="M246.207 -6.30298C242.22 -16.2649 222.495 -21.1843 225.75 -1.34921C226.284 1.90308 226.337 7.50323 225.75 14.3198C225.212 20.5641 214.678 23.9808 211.444 32.0492C206.373 44.7027 225.334 53.5224 222.316 60.1741C218.365 68.8863 206.264 72.6663 199.57 77.4327C193.269 81.9197 189.256 89.1194 187.715 96.5214C185.011 109.507 189.918 123.116 203.433 123.793C210.199 124.132 219.122 121.231 230.328 113.388C235.338 109.881 239.756 106.992 243.682 104.655C253.788 98.6409 251.071 112.867 263.088 113.388C269.935 113.685 277.086 101.404 282.5 107.955C286.349 112.613 290.767 118.264 297.075 124.075C308.154 134.279 322.005 135.782 323.964 121.218C324.889 114.343 323.164 103.888 317.246 89.0785C313.459 79.6011 322.879 79.9352 323.964 67.7904C325.05 55.6455 316.174 50.0447 322.599 45.0181L322.728 44.9174C327.625 41.0866 332.848 37.0008 335.7 29.1532C338.157 22.3933 337.923 15.698 335.7 10.5534C333.322 5.04754 328.667 1.3177 322.599 1.18539C316.511 1.05264 309 4.54175 300.938 13.4927C295.622 19.3942 292.023 5.66229 282.5 7.06602C272.977 8.46976 271.654 21.7194 265.949 17.8765C256.039 11.201 250.877 5.36421 246.207 -6.30298Z" stroke="white" stroke-width="0.683891"/>
<path d="M265.442 48.0375C264.835 46.5082 262.007 46.9096 261.864 48.567C261.701 50.4542 262.694 52.9133 262.579 54.8049C262.358 58.4572 261.014 59.4969 258.339 61.4219C257.38 62.1107 256.769 63.216 256.535 64.3523C256.123 66.3459 256.87 68.4351 258.927 68.539C259.956 68.591 261.314 68.1456 263.02 66.9416C263.782 66.4033 264.454 65.9597 265.052 65.601C267.653 63.9144 270.074 65.2359 270.959 66.1075C271.545 66.8226 272.218 67.6902 273.178 68.5822C274.864 70.1488 277.417 69.9435 277.27 68.1437C277.062 65.601 272.541 56.1097 277.27 54.4547C279.466 53.686 279.394 51.9446 279.056 51.1548C278.694 50.3095 277.985 49.737 277.062 49.7166C276.135 49.6963 274.6 51.1548 273.765 51.606C270.683 53.2718 267.932 54.1329 265.442 48.0375Z" stroke="white" stroke-width="0.683891"/>
<path d="M229.048 2.99059C226.159 -15.0662 244.184 -10.565 247.84 -1.4325C252.315 9.73251 257.263 14.9653 266.559 20.8884C271.788 24.3644 273.046 12.2666 281.766 10.9517C290.485 9.63675 293.816 22.0979 298.695 16.7295C306.114 8.58757 313.013 5.46478 318.585 5.66183C324.122 5.81784 328.367 9.26841 330.511 14.3346C332.514 19.0722 332.679 25.2202 330.343 31.4052C327.295 38.757 322.894 43.3331 318.423 47.0746C312.584 51.729 320.605 56.87 319.542 67.9269C318.478 78.9838 309.811 78.6491 313.18 87.2011C318.477 100.595 319.986 110.029 319.091 116.219C317.268 129.43 304.59 128.013 294.415 118.709C288.581 113.402 284.447 108.268 280.826 104.106C275.846 98.1782 269.278 109.392 262.979 109.17C251.967 108.75 254.37 95.8446 245.113 101.339C241.478 103.488 237.404 106.126 232.799 109.314C222.416 116.44 214.229 118.892 208.111 118.404C195.824 117.736 191.379 105.304 193.866 93.4438C195.296 86.6638 198.984 80.0729 204.76 75.9594C211.094 71.4492 222.226 67.9162 225.842 59.6602C228.593 53.523 211.321 45.4006 215.915 33.7901C218.838 26.3512 228.404 23.1446 228.901 17.3782C229.442 11.1016 229.461 5.96008 229.048 2.99059Z" stroke="white" stroke-width="0.683891"/>
<path d="M232.494 7.51251C229.975 -8.70684 246.275 -4.63865 249.593 3.63443C253.868 14.2595 258.593 18.8712 267.263 24.0229C272.008 27.1207 273.199 16.2144 281.103 14.9927C289.006 13.771 292.064 24.9205 296.498 20.1029C303.264 12.7967 309.54 10.0503 314.589 10.3109C319.586 10.49 323.414 13.6499 325.322 18.2597C327.102 22.5745 327.197 28.1552 324.987 33.7449C321.772 40.5077 318.265 45.5547 314.264 49.1648C309.02 53.4317 316.174 58.0959 315.135 68.0285C314.095 77.9611 306.193 77.6271 309.139 85.2258C313.808 97.1597 315.098 105.542 314.234 111.027C312.55 122.842 301.064 121.517 291.808 113.142C286.455 108.356 282.612 103.757 279.225 100.104C274.686 94.8193 268.711 104.929 262.968 104.783C252.978 104.465 255.063 92.9222 246.668 97.8796C243.331 99.8338 239.607 102.211 235.413 105.07C225.868 111.456 218.429 113.45 212.967 112.814C201.927 112.159 197.95 100.945 200.217 90.2489C201.533 84.1132 204.889 78.1528 210.133 74.4264C216.098 70.1875 226.246 66.9134 229.52 59.1413C232 53.5388 216.442 46.1405 220.554 35.6112C223.161 28.8265 231.745 25.8407 232.2 20.5714C232.694 14.8555 232.785 10.1894 232.494 7.51251Z" stroke="white" stroke-width="0.683891"/>
<path d="M235.791 11.8525C233.639 -2.58851 248.238 1.06147 251.224 8.50512C255.305 18.6278 259.815 22.6355 267.873 27.0349C272.141 29.7657 273.267 20.0113 280.366 18.8784C287.466 17.7456 290.255 27.6243 294.253 23.3398C300.376 16.8426 306.039 14.4626 310.571 14.7874C315.036 14.9902 318.454 17.8708 320.128 22.041C321.688 25.9486 321.713 30.9821 319.624 35.9968C316.238 42.195 313.62 47.7294 310.084 51.2207C305.425 55.1155 311.724 59.3198 310.707 68.1644C309.69 77.009 302.541 76.6744 305.068 83.3478C309.116 93.8656 310.189 101.226 309.355 106.028C307.808 116.49 297.495 115.25 289.143 107.775C284.265 103.493 280.706 99.4113 277.547 96.2552C273.442 91.5932 268.05 100.635 262.856 100.565C253.872 100.349 255.642 90.1254 248.097 94.5634C245.051 96.3299 241.671 98.4558 237.882 100.996C229.16 106.666 222.458 108.209 217.644 107.424C207.834 106.779 204.318 96.741 206.37 87.1708C207.574 81.6571 210.604 76.3056 215.324 72.9528C220.928 68.9701 230.107 65.9431 233.045 58.6272C235.258 53.5394 221.391 46.8383 225.025 37.3521C227.322 31.197 234.936 28.4213 235.35 23.63C235.798 18.4541 235.961 14.2467 235.791 11.8525Z" stroke="white" stroke-width="0.683891"/>
<path d="M239.235 16.1923C237.454 3.53015 250.326 6.76183 252.975 13.3759C256.854 22.9971 261.142 26.4003 268.573 30.047C272.357 32.4107 273.415 23.8084 279.698 22.7644C285.982 21.7203 288.497 30.3277 292.05 26.5765C297.52 20.8887 302.56 18.8752 306.568 19.2645C310.493 19.491 313.495 22.0923 314.931 25.8227C316.268 29.3233 316.224 33.8095 314.261 38.2491C310.709 43.8827 308.985 49.9063 305.919 53.2792C301.854 56.8019 307.287 60.5462 306.294 68.3025C305.3 76.0588 298.917 75.7235 301.022 81.4712C304.441 90.5723 305.295 96.9115 304.493 101.028C303.084 110.137 293.964 108.983 286.531 102.408C282.136 98.6289 278.866 95.0658 275.942 92.4062C272.278 88.3675 267.48 96.3415 262.843 96.3466C254.881 96.232 256.332 87.3294 249.65 91.248C246.902 92.8268 243.872 94.7009 240.495 96.9226C232.611 101.875 226.658 102.968 222.5 102.034C213.937 101.398 210.89 92.537 212.721 84.0927C213.812 79.2012 216.51 74.4586 220.697 71.4795C225.932 67.7527 234.125 64.9728 236.722 58.1127C238.664 53.5394 226.511 47.5356 229.663 39.0927C231.644 33.5672 238.276 31.0015 238.648 26.6882C239.048 22.0523 239.284 18.3036 239.235 16.1923Z" stroke="white" stroke-width="0.683891"/>
<path d="M242.678 20.7368C241.267 9.88172 252.412 12.6879 254.724 18.4576C258.401 27.5554 262.465 30.3467 269.268 33.2325C272.569 35.2239 273.559 27.7929 279.026 26.8401C284.492 25.8872 286.734 33.2041 289.843 29.9946C294.658 25.1288 299.075 23.4863 302.559 23.939C305.945 24.1888 308.529 26.505 309.729 29.7873C310.843 32.8729 310.73 36.8017 308.891 40.6564C305.175 45.7128 304.344 52.2115 301.748 55.4584C298.278 58.6011 302.844 61.877 301.875 68.5277C300.906 75.1783 295.289 74.8432 296.971 79.6522C299.761 87.3165 300.397 92.62 299.626 96.0423C298.357 103.778 290.429 102.713 283.916 97.0524C280.003 93.785 277.025 90.748 274.335 88.5907C271.112 85.1844 266.907 92.0727 262.828 92.1532C255.888 92.1403 257.022 84.5782 251.202 87.9686C248.752 89.3561 246.072 90.9742 243.107 92.8722C236.063 97.0968 230.858 97.7367 227.356 96.6548C220.041 96.0303 217.461 88.3664 219.073 81.0668C220.05 76.8084 222.417 72.6854 226.07 70.0866C230.934 66.6242 238.142 64.0976 240.398 57.7088C242.069 53.6604 231.631 48.3674 234.299 40.9866C235.965 36.103 241.614 33.7531 241.945 29.9276C242.298 25.8421 242.606 22.5604 242.678 20.7368Z" stroke="white" stroke-width="0.683891"/>
<path d="M245.972 25.0766C244.928 16.0013 254.369 18.389 256.348 23.3289C259.831 31.926 263.681 34.1125 269.87 36.2448C272.693 37.8689 273.618 31.5905 278.28 30.7264C282.941 29.8623 284.914 35.9072 287.585 33.2313C291.756 29.1753 295.559 27.8996 298.526 28.4169C301.378 28.6906 303.551 30.7275 304.516 33.5699C305.41 36.2482 305.227 39.6297 303.51 42.909C299.622 47.4008 299.682 54.3908 297.551 57.5197C294.669 60.2902 298.378 63.1061 297.431 68.6678C296.484 74.2295 291.621 73.8937 292.883 77.7764C295.051 84.023 295.469 88.3042 294.729 91.0412C293.596 97.4228 286.845 96.4436 281.237 91.6836C277.799 88.9199 275.105 86.4013 272.644 84.7409C269.856 81.9584 266.236 87.7784 262.705 87.9345C256.774 88.0232 257.592 81.7825 252.623 84.6532C250.466 85.853 248.13 87.2191 245.57 88.7983C239.351 92.3055 234.885 92.4943 232.032 91.2622C225.948 90.6474 223.831 84.161 225.226 77.9878C226.092 74.3518 228.131 70.838 231.259 68.6129C235.763 65.4063 242.001 63.1266 243.92 57.1932C245.323 53.6594 236.579 49.0639 238.769 42.7267C240.123 38.4729 244.802 36.3329 245.091 32.9854C245.397 29.4401 245.778 26.6173 245.972 25.0766Z" stroke="white" stroke-width="0.683891"/>
<path d="M249.411 29.4152C248.737 22.1211 256.449 24.09 258.091 28.1996C261.37 36.2979 264.994 37.8787 270.553 39.2563C272.891 40.5127 273.749 35.3878 277.592 34.6124C281.436 33.8369 283.135 38.6087 285.36 36.4667C288.876 33.2211 292.055 32.3128 294.497 32.8951C296.81 33.1928 298.566 34.9504 299.294 37.3528C299.965 39.6238 299.713 42.4576 298.122 45.1612C294.072 49.0887 295.023 56.5736 293.362 59.5854C291.075 61.9838 293.917 64.3394 292.995 68.8113C292.072 73.2833 287.977 72.9467 288.817 75.9019C290.356 80.7295 290.556 83.9873 289.848 86.0381C288.855 91.0644 283.297 90.1711 278.61 86.312C275.657 84.0524 273.254 82.0526 271.029 80.8898C268.682 78.7317 265.656 83.4827 262.684 83.7147C257.776 83.9052 258.277 78.9872 254.172 81.3378C252.313 82.3498 250.328 83.4639 248.181 84.7239C242.802 87.5133 239.086 87.2496 236.889 85.8667C232.054 85.2612 230.405 79.9531 231.579 74.9071C232.331 71.8937 234.039 68.9895 236.633 67.1384C240.765 64.1871 246.015 62.1542 247.592 56.6751C248.724 53.6561 241.696 49.7582 243.403 44.4651C244.442 40.8411 248.137 38.9108 248.384 36.0415C248.643 33.0365 249.096 30.6726 249.411 29.4152Z" stroke="white" stroke-width="0.683891"/>
<path d="M252.753 33.7544C252.447 28.2437 258.472 29.7936 259.784 33.0722C262.879 40.6743 266.299 41.6481 271.26 42.2691C273.126 43.1572 273.92 39.1869 276.967 38.5001C280.014 37.8133 281.448 41.3099 283.241 39.7028C286.121 37.2687 288.693 36.7284 290.624 37.3763C292.408 37.6982 293.756 39.1765 294.251 41.1387C294.703 43.0021 294.38 45.2878 292.906 47.4153C288.669 50.7785 290.519 58.7642 289.321 61.66C287.616 63.6863 289.606 65.5812 288.703 68.962C287.8 72.3428 284.449 72.0052 284.87 74.0313C285.789 77.4375 285.771 79.67 285.091 81.0334C284.231 84.7024 279.837 83.8946 276.046 80.9376C273.56 79.1827 271.435 77.7025 269.433 77.0383C267.515 75.5057 265.067 79.1865 262.637 79.4947C258.726 79.7877 258.911 76.1942 255.648 78.0243L255.559 78.0713C254.014 78.8811 252.399 79.7279 250.685 80.6505C246.118 82.7209 243.131 82.0031 241.58 80.468C237.966 79.8717 236.778 75.7431 237.738 71.8255C238.38 69.4354 239.764 67.1412 241.839 65.6645C245.622 62.9677 249.914 61.1814 251.158 56.1553C252.025 53.6513 246.676 50.4514 247.908 46.2031C248.637 43.2092 251.369 41.4883 251.575 39.0973C251.788 36.6328 252.315 34.7283 252.753 33.7544Z" stroke="white" stroke-width="0.683891"/>
<path d="M256.184 38.3044C256.247 34.6015 260.538 35.7253 261.511 38.1585C264.398 45.2299 267.588 45.5926 271.913 45.4546C273.292 45.9705 274.018 43.1725 276.244 42.5773C278.471 41.9822 279.629 44.1884 280.975 43.1231C283.197 41.5112 285.143 41.3413 286.547 42.0517C287.789 42.3964 288.72 43.5887 288.977 45.102C289.206 46.5496 288.814 48.2771 287.468 49.819C283.076 52.6029 285.813 61.0526 285.085 63.8194C283.977 65.4645 285.099 66.8904 284.222 69.1651C283.345 71.4399 280.764 71.1028 280.763 72.1911C281.054 74.1611 280.818 75.3586 280.17 76.0287C279.452 78.3243 276.256 77.6059 273.389 75.5639C271.389 74.3213 269.558 73.3672 267.794 73.2045C266.32 72.304 264.469 74.8984 262.6 75.2814C259.716 75.6754 259.584 73.4222 257.188 74.7236C255.916 75.356 254.624 75.9616 253.292 76.5784C249.57 77.9208 247.336 76.7524 246.442 75.0722C244.08 74.4877 243.36 71.5569 244.099 68.7849C244.626 67.0287 245.678 65.3548 247.216 64.2588C250.623 61.8288 253.923 60.297 254.823 55.7467C255.419 53.7687 251.791 51.2811 252.538 48.0965C252.952 45.746 254.698 44.2422 254.862 42.3402C255.028 40.4272 255.626 38.9905 256.184 38.3044Z" stroke="white" stroke-width="0.683891"/>
<path d="M259.665 42.6496C260.096 40.7414 262.666 41.4429 263.304 43.038C265.988 49.5947 268.953 49.349 272.65 48.4539C273.547 48.5999 274.205 46.9648 275.618 46.4598C277.03 45.9549 277.915 46.8791 278.818 46.3518C280.389 45.5563 281.713 45.7554 282.595 46.5296C283.299 46.8977 283.815 47.8074 283.836 48.8761C283.843 49.9121 283.383 51.0866 282.163 52.0478C277.611 54.2598 281.233 63.1894 280.974 65.8331C280.457 67.1015 280.717 68.0627 279.865 69.2394C279.012 70.4161 277.195 70.0789 276.774 70.2343C276.44 70.7764 275.986 70.9446 275.371 70.9249C274.791 71.856 272.783 71.225 270.833 70.0913C269.315 69.357 267.775 68.9254 266.245 69.2623C265.211 68.9902 263.952 70.5067 262.638 70.9651C260.773 71.4605 260.325 70.539 258.789 71.316C257.814 71.7587 256.871 72.1101 255.949 72.4054C253.065 73.0247 251.578 71.4048 251.337 69.5764C250.216 69.0026 249.963 67.26 250.482 65.6245C250.896 64.4967 251.616 63.4377 252.624 62.7192C255.659 60.5502 257.977 59.2691 258.537 55.1838C258.863 53.7263 256.942 51.9437 257.209 49.8131C257.309 48.0993 258.077 46.8089 258.199 45.3904C258.318 44.0235 258.987 43.0502 259.665 42.6496Z" stroke="white" stroke-width="0.683891"/>
</g>
</g>
<defs>
<clipPath id="clip0_448_1088">
<rect width="305" height="178" rx="16" fill="white"/>
</clipPath>
</defs>
</svg>
