<svg width="305" height="178" viewBox="0 0 305 178" fill="none" xmlns="http://www.w3.org/2000/svg">
<g clip-path="url(#clip0_328_884)">
<rect width="305" height="178" rx="16" fill="#D1C9D1"/>
<path d="M24.8523 107.588V104.545H39.1875V107.588H33.8438V122H30.196V107.588H24.8523ZM39.6207 122V108.909H43.1406V111.193H43.277C43.5156 110.381 43.9162 109.767 44.4787 109.352C45.0412 108.932 45.6889 108.722 46.4219 108.722C46.6037 108.722 46.7997 108.733 47.0099 108.756C47.2202 108.778 47.4048 108.81 47.5639 108.849V112.071C47.3935 112.02 47.1577 111.974 46.8565 111.935C46.5554 111.895 46.2798 111.875 46.0298 111.875C45.4957 111.875 45.0185 111.991 44.598 112.224C44.1832 112.452 43.8537 112.77 43.6094 113.179C43.3707 113.588 43.2514 114.06 43.2514 114.594V122H39.6207ZM54.2976 122.256C52.951 122.256 51.7919 121.983 50.8203 121.438C49.8544 120.886 49.1101 120.108 48.5874 119.102C48.0646 118.091 47.8033 116.895 47.8033 115.514C47.8033 114.168 48.0646 112.986 48.5874 111.969C49.1101 110.952 49.8459 110.159 50.7947 109.591C51.7493 109.023 52.8686 108.739 54.1527 108.739C55.0163 108.739 55.8203 108.878 56.5646 109.156C57.3146 109.429 57.968 109.841 58.5249 110.392C59.0874 110.943 59.5249 111.636 59.8374 112.472C60.1499 113.301 60.3061 114.273 60.3061 115.386V116.384H49.2521V114.134H56.8885C56.8885 113.611 56.7749 113.148 56.5476 112.744C56.3203 112.341 56.005 112.026 55.6016 111.798C55.2038 111.565 54.7408 111.449 54.2124 111.449C53.6612 111.449 53.1726 111.577 52.7464 111.832C52.326 112.082 51.9964 112.42 51.7578 112.847C51.5192 113.267 51.397 113.736 51.3913 114.253V116.392C51.3913 117.04 51.5107 117.599 51.7493 118.071C51.9936 118.543 52.3374 118.906 52.7805 119.162C53.2237 119.418 53.7493 119.545 54.3572 119.545C54.7607 119.545 55.13 119.489 55.4652 119.375C55.8004 119.261 56.0874 119.091 56.326 118.864C56.5646 118.636 56.7464 118.358 56.8714 118.028L60.2294 118.25C60.0589 119.057 59.7095 119.761 59.1811 120.364C58.6584 120.96 57.9822 121.426 57.1527 121.761C56.3288 122.091 55.3771 122.256 54.2976 122.256ZM65.9084 122.247C65.0732 122.247 64.3288 122.102 63.6754 121.812C63.022 121.517 62.505 121.082 62.1243 120.509C61.7493 119.929 61.5618 119.207 61.5618 118.344C61.5618 117.616 61.6953 117.006 61.9624 116.511C62.2294 116.017 62.593 115.619 63.0533 115.318C63.5135 115.017 64.0362 114.79 64.6214 114.636C65.2124 114.483 65.8317 114.375 66.4794 114.312C67.2408 114.233 67.8544 114.159 68.3203 114.091C68.7862 114.017 69.1243 113.909 69.3345 113.767C69.5447 113.625 69.6499 113.415 69.6499 113.136V113.085C69.6499 112.545 69.4794 112.128 69.1385 111.832C68.8033 111.537 68.326 111.389 67.7067 111.389C67.0533 111.389 66.5334 111.534 66.147 111.824C65.7607 112.108 65.505 112.466 65.38 112.898L62.022 112.625C62.1925 111.83 62.5277 111.142 63.0277 110.562C63.5277 109.977 64.1726 109.528 64.9624 109.216C65.7578 108.898 66.6783 108.739 67.7237 108.739C68.451 108.739 69.147 108.824 69.8118 108.994C70.4822 109.165 71.076 109.429 71.593 109.787C72.1158 110.145 72.5277 110.605 72.8288 111.168C73.13 111.724 73.2805 112.392 73.2805 113.17V122H69.8374V120.185H69.7351C69.5249 120.594 69.2436 120.955 68.8913 121.267C68.5391 121.574 68.1158 121.815 67.6214 121.991C67.1271 122.162 66.5561 122.247 65.9084 122.247ZM66.9482 119.741C67.4822 119.741 67.9538 119.636 68.3629 119.426C68.772 119.21 69.093 118.92 69.326 118.557C69.5589 118.193 69.6754 117.781 69.6754 117.321V115.932C69.5618 116.006 69.4055 116.074 69.2067 116.136C69.0135 116.193 68.7947 116.247 68.5504 116.298C68.3061 116.344 68.0618 116.386 67.8175 116.426C67.5732 116.46 67.3516 116.491 67.1527 116.52C66.7266 116.582 66.3544 116.682 66.0362 116.818C65.718 116.955 65.4709 117.139 65.2947 117.372C65.1186 117.599 65.0305 117.884 65.0305 118.224C65.0305 118.719 65.2095 119.097 65.5675 119.358C65.9311 119.614 66.3913 119.741 66.9482 119.741ZM82.5604 108.909V111.636H74.6768V108.909H82.5604ZM76.4666 105.773H80.0973V117.977C80.0973 118.312 80.1484 118.574 80.2507 118.761C80.353 118.943 80.495 119.071 80.6768 119.145C80.8643 119.219 81.0803 119.256 81.3246 119.256C81.495 119.256 81.6655 119.241 81.8359 119.213C82.0064 119.179 82.1371 119.153 82.228 119.136L82.799 121.838C82.6172 121.895 82.3615 121.96 82.032 122.034C81.7024 122.114 81.3018 122.162 80.8303 122.179C79.9553 122.213 79.1882 122.097 78.5291 121.83C77.8757 121.562 77.3672 121.148 77.0036 120.585C76.6399 120.023 76.4609 119.312 76.4666 118.455V105.773ZM84.4254 122V108.909H87.8857V111.219H88.0391C88.3118 110.452 88.7663 109.847 89.4027 109.403C90.0391 108.96 90.8004 108.739 91.6868 108.739C92.5845 108.739 93.3487 108.963 93.9794 109.412C94.6101 109.855 95.0305 110.457 95.2408 111.219H95.3771C95.6442 110.469 96.1271 109.869 96.826 109.42C97.5305 108.966 98.3629 108.739 99.3232 108.739C100.545 108.739 101.536 109.128 102.298 109.906C103.065 110.679 103.448 111.776 103.448 113.196V122H99.826V113.912C99.826 113.185 99.6328 112.639 99.2464 112.276C98.8601 111.912 98.3771 111.73 97.7976 111.73C97.1385 111.73 96.6243 111.94 96.255 112.361C95.8857 112.776 95.701 113.324 95.701 114.006V122H92.1811V113.835C92.1811 113.193 91.9964 112.682 91.6271 112.301C91.2635 111.92 90.7834 111.73 90.1868 111.73C89.7834 111.73 89.4197 111.832 89.0959 112.037C88.7777 112.236 88.5249 112.517 88.3374 112.881C88.1499 113.239 88.0561 113.659 88.0561 114.142V122H84.4254ZM111.782 122.256C110.435 122.256 109.276 121.983 108.305 121.438C107.339 120.886 106.594 120.108 106.072 119.102C105.549 118.091 105.288 116.895 105.288 115.514C105.288 114.168 105.549 112.986 106.072 111.969C106.594 110.952 107.33 110.159 108.279 109.591C109.234 109.023 110.353 108.739 111.637 108.739C112.501 108.739 113.305 108.878 114.049 109.156C114.799 109.429 115.452 109.841 116.009 110.392C116.572 110.943 117.009 111.636 117.322 112.472C117.634 113.301 117.79 114.273 117.79 115.386V116.384H106.737V114.134H114.373C114.373 113.611 114.259 113.148 114.032 112.744C113.805 112.341 113.489 112.026 113.086 111.798C112.688 111.565 112.225 111.449 111.697 111.449C111.146 111.449 110.657 111.577 110.231 111.832C109.81 112.082 109.481 112.42 109.242 112.847C109.004 113.267 108.881 113.736 108.876 114.253V116.392C108.876 117.04 108.995 117.599 109.234 118.071C109.478 118.543 109.822 118.906 110.265 119.162C110.708 119.418 111.234 119.545 111.842 119.545C112.245 119.545 112.614 119.489 112.95 119.375C113.285 119.261 113.572 119.091 113.81 118.864C114.049 118.636 114.231 118.358 114.356 118.028L117.714 118.25C117.543 119.057 117.194 119.761 116.665 120.364C116.143 120.96 115.467 121.426 114.637 121.761C113.813 122.091 112.862 122.256 111.782 122.256ZM123.29 114.432V122H119.66V108.909H123.12V111.219H123.273C123.563 110.457 124.049 109.855 124.731 109.412C125.413 108.963 126.239 108.739 127.211 108.739C128.12 108.739 128.913 108.938 129.589 109.335C130.265 109.733 130.79 110.301 131.165 111.04C131.54 111.773 131.728 112.648 131.728 113.665V122H128.097V114.312C128.103 113.511 127.898 112.886 127.484 112.438C127.069 111.983 126.498 111.756 125.771 111.756C125.282 111.756 124.85 111.861 124.475 112.071C124.106 112.281 123.816 112.588 123.606 112.991C123.401 113.389 123.296 113.869 123.29 114.432ZM141.053 108.909V111.636H133.169V108.909H141.053ZM134.959 105.773H138.589V117.977C138.589 118.312 138.641 118.574 138.743 118.761C138.845 118.943 138.987 119.071 139.169 119.145C139.357 119.219 139.572 119.256 139.817 119.256C139.987 119.256 140.158 119.241 140.328 119.213C140.499 119.179 140.629 119.153 140.72 119.136L141.291 121.838C141.109 121.895 140.854 121.96 140.524 122.034C140.195 122.114 139.794 122.162 139.322 122.179C138.447 122.213 137.68 122.097 137.021 121.83C136.368 121.562 135.859 121.148 135.496 120.585C135.132 120.023 134.953 119.312 134.959 118.455V105.773ZM163.441 110.656H159.708C159.64 110.173 159.501 109.744 159.29 109.369C159.08 108.989 158.81 108.665 158.481 108.398C158.151 108.131 157.771 107.926 157.339 107.784C156.913 107.642 156.45 107.571 155.95 107.571C155.046 107.571 154.259 107.795 153.589 108.244C152.918 108.687 152.398 109.335 152.029 110.188C151.66 111.034 151.475 112.062 151.475 113.273C151.475 114.517 151.66 115.562 152.029 116.409C152.404 117.256 152.927 117.895 153.597 118.327C154.268 118.759 155.043 118.974 155.924 118.974C156.418 118.974 156.876 118.909 157.296 118.778C157.722 118.648 158.1 118.457 158.43 118.207C158.759 117.952 159.032 117.642 159.248 117.278C159.469 116.915 159.623 116.5 159.708 116.034L163.441 116.051C163.344 116.852 163.103 117.625 162.717 118.369C162.336 119.108 161.822 119.77 161.174 120.355C160.532 120.935 159.765 121.395 158.873 121.736C157.987 122.071 156.984 122.239 155.864 122.239C154.308 122.239 152.915 121.886 151.688 121.182C150.467 120.477 149.501 119.457 148.79 118.122C148.086 116.787 147.734 115.17 147.734 113.273C147.734 111.369 148.092 109.75 148.808 108.415C149.523 107.08 150.495 106.062 151.722 105.364C152.95 104.659 154.33 104.307 155.864 104.307C156.876 104.307 157.813 104.449 158.677 104.733C159.546 105.017 160.316 105.432 160.987 105.977C161.657 106.517 162.202 107.179 162.623 107.963C163.049 108.747 163.322 109.645 163.441 110.656ZM171.434 122.256C170.11 122.256 168.965 121.974 167.999 121.412C167.039 120.844 166.298 120.054 165.775 119.043C165.252 118.026 164.991 116.847 164.991 115.506C164.991 114.153 165.252 112.972 165.775 111.96C166.298 110.943 167.039 110.153 167.999 109.591C168.965 109.023 170.11 108.739 171.434 108.739C172.758 108.739 173.9 109.023 174.86 109.591C175.826 110.153 176.57 110.943 177.093 111.96C177.616 112.972 177.877 114.153 177.877 115.506C177.877 116.847 177.616 118.026 177.093 119.043C176.57 120.054 175.826 120.844 174.86 121.412C173.9 121.974 172.758 122.256 171.434 122.256ZM171.451 119.443C172.053 119.443 172.556 119.273 172.96 118.932C173.363 118.585 173.667 118.114 173.871 117.517C174.082 116.92 174.187 116.241 174.187 115.48C174.187 114.719 174.082 114.04 173.871 113.443C173.667 112.847 173.363 112.375 172.96 112.028C172.556 111.682 172.053 111.509 171.451 111.509C170.843 111.509 170.332 111.682 169.917 112.028C169.508 112.375 169.198 112.847 168.988 113.443C168.783 114.04 168.681 114.719 168.681 115.48C168.681 116.241 168.783 116.92 168.988 117.517C169.198 118.114 169.508 118.585 169.917 118.932C170.332 119.273 170.843 119.443 171.451 119.443ZM183.369 114.432V122H179.738V108.909H183.198V111.219H183.352C183.641 110.457 184.127 109.855 184.809 109.412C185.491 108.963 186.317 108.739 187.289 108.739C188.198 108.739 188.991 108.938 189.667 109.335C190.343 109.733 190.869 110.301 191.244 111.04C191.619 111.773 191.806 112.648 191.806 113.665V122H188.175V114.312C188.181 113.511 187.977 112.886 187.562 112.438C187.147 111.983 186.576 111.756 185.849 111.756C185.36 111.756 184.928 111.861 184.553 112.071C184.184 112.281 183.894 112.588 183.684 112.991C183.479 113.389 183.374 113.869 183.369 114.432ZM205.06 112.642L201.736 112.847C201.679 112.562 201.557 112.307 201.369 112.08C201.182 111.847 200.935 111.662 200.628 111.526C200.327 111.384 199.966 111.312 199.545 111.312C198.983 111.312 198.509 111.432 198.122 111.67C197.736 111.903 197.543 112.216 197.543 112.608C197.543 112.92 197.668 113.185 197.918 113.401C198.168 113.616 198.597 113.79 199.205 113.92L201.574 114.398C202.847 114.659 203.795 115.08 204.42 115.659C205.045 116.239 205.358 117 205.358 117.943C205.358 118.801 205.105 119.554 204.599 120.202C204.099 120.849 203.412 121.355 202.537 121.719C201.668 122.077 200.665 122.256 199.528 122.256C197.795 122.256 196.415 121.895 195.386 121.173C194.364 120.446 193.764 119.457 193.588 118.207L197.159 118.02C197.267 118.548 197.528 118.952 197.943 119.23C198.358 119.503 198.889 119.639 199.537 119.639C200.173 119.639 200.685 119.517 201.071 119.273C201.463 119.023 201.662 118.702 201.668 118.31C201.662 117.98 201.523 117.71 201.25 117.5C200.977 117.284 200.557 117.119 199.989 117.006L197.722 116.554C196.443 116.298 195.491 115.855 194.866 115.224C194.247 114.594 193.938 113.79 193.938 112.812C193.938 111.972 194.165 111.247 194.619 110.639C195.08 110.031 195.724 109.562 196.554 109.233C197.389 108.903 198.366 108.739 199.486 108.739C201.139 108.739 202.44 109.088 203.389 109.787C204.344 110.486 204.901 111.437 205.06 112.642ZM213.11 122.256C211.763 122.256 210.604 121.983 209.633 121.438C208.667 120.886 207.923 120.108 207.4 119.102C206.877 118.091 206.616 116.895 206.616 115.514C206.616 114.168 206.877 112.986 207.4 111.969C207.923 110.952 208.658 110.159 209.607 109.591C210.562 109.023 211.681 108.739 212.965 108.739C213.829 108.739 214.633 108.878 215.377 109.156C216.127 109.429 216.781 109.841 217.337 110.392C217.9 110.943 218.337 111.636 218.65 112.472C218.962 113.301 219.119 114.273 219.119 115.386V116.384H208.065V114.134H215.701C215.701 113.611 215.587 113.148 215.36 112.744C215.133 112.341 214.817 112.026 214.414 111.798C214.016 111.565 213.553 111.449 213.025 111.449C212.474 111.449 211.985 111.577 211.559 111.832C211.138 112.082 210.809 112.42 210.57 112.847C210.332 113.267 210.21 113.736 210.204 114.253V116.392C210.204 117.04 210.323 117.599 210.562 118.071C210.806 118.543 211.15 118.906 211.593 119.162C212.036 119.418 212.562 119.545 213.17 119.545C213.573 119.545 213.942 119.489 214.278 119.375C214.613 119.261 214.9 119.091 215.138 118.864C215.377 118.636 215.559 118.358 215.684 118.028L219.042 118.25C218.871 119.057 218.522 119.761 217.994 120.364C217.471 120.96 216.795 121.426 215.965 121.761C215.141 122.091 214.19 122.256 213.11 122.256ZM224.619 114.432V122H220.988V108.909H224.448V111.219H224.602C224.891 110.457 225.377 109.855 226.059 109.412C226.741 108.963 227.567 108.739 228.539 108.739C229.448 108.739 230.241 108.938 230.917 109.335C231.593 109.733 232.119 110.301 232.494 111.04C232.869 111.773 233.056 112.648 233.056 113.665V122H229.425V114.312C229.431 113.511 229.227 112.886 228.812 112.438C228.397 111.983 227.826 111.756 227.099 111.756C226.61 111.756 226.178 111.861 225.803 112.071C225.434 112.281 225.144 112.588 224.934 112.991C224.729 113.389 224.624 113.869 224.619 114.432ZM242.381 108.909V111.636H234.497V108.909H242.381ZM236.287 105.773H239.918V117.977C239.918 118.312 239.969 118.574 240.071 118.761C240.173 118.943 240.315 119.071 240.497 119.145C240.685 119.219 240.901 119.256 241.145 119.256C241.315 119.256 241.486 119.241 241.656 119.213C241.827 119.179 241.957 119.153 242.048 119.136L242.619 121.838C242.438 121.895 242.182 121.96 241.852 122.034C241.523 122.114 241.122 122.162 240.651 122.179C239.776 122.213 239.009 122.097 238.349 121.83C237.696 121.562 237.188 121.148 236.824 120.585C236.46 120.023 236.281 119.312 236.287 118.455V105.773ZM25.517 146V128.545H37.0739V131.588H29.2074V135.747H36.3068V138.79H29.2074V146H25.517ZM43.9418 146.256C42.6179 146.256 41.473 145.974 40.5071 145.412C39.5469 144.844 38.8054 144.054 38.2827 143.043C37.7599 142.026 37.4986 140.847 37.4986 139.506C37.4986 138.153 37.7599 136.972 38.2827 135.96C38.8054 134.943 39.5469 134.153 40.5071 133.591C41.473 133.023 42.6179 132.739 43.9418 132.739C45.2656 132.739 46.4077 133.023 47.3679 133.591C48.3338 134.153 49.0781 134.943 49.6009 135.96C50.1236 136.972 50.3849 138.153 50.3849 139.506C50.3849 140.847 50.1236 142.026 49.6009 143.043C49.0781 144.054 48.3338 144.844 47.3679 145.412C46.4077 145.974 45.2656 146.256 43.9418 146.256ZM43.9588 143.443C44.5611 143.443 45.0639 143.273 45.4673 142.932C45.8707 142.585 46.1747 142.114 46.3793 141.517C46.5895 140.92 46.6946 140.241 46.6946 139.48C46.6946 138.719 46.5895 138.04 46.3793 137.443C46.1747 136.847 45.8707 136.375 45.4673 136.028C45.0639 135.682 44.5611 135.509 43.9588 135.509C43.3509 135.509 42.8395 135.682 42.4247 136.028C42.0156 136.375 41.706 136.847 41.4957 137.443C41.2912 138.04 41.1889 138.719 41.1889 139.48C41.1889 140.241 41.2912 140.92 41.4957 141.517C41.706 142.114 42.0156 142.585 42.4247 142.932C42.8395 143.273 43.3509 143.443 43.9588 143.443ZM52.2457 146V132.909H55.7656V135.193H55.902C56.1406 134.381 56.5412 133.767 57.1037 133.352C57.6662 132.932 58.3139 132.722 59.0469 132.722C59.2287 132.722 59.4247 132.733 59.6349 132.756C59.8452 132.778 60.0298 132.81 60.1889 132.849V136.071C60.0185 136.02 59.7827 135.974 59.4815 135.935C59.1804 135.895 58.9048 135.875 58.6548 135.875C58.1207 135.875 57.6435 135.991 57.223 136.224C56.8082 136.452 56.4787 136.77 56.2344 137.179C55.9957 137.588 55.8764 138.06 55.8764 138.594V146H52.2457ZM61.5661 146V132.909H65.0263V135.219H65.1797C65.4524 134.452 65.907 133.847 66.5433 133.403C67.1797 132.96 67.9411 132.739 68.8274 132.739C69.7251 132.739 70.4893 132.963 71.12 133.412C71.7507 133.855 72.1712 134.457 72.3814 135.219H72.5178C72.7848 134.469 73.2678 133.869 73.9666 133.42C74.6712 132.966 75.5036 132.739 76.4638 132.739C77.6854 132.739 78.6768 133.128 79.4382 133.906C80.2053 134.679 80.5888 135.776 80.5888 137.196V146H76.9666V137.912C76.9666 137.185 76.7734 136.639 76.3871 136.276C76.0007 135.912 75.5178 135.73 74.9382 135.73C74.2791 135.73 73.7649 135.94 73.3956 136.361C73.0263 136.776 72.8416 137.324 72.8416 138.006V146H69.3217V137.835C69.3217 137.193 69.1371 136.682 68.7678 136.301C68.4041 135.92 67.924 135.73 67.3274 135.73C66.924 135.73 66.5604 135.832 66.2365 136.037C65.9183 136.236 65.6655 136.517 65.478 136.881C65.2905 137.239 65.1967 137.659 65.1967 138.142V146H61.5661Z" fill="#484343"/>
<g opacity="0.4">
<path d="M246.207 -6.30298C242.22 -16.2649 222.495 -21.1843 225.75 -1.34921C226.284 1.90308 226.337 7.50323 225.75 14.3198C225.212 20.5641 214.678 23.9808 211.444 32.0492C206.373 44.7027 225.334 53.5224 222.316 60.1741C218.365 68.8863 206.264 72.6663 199.57 77.4327C193.269 81.9197 189.256 89.1194 187.715 96.5214C185.011 109.507 189.918 123.116 203.433 123.793C210.199 124.132 219.122 121.231 230.328 113.388C235.338 109.881 239.756 106.992 243.682 104.655C253.788 98.6409 251.071 112.867 263.088 113.388C269.935 113.685 277.086 101.404 282.5 107.955C286.349 112.613 290.767 118.264 297.075 124.075C308.154 134.279 322.005 135.782 323.964 121.218C324.889 114.343 323.164 103.888 317.246 89.0785C313.459 79.6011 322.879 79.9352 323.964 67.7904C325.05 55.6455 316.174 50.0447 322.599 45.0181L322.728 44.9174C327.625 41.0866 332.848 37.0008 335.7 29.1532C338.157 22.3933 337.923 15.698 335.7 10.5534C333.322 5.04754 328.667 1.3177 322.599 1.18539C316.511 1.05264 309 4.54175 300.938 13.4927C295.622 19.3942 292.023 5.66229 282.5 7.06602C272.977 8.46976 271.654 21.7194 265.949 17.8765C256.039 11.201 250.877 5.36421 246.207 -6.30298Z" stroke="white" stroke-width="0.683891"/>
<path d="M265.442 48.0375C264.835 46.5082 262.007 46.9096 261.864 48.567C261.701 50.4542 262.694 52.9133 262.579 54.8049C262.358 58.4572 261.014 59.4969 258.339 61.4219C257.38 62.1107 256.769 63.216 256.535 64.3523C256.123 66.3459 256.87 68.4351 258.927 68.539C259.956 68.591 261.314 68.1456 263.02 66.9416C263.782 66.4033 264.454 65.9597 265.052 65.601C267.653 63.9144 270.074 65.2359 270.959 66.1075C271.545 66.8226 272.218 67.6902 273.178 68.5822C274.864 70.1488 277.417 69.9435 277.27 68.1437C277.062 65.601 272.541 56.1097 277.27 54.4547C279.466 53.686 279.394 51.9446 279.056 51.1548C278.694 50.3095 277.985 49.737 277.062 49.7166C276.135 49.6963 274.6 51.1548 273.765 51.606C270.683 53.2718 267.932 54.1329 265.442 48.0375Z" stroke="white" stroke-width="0.683891"/>
<path d="M229.048 2.99059C226.159 -15.0662 244.184 -10.565 247.84 -1.4325C252.315 9.73251 257.263 14.9653 266.559 20.8884C271.788 24.3644 273.046 12.2666 281.766 10.9517C290.485 9.63675 293.816 22.0979 298.695 16.7295C306.114 8.58757 313.013 5.46478 318.585 5.66183C324.122 5.81784 328.367 9.26841 330.511 14.3346C332.514 19.0722 332.679 25.2202 330.343 31.4052C327.295 38.757 322.894 43.3331 318.423 47.0746C312.584 51.729 320.605 56.87 319.542 67.9269C318.478 78.9838 309.811 78.6491 313.18 87.2011C318.477 100.595 319.986 110.029 319.091 116.219C317.268 129.43 304.59 128.013 294.415 118.709C288.581 113.402 284.447 108.268 280.826 104.106C275.846 98.1782 269.278 109.392 262.979 109.17C251.967 108.75 254.37 95.8446 245.113 101.339C241.478 103.488 237.404 106.126 232.799 109.314C222.416 116.44 214.229 118.892 208.111 118.404C195.824 117.736 191.379 105.304 193.866 93.4438C195.296 86.6638 198.984 80.0729 204.76 75.9594C211.094 71.4492 222.226 67.9162 225.842 59.6602C228.593 53.523 211.321 45.4006 215.915 33.7901C218.838 26.3512 228.404 23.1446 228.901 17.3782C229.442 11.1016 229.461 5.96008 229.048 2.99059Z" stroke="white" stroke-width="0.683891"/>
<path d="M232.494 7.51251C229.975 -8.70684 246.275 -4.63865 249.593 3.63443C253.868 14.2595 258.593 18.8712 267.263 24.0229C272.008 27.1207 273.199 16.2144 281.103 14.9927C289.006 13.771 292.064 24.9205 296.498 20.1029C303.264 12.7967 309.54 10.0503 314.589 10.3109C319.586 10.49 323.414 13.6499 325.322 18.2597C327.102 22.5745 327.197 28.1552 324.987 33.7449C321.772 40.5077 318.265 45.5547 314.264 49.1648C309.02 53.4317 316.174 58.0959 315.135 68.0285C314.095 77.9611 306.193 77.6271 309.139 85.2258C313.808 97.1597 315.098 105.542 314.234 111.027C312.55 122.842 301.064 121.517 291.808 113.142C286.455 108.356 282.612 103.757 279.225 100.104C274.686 94.8193 268.711 104.929 262.968 104.783C252.978 104.465 255.063 92.9222 246.668 97.8796C243.331 99.8338 239.607 102.211 235.413 105.07C225.868 111.456 218.429 113.45 212.967 112.814C201.927 112.159 197.95 100.945 200.217 90.2489C201.533 84.1132 204.889 78.1528 210.133 74.4264C216.098 70.1875 226.246 66.9134 229.52 59.1413C232 53.5388 216.442 46.1405 220.554 35.6112C223.161 28.8265 231.745 25.8407 232.2 20.5714C232.694 14.8555 232.785 10.1894 232.494 7.51251Z" stroke="white" stroke-width="0.683891"/>
<path d="M235.791 11.8525C233.639 -2.58851 248.238 1.06147 251.224 8.50512C255.305 18.6278 259.815 22.6355 267.873 27.0349C272.141 29.7657 273.267 20.0113 280.366 18.8784C287.466 17.7456 290.255 27.6243 294.253 23.3398C300.376 16.8426 306.039 14.4626 310.571 14.7874C315.036 14.9902 318.454 17.8708 320.128 22.041C321.688 25.9486 321.713 30.9821 319.624 35.9968C316.238 42.195 313.62 47.7294 310.084 51.2207C305.425 55.1155 311.724 59.3198 310.707 68.1644C309.69 77.009 302.541 76.6744 305.068 83.3478C309.116 93.8656 310.189 101.226 309.355 106.028C307.808 116.49 297.495 115.25 289.143 107.775C284.265 103.493 280.706 99.4113 277.547 96.2552C273.442 91.5932 268.05 100.635 262.856 100.565C253.872 100.349 255.642 90.1254 248.097 94.5634C245.051 96.3299 241.671 98.4558 237.882 100.996C229.16 106.666 222.458 108.209 217.644 107.424C207.834 106.779 204.318 96.741 206.37 87.1708C207.574 81.6571 210.604 76.3056 215.324 72.9528C220.928 68.9701 230.107 65.9431 233.045 58.6272C235.258 53.5394 221.391 46.8383 225.025 37.3521C227.322 31.197 234.936 28.4213 235.35 23.63C235.798 18.4541 235.961 14.2467 235.791 11.8525Z" stroke="white" stroke-width="0.683891"/>
<path d="M239.235 16.1923C237.454 3.53015 250.326 6.76183 252.975 13.3759C256.854 22.9971 261.142 26.4003 268.573 30.047C272.357 32.4107 273.415 23.8084 279.698 22.7644C285.982 21.7203 288.497 30.3277 292.05 26.5765C297.52 20.8887 302.56 18.8752 306.568 19.2645C310.493 19.491 313.495 22.0923 314.931 25.8227C316.268 29.3233 316.224 33.8095 314.261 38.2491C310.709 43.8827 308.985 49.9063 305.919 53.2792C301.854 56.8019 307.287 60.5462 306.294 68.3025C305.3 76.0588 298.917 75.7235 301.022 81.4712C304.441 90.5723 305.295 96.9115 304.493 101.028C303.084 110.137 293.964 108.983 286.531 102.408C282.136 98.6289 278.866 95.0658 275.942 92.4062C272.278 88.3675 267.48 96.3415 262.843 96.3466C254.881 96.232 256.332 87.3294 249.65 91.248C246.902 92.8268 243.872 94.7009 240.495 96.9226C232.611 101.875 226.658 102.968 222.5 102.034C213.937 101.398 210.89 92.537 212.721 84.0927C213.812 79.2012 216.51 74.4586 220.697 71.4795C225.932 67.7527 234.125 64.9728 236.722 58.1127C238.664 53.5394 226.511 47.5356 229.663 39.0927C231.644 33.5672 238.276 31.0015 238.648 26.6882C239.048 22.0523 239.284 18.3036 239.235 16.1923Z" stroke="white" stroke-width="0.683891"/>
<path d="M242.678 20.7368C241.267 9.88172 252.412 12.6879 254.724 18.4576C258.401 27.5554 262.465 30.3467 269.268 33.2325C272.569 35.2239 273.559 27.7929 279.026 26.8401C284.492 25.8872 286.734 33.2041 289.843 29.9946C294.658 25.1288 299.075 23.4863 302.559 23.939C305.945 24.1888 308.529 26.505 309.729 29.7873C310.843 32.8729 310.73 36.8017 308.891 40.6564C305.175 45.7128 304.344 52.2115 301.748 55.4584C298.278 58.6011 302.844 61.877 301.875 68.5277C300.906 75.1783 295.289 74.8432 296.971 79.6522C299.761 87.3165 300.397 92.62 299.626 96.0423C298.357 103.778 290.429 102.713 283.916 97.0524C280.003 93.785 277.025 90.748 274.335 88.5907C271.112 85.1844 266.907 92.0727 262.828 92.1532C255.888 92.1403 257.022 84.5782 251.202 87.9686C248.752 89.3561 246.072 90.9742 243.107 92.8722C236.063 97.0968 230.858 97.7367 227.356 96.6548C220.041 96.0303 217.461 88.3664 219.073 81.0668C220.05 76.8084 222.417 72.6854 226.07 70.0866C230.934 66.6242 238.142 64.0976 240.398 57.7088C242.069 53.6604 231.631 48.3674 234.299 40.9866C235.965 36.103 241.614 33.7531 241.945 29.9276C242.298 25.8421 242.606 22.5604 242.678 20.7368Z" stroke="white" stroke-width="0.683891"/>
<path d="M245.972 25.0766C244.928 16.0013 254.369 18.389 256.348 23.3289C259.831 31.926 263.681 34.1125 269.87 36.2448C272.693 37.8689 273.618 31.5905 278.28 30.7264C282.941 29.8623 284.914 35.9072 287.585 33.2313C291.756 29.1753 295.559 27.8996 298.526 28.4169C301.378 28.6906 303.551 30.7275 304.516 33.5699C305.41 36.2482 305.227 39.6297 303.51 42.909C299.622 47.4008 299.682 54.3908 297.551 57.5197C294.669 60.2902 298.378 63.1061 297.431 68.6678C296.484 74.2295 291.621 73.8937 292.883 77.7764C295.051 84.023 295.469 88.3042 294.729 91.0412C293.596 97.4228 286.845 96.4436 281.237 91.6836C277.799 88.9199 275.105 86.4013 272.644 84.7409C269.856 81.9584 266.236 87.7784 262.705 87.9345C256.774 88.0232 257.592 81.7825 252.623 84.6532C250.466 85.853 248.13 87.2191 245.57 88.7983C239.351 92.3055 234.885 92.4943 232.032 91.2622C225.948 90.6474 223.831 84.161 225.226 77.9878C226.092 74.3518 228.131 70.838 231.259 68.6129C235.763 65.4063 242.001 63.1266 243.92 57.1932C245.323 53.6594 236.579 49.0639 238.769 42.7267C240.123 38.4729 244.802 36.3329 245.091 32.9854C245.397 29.4401 245.778 26.6173 245.972 25.0766Z" stroke="white" stroke-width="0.683891"/>
<path d="M249.411 29.4152C248.737 22.1211 256.449 24.09 258.091 28.1996C261.37 36.2979 264.994 37.8787 270.553 39.2563C272.891 40.5127 273.749 35.3878 277.592 34.6124C281.436 33.8369 283.135 38.6087 285.36 36.4667C288.876 33.2211 292.055 32.3128 294.497 32.8951C296.81 33.1928 298.566 34.9504 299.294 37.3528C299.965 39.6238 299.713 42.4576 298.122 45.1612C294.072 49.0887 295.023 56.5736 293.362 59.5854C291.075 61.9838 293.917 64.3394 292.995 68.8113C292.072 73.2833 287.977 72.9467 288.817 75.9019C290.356 80.7295 290.556 83.9873 289.848 86.0381C288.855 91.0644 283.297 90.1711 278.61 86.312C275.657 84.0524 273.254 82.0526 271.029 80.8898C268.682 78.7317 265.656 83.4827 262.684 83.7147C257.776 83.9052 258.277 78.9872 254.172 81.3378C252.313 82.3498 250.328 83.4639 248.181 84.7239C242.802 87.5133 239.086 87.2496 236.889 85.8667C232.054 85.2612 230.405 79.9531 231.579 74.9071C232.331 71.8937 234.039 68.9895 236.633 67.1384C240.765 64.1871 246.015 62.1542 247.592 56.6751C248.724 53.6561 241.696 49.7582 243.403 44.4651C244.442 40.8411 248.137 38.9108 248.384 36.0415C248.643 33.0365 249.096 30.6726 249.411 29.4152Z" stroke="white" stroke-width="0.683891"/>
<path d="M252.753 33.7544C252.447 28.2437 258.472 29.7936 259.784 33.0722C262.879 40.6743 266.299 41.6481 271.26 42.2691C273.126 43.1572 273.92 39.1869 276.967 38.5001C280.014 37.8133 281.448 41.3099 283.241 39.7028C286.121 37.2687 288.693 36.7284 290.624 37.3763C292.408 37.6982 293.756 39.1765 294.251 41.1387C294.703 43.0021 294.38 45.2878 292.906 47.4153C288.669 50.7785 290.519 58.7642 289.321 61.66C287.616 63.6863 289.606 65.5812 288.703 68.962C287.8 72.3428 284.449 72.0052 284.87 74.0313C285.789 77.4375 285.771 79.67 285.091 81.0334C284.231 84.7024 279.837 83.8946 276.046 80.9376C273.56 79.1827 271.435 77.7025 269.433 77.0383C267.515 75.5057 265.067 79.1865 262.637 79.4947C258.726 79.7877 258.911 76.1942 255.648 78.0243L255.559 78.0713C254.014 78.8811 252.399 79.7279 250.685 80.6505C246.118 82.7209 243.131 82.0031 241.58 80.468C237.966 79.8717 236.778 75.7431 237.738 71.8255C238.38 69.4354 239.764 67.1412 241.839 65.6645C245.622 62.9677 249.914 61.1814 251.158 56.1553C252.025 53.6513 246.676 50.4514 247.908 46.2031C248.637 43.2092 251.369 41.4883 251.575 39.0973C251.788 36.6328 252.315 34.7283 252.753 33.7544Z" stroke="white" stroke-width="0.683891"/>
<path d="M256.184 38.3044C256.247 34.6015 260.538 35.7253 261.511 38.1585C264.398 45.2299 267.588 45.5926 271.913 45.4546C273.292 45.9705 274.018 43.1725 276.244 42.5773C278.471 41.9822 279.629 44.1884 280.975 43.1231C283.197 41.5112 285.143 41.3413 286.547 42.0517C287.789 42.3964 288.72 43.5887 288.977 45.102C289.206 46.5496 288.814 48.2771 287.468 49.819C283.076 52.6029 285.813 61.0526 285.085 63.8194C283.977 65.4645 285.099 66.8904 284.222 69.1651C283.345 71.4399 280.764 71.1028 280.763 72.1911C281.054 74.1611 280.818 75.3586 280.17 76.0287C279.452 78.3243 276.256 77.6059 273.389 75.5639C271.389 74.3213 269.558 73.3672 267.794 73.2045C266.32 72.304 264.469 74.8984 262.6 75.2814C259.716 75.6754 259.584 73.4222 257.188 74.7236C255.916 75.356 254.624 75.9616 253.292 76.5784C249.57 77.9208 247.336 76.7524 246.442 75.0722C244.08 74.4877 243.36 71.5569 244.099 68.7849C244.626 67.0287 245.678 65.3548 247.216 64.2588C250.623 61.8288 253.923 60.297 254.823 55.7467C255.419 53.7687 251.791 51.2811 252.538 48.0965C252.952 45.746 254.698 44.2422 254.862 42.3402C255.028 40.4272 255.626 38.9905 256.184 38.3044Z" stroke="white" stroke-width="0.683891"/>
<path d="M259.665 42.6496C260.096 40.7414 262.666 41.4429 263.304 43.038C265.988 49.5947 268.953 49.349 272.65 48.4539C273.547 48.5999 274.205 46.9648 275.618 46.4598C277.03 45.9549 277.915 46.8791 278.818 46.3518C280.389 45.5563 281.713 45.7554 282.595 46.5296C283.299 46.8977 283.815 47.8074 283.836 48.8761C283.843 49.9121 283.383 51.0866 282.163 52.0478C277.611 54.2598 281.233 63.1894 280.974 65.8331C280.457 67.1015 280.717 68.0627 279.865 69.2394C279.012 70.4161 277.195 70.0789 276.774 70.2343C276.44 70.7764 275.986 70.9446 275.371 70.9249C274.791 71.856 272.783 71.225 270.833 70.0913C269.315 69.357 267.775 68.9254 266.245 69.2623C265.211 68.9902 263.952 70.5067 262.638 70.9651C260.773 71.4605 260.325 70.539 258.789 71.316C257.814 71.7587 256.871 72.1101 255.949 72.4054C253.065 73.0247 251.578 71.4048 251.337 69.5764C250.216 69.0026 249.963 67.26 250.482 65.6245C250.896 64.4967 251.616 63.4377 252.624 62.7192C255.659 60.5502 257.977 59.2691 258.537 55.1838C258.863 53.7263 256.942 51.9437 257.209 49.8131C257.309 48.0993 258.077 46.8089 258.199 45.3904C258.318 44.0235 258.987 43.0502 259.665 42.6496Z" stroke="white" stroke-width="0.683891"/>
</g>
</g>
<defs>
<clipPath id="clip0_328_884">
<rect width="305" height="178" rx="16" fill="white"/>
</clipPath>
</defs>
</svg>
