<?xml version="1.0" encoding="UTF-8"?>
<svg id="Layer_2" data-name="Layer 2" xmlns="http://www.w3.org/2000/svg" xmlns:xlink="http://www.w3.org/1999/xlink" viewBox="0 0 1353.65 486.86">
  <defs>
    <style>
      .cls-1 {
        clip-path: url(#clippath);
      }

      .cls-2 {
        fill: none;
      }

      .cls-2, .cls-3, .cls-4, .cls-5, .cls-6, .cls-7 {
        stroke-width: 0px;
      }

      .cls-3 {
        fill: #113028;
      }

      .cls-4 {
        fill: #d80909;
      }

      .cls-5 {
        fill: #30b01d;
      }

      .cls-6 {
        fill: #fff;
      }

      .cls-7 {
        fill: #001916;
      }
    </style>
    <clipPath id="clippath">
      <path class="cls-2" d="M536.9,276.47c-.44-.79-.9-1.57-1.38-2.37-11.41-18.96-30.04-34.02-53.89-43.56-6.89-2.76-10.91-5.7-12.64-9.27-1.6-3.3-1.5-7.69-1.39-12.34.03-1.25.06-2.48.06-3.71,0-20.8,14.33-67.8,1.13-92.11-7.48-13.77-88.9-126.4-176.4-111.81-86.06,14.34-117.12,74.58-133.69,72.92-48.61-4.86-67.68,72.64-69.26,72.82-6.65.76-13.61,2.51-20.7,5.19-12.04,4.56-23.27,11.48-33.39,20.58-7.83,7.04-14.62,15.08-20.21,23.9-1.76,2.76-3.4,5.66-4.9,8.59C2.08,221.36-1.31,238.68.46,255.41c4.73,44.9,47.13,82.7,93.47,84.07,1.69,2.76,4.43,7.53,6.25,10.71,3.19,5.56,4.36,7.58,5.06,8.5,6.66,8.82,14.43,16.91,23.09,24.03,47.7,39.17,106.95,35.83,148.28,26.14,3.55-.82,7.11-.39,10.02,1.24,12.4,6.94,34.06,23.26,39.71,54.6,2.33,12.85,13.28,22.18,26.05,22.18h3.24c14.56,0,26.41-11.85,26.41-26.41v-.63c0-7.48,5.83-13.6,13.28-13.92,8.92-.39,18.79-1.11,24.58-1.54,2.22-.16,3.81-.28,4.47-.31,25.02-1.22,48.95-8.9,69.18-22.22,59.45-39.13,66.71-104.09,43.35-145.36Z"/>
    </clipPath>
  </defs>
  <g id="Layer_1-2" data-name="Layer 1">
    <g>
      <g>
        <path class="cls-5" d="M536.9,276.47c-.44-.79-.9-1.57-1.38-2.37-11.41-18.96-30.04-34.02-53.89-43.56-6.89-2.76-10.91-5.7-12.64-9.27-1.6-3.3-1.5-7.69-1.39-12.34.03-1.25.06-2.48.06-3.71,0-20.8-9.15-41.52-24.51-55.42-16.87-15.27-44.64-22.21-69.1-17.26l-2.77.59c-4.28.94-8.33,1.84-11.58.9-4.14-1.18-6.97-5.08-10.24-9.59-1.64-2.27-3.34-4.61-5.34-6.76-5.38-5.76-11.71-10.56-18.83-14.27-27.95-14.56-68.9-10.39-95.24,9.7-7.83,5.98-11.35,8-17.39,5.56-2.86-1.15-5.62-2.94-8.53-4.83-1.79-1.16-3.58-2.32-5.43-3.37-13.08-7.46-29.64-9.87-45.4-6.61-21.44,4.44-39.36,17.06-47.94,33.78l-1.1,2.23c-.97,2.02-1.9,3.93-3.05,5.26-1.18,1.36-2.95,1.54-6.98,1.64-1.6.04-3.2.09-4.77.27-6.65.76-13.61,2.51-20.7,5.19-12.04,4.56-23.27,11.48-33.39,20.58-7.83,7.04-14.62,15.08-20.21,23.9-1.76,2.76-3.4,5.66-4.9,8.59C2.08,221.36-1.31,238.68.46,255.41c4.73,44.9,47.13,82.7,93.47,84.07,1.69,2.76,4.43,7.53,6.25,10.71,3.19,5.56,4.36,7.58,5.06,8.5,6.66,8.82,14.43,16.91,23.09,24.03,47.7,39.17,106.95,35.83,148.28,26.14,3.55-.82,7.11-.39,10.02,1.24,12.4,6.94,34.06,23.26,39.71,54.6,2.33,12.85,13.28,22.18,26.05,22.18h3.24c14.56,0,26.41-11.85,26.41-26.41v-.63c0-7.48,5.83-13.6,13.28-13.92,8.92-.39,18.79-1.11,24.58-1.54,2.22-.16,3.81-.28,4.47-.31,25.02-1.22,48.95-8.9,69.18-22.22,59.45-39.13,66.71-104.09,43.35-145.36Z"/>
        <path class="cls-6" d="M256.58,206.58c-5.21,4.51-11.74,6.97-17.48,10.73-4.88,3.2-9.42,7.94-10.68,13.64-1.26-5.7-5.8-10.44-10.68-13.64-5.73-3.76-12.26-6.22-17.47-10.73-6.06-5.25-9.97-13.45-9.31-21.64.67-8.19,6.38-15.95,14.05-17.8,7.94-1.91,16.29,2.56,21.56,9.04.65.8,1.26,1.63,1.85,2.47.58-.85,1.19-1.68,1.84-2.47,5.28-6.48,13.62-10.95,21.56-9.04,7.68,1.84,13.39,9.6,14.06,17.8.67,8.19-3.24,16.39-9.31,21.64Z"/>
        <g class="cls-1">
          <g>
            <path class="cls-6" d="M370.55,275.02c-.25-16.37-3.57-32.29-10.15-47.41-6.02-13.83-14.14-26.37-23.28-38.27-1.2-1.57-2.78-2.81-4.57-3.64,20.87,43.09,18.36,85.34-3.8,127.46-18.34-13.66-38.47-22.45-59.91-28.31-21.36-5.84-43.15-8.86-65.29-9.5,5.69,2.19,11.51,3.82,17.21,5.82,35.42,12.42,65.65,32.47,89.71,61.46.83,1,1.01,2.77.41,3.91-5.21,9.93-10.81,19.65-15.93,29.62-15.65,30.44-26,62.1-23.71,97.07,0,0,2.71,31.05,11.5,51.71-3.07-20.6,4.18-44.05,4.18-44.05,4.81-20.45,12.88-39.69,22.88-58.09,9.27-17.07,19.49-33.63,28.51-50.82,7.96-15.18,15.33-30.73,22.07-46.49,6.85-16.02,10.46-33.03,10.19-50.49Z"/>
            <path class="cls-6" d="M368.4,379.17c-1.26-13.13-4.47-25.61-8.4-38.03-1.02-3.2-2.49-6.25-4.02-9.59l-22.77,42.79c2.95,10.81,6.56,21.5,8.46,32.5,2.2,12.77,3.13,25.85,3.58,38.84.42,11.99.07,24.1-.99,36.08-.88,9.75-2.44,19.45-3.95,29.15-.95,6.11-1.51,12.27-1.68,18.44v.04c.26-.66.48-1.31.77-1.95,11.29-25.48,19.85-51.85,25.05-79.23,4.33-22.81,6.15-45.73,3.96-69.05Z"/>
            <path class="cls-6" d="M314.59,282.73c12.98-2.08,22.07-14.75,20.12-28.06-1.92-13.12-14.77-22.41-28.18-20.39-13.03,1.96-22.49,14.74-20.55,27.76,2.03,13.61,14.87,22.89,28.61,20.68Z"/>
          </g>
          <path class="cls-3" d="M467.64,462.85h-12.15V173.44c0-81.7-66.47-148.17-148.17-148.17s-148.17,66.47-148.17,148.17v262.11h-12.15V173.44c0-88.4,71.92-160.32,160.32-160.32s160.32,71.92,160.32,160.32v289.41Z"/>
        </g>
        <path class="cls-4" d="M397.13,405.56l-5.93-8.37c13.33-10.92,19.99-20.22,19.99-27.89,0-3.41-1.16-6.82-3.49-10.23-6.66-3.18-9.99-7.75-9.99-13.71,0-4.11,1.59-7.5,4.76-10.17,3.18-2.67,7.17-4.01,11.97-4.01,4.26,0,8.08,1.86,11.45,5.58,3.37,3.72,5.06,8.06,5.06,13.02,0,10.3-2.15,19.58-6.45,27.83-4.3,8.25-13.42,17.57-27.37,27.95ZM412.23,275.72c4.8,0,8.91,1.7,12.32,5.11,3.41,3.41,5.11,7.52,5.11,12.32s-1.7,8.93-5.11,12.38c-3.41,3.45-7.52,5.17-12.32,5.17s-8.91-1.72-12.32-5.17c-3.41-3.45-5.11-7.57-5.11-12.38s1.7-8.91,5.11-12.32c3.41-3.41,7.52-5.11,12.32-5.11Z"/>
      </g>
      <g>
        <path class="cls-7" d="M667.38,247.31l37.38-104.3h16.24l37.38,104.3h-14.7l-8.54-24.5h-44.52l-8.54,24.5h-14.7ZM694.96,210.21h35.84l-19.88-57.26h3.92l-19.88,57.26Z"/>
        <path class="cls-7" d="M768.6,247.31v-75.46h12.74v13.86l-1.4-1.96c1.77-4.29,4.48-7.49,8.12-9.59,3.64-2.1,8.07-3.15,13.3-3.15h4.62v12.32h-6.58c-5.32,0-9.61,1.66-12.88,4.97-3.27,3.31-4.9,8-4.9,14.07v44.94h-13.02Z"/>
        <path class="cls-7" d="M850.92,248.99c-7.28,0-13.77-1.73-19.46-5.18-5.69-3.45-10.17-8.19-13.44-14.21-3.27-6.02-4.9-12.76-4.9-20.23s1.61-14.28,4.83-20.16c3.22-5.88,7.61-10.52,13.16-13.93,5.55-3.41,11.78-5.11,18.69-5.11,5.6,0,10.57,1,14.91,3.01,4.34,2.01,8.03,4.71,11.06,8.12,3.03,3.41,5.37,7.28,7,11.62,1.63,4.34,2.45,8.84,2.45,13.51,0,1.03-.07,2.17-.21,3.43-.14,1.26-.3,2.45-.49,3.57h-61.88v-11.2h54.32l-6.16,5.04c.84-4.85.37-9.19-1.4-13.02-1.77-3.83-4.39-6.86-7.84-9.1-3.45-2.24-7.37-3.36-11.76-3.36s-8.4,1.12-12.04,3.36c-3.64,2.24-6.46,5.44-8.47,9.59-2.01,4.15-2.82,9.08-2.45,14.77-.37,5.51.49,10.34,2.59,14.49,2.1,4.15,5.09,7.37,8.96,9.66,3.87,2.29,8.1,3.43,12.67,3.43,5.04,0,9.29-1.17,12.74-3.5,3.45-2.33,6.25-5.32,8.4-8.96l10.92,5.6c-1.49,3.45-3.8,6.6-6.93,9.45-3.13,2.85-6.81,5.11-11.06,6.79-4.25,1.68-8.98,2.52-14.21,2.52ZM825.02,157.71l16.66-21.7h14.98l16.8,21.7h-14.28l-9.94-12.74-9.94,12.74h-14.28Z"/>
        <path class="cls-7" d="M931.42,248.15c-7.37,0-13.04-2.1-17.01-6.3-3.97-4.2-5.95-10.13-5.95-17.78v-39.76h-13.72v-12.46h2.8c3.36,0,6.02-1.03,7.98-3.08,1.96-2.05,2.94-4.76,2.94-8.12v-6.16h13.02v17.36h16.94v12.46h-16.94v39.34c0,2.52.4,4.71,1.19,6.58.79,1.87,2.12,3.34,3.99,4.41,1.87,1.07,4.34,1.61,7.42,1.61.65,0,1.47-.05,2.45-.14.98-.09,1.89-.19,2.73-.28v11.48c-1.21.28-2.57.49-4.06.63-1.49.14-2.75.21-3.78.21Z"/>
        <path class="cls-7" d="M989.51,248.99c-7.28,0-13.77-1.73-19.46-5.18-5.69-3.45-10.17-8.19-13.44-14.21-3.27-6.02-4.9-12.76-4.9-20.23s1.61-14.28,4.83-20.16c3.22-5.88,7.61-10.52,13.16-13.93,5.55-3.41,11.78-5.11,18.69-5.11,5.6,0,10.57,1,14.91,3.01,4.34,2.01,8.03,4.71,11.06,8.12,3.03,3.41,5.37,7.28,7,11.62,1.63,4.34,2.45,8.84,2.45,13.51,0,1.03-.07,2.17-.21,3.43-.14,1.26-.3,2.45-.49,3.57h-61.88v-11.2h54.32l-6.16,5.04c.84-4.85.37-9.19-1.4-13.02-1.77-3.83-4.39-6.86-7.84-9.1-3.45-2.24-7.37-3.36-11.76-3.36s-8.4,1.12-12.04,3.36c-3.64,2.24-6.46,5.44-8.47,9.59-2.01,4.15-2.82,9.08-2.45,14.77-.37,5.51.49,10.34,2.59,14.49,2.1,4.15,5.09,7.37,8.96,9.66,3.87,2.29,8.1,3.43,12.67,3.43,5.04,0,9.29-1.17,12.74-3.5,3.45-2.33,6.25-5.32,8.4-8.96l10.92,5.6c-1.49,3.45-3.8,6.6-6.93,9.45-3.13,2.85-6.81,5.11-11.06,6.79-4.25,1.68-8.98,2.52-14.21,2.52Z"/>
        <path class="cls-7" d="M677.46,397.31v-104.3h36.82c6.91,0,12.97,1.31,18.2,3.92,5.23,2.61,9.31,6.35,12.25,11.2,2.94,4.85,4.41,10.55,4.41,17.08s-1.47,12.2-4.41,17.01c-2.94,4.81-7,8.54-12.18,11.2-5.18,2.66-11.27,3.99-18.27,3.99h-23.1v39.9h-13.72ZM691.18,344.81h23.52c4.2,0,7.84-.79,10.92-2.38,3.08-1.59,5.46-3.87,7.14-6.86,1.68-2.99,2.52-6.44,2.52-10.36s-.84-7.49-2.52-10.43c-1.68-2.94-4.06-5.2-7.14-6.79-3.08-1.59-6.72-2.38-10.92-2.38h-23.52v39.2Z"/>
        <path class="cls-7" d="M791.84,398.99c-7.56,0-14.14-1.87-19.74-5.6-5.6-3.73-9.57-8.77-11.9-15.12l10.36-5.04c2.15,4.48,5.09,8.03,8.82,10.64,3.73,2.61,7.89,3.92,12.46,3.92,4.11,0,7.51-.98,10.22-2.94,2.71-1.96,4.06-4.53,4.06-7.7,0-2.24-.63-4.04-1.89-5.39-1.26-1.35-2.78-2.43-4.55-3.22-1.77-.79-3.41-1.38-4.9-1.75l-11.34-3.22c-6.81-1.96-11.78-4.76-14.91-8.4-3.13-3.64-4.69-7.89-4.69-12.74,0-4.48,1.14-8.38,3.43-11.69,2.29-3.31,5.41-5.9,9.38-7.77,3.97-1.87,8.42-2.8,13.37-2.8,6.63,0,12.58,1.68,17.85,5.04,5.27,3.36,9.03,8.07,11.27,14.14l-10.64,4.9c-1.68-3.92-4.2-7.02-7.56-9.31-3.36-2.29-7.14-3.43-11.34-3.43-3.83,0-6.86.96-9.1,2.87-2.24,1.91-3.36,4.32-3.36,7.21,0,2.15.56,3.9,1.68,5.25,1.12,1.35,2.47,2.38,4.06,3.08,1.59.7,3.13,1.28,4.62,1.75l12.32,3.64c6.16,1.77,10.94,4.53,14.35,8.26,3.41,3.73,5.11,8.21,5.11,13.44,0,4.2-1.17,7.98-3.5,11.34-2.33,3.36-5.55,5.97-9.66,7.84-4.11,1.87-8.87,2.8-14.28,2.8Z"/>
        <path class="cls-7" d="M839.01,428.11c-1.68,0-3.36-.14-5.04-.42-1.68-.28-3.27-.75-4.76-1.4v-11.62c1.03.19,2.31.4,3.85.63,1.54.23,3.06.35,4.55.35,4.39,0,7.72-.96,10.01-2.87,2.29-1.91,4.46-5.2,6.51-9.87l4.76-11.34-.28,11.34-32.2-81.06h14.14l25.06,64.4h-4.2l24.92-64.4h14.42l-34.02,84.42c-1.59,4.01-3.62,7.68-6.09,10.99-2.47,3.31-5.48,5.95-9.03,7.91-3.55,1.96-7.75,2.94-12.6,2.94Z"/>
        <path class="cls-7" d="M945.97,398.99c-7.37,0-13.93-1.73-19.67-5.18-5.74-3.45-10.24-8.17-13.51-14.14-3.27-5.97-4.9-12.69-4.9-20.16s1.63-14.28,4.9-20.16c3.27-5.88,7.77-10.55,13.51-14,5.74-3.45,12.3-5.18,19.67-5.18,4.95,0,9.57.89,13.86,2.66,4.29,1.77,8.07,4.15,11.34,7.14,3.27,2.99,5.65,6.49,7.14,10.5l-11.62,5.6c-1.77-3.92-4.48-7.12-8.12-9.59-3.64-2.47-7.84-3.71-12.6-3.71s-8.7,1.17-12.39,3.5c-3.69,2.33-6.6,5.51-8.75,9.52-2.15,4.01-3.22,8.63-3.22,13.86s1.07,9.59,3.22,13.65c2.15,4.06,5.06,7.26,8.75,9.59,3.69,2.33,7.82,3.5,12.39,3.5s8.96-1.24,12.6-3.71c3.64-2.47,6.35-5.76,8.12-9.87l11.62,5.88c-1.49,3.92-3.87,7.4-7.14,10.43-3.27,3.03-7.05,5.44-11.34,7.21-4.29,1.77-8.91,2.66-13.86,2.66Z"/>
        <path class="cls-7" d="M993.99,397.31v-105.98h13.02v45.22l-2.38-1.26c1.87-4.76,4.88-8.47,9.03-11.13,4.15-2.66,9.03-3.99,14.63-3.99s10.24,1.21,14.49,3.64c4.25,2.43,7.61,5.79,10.08,10.08,2.47,4.29,3.71,9.15,3.71,14.56v48.86h-13.16v-44.66c0-4.2-.77-7.75-2.31-10.64-1.54-2.89-3.66-5.16-6.37-6.79-2.71-1.63-5.83-2.45-9.38-2.45s-6.58.82-9.38,2.45c-2.8,1.63-4.99,3.92-6.58,6.86-1.59,2.94-2.38,6.46-2.38,10.57v44.66h-13.02Z"/>
        <path class="cls-7" d="M1073.79,309.81v-16.8h13.02v16.8h-13.02ZM1073.79,397.31v-75.46h13.02v75.46h-13.02Z"/>
        <path class="cls-7" d="M1127.69,398.99c-4.95,0-9.31-.91-13.09-2.73-3.78-1.82-6.74-4.34-8.89-7.56-2.15-3.22-3.22-6.93-3.22-11.13s.86-7.63,2.59-10.85c1.73-3.22,4.43-5.95,8.12-8.19,3.69-2.24,8.33-3.83,13.93-4.76l28-4.62v10.92l-25.06,4.2c-4.85.84-8.38,2.38-10.57,4.62-2.19,2.24-3.29,4.99-3.29,8.26,0,3.08,1.24,5.65,3.71,7.7,2.47,2.05,5.58,3.08,9.31,3.08,4.76,0,8.89-1,12.39-3.01,3.5-2.01,6.25-4.74,8.26-8.19,2.01-3.45,3.01-7.28,3.01-11.48v-19.18c0-4.11-1.52-7.44-4.55-10.01-3.03-2.57-7.02-3.85-11.97-3.85-4.29,0-8.1,1.1-11.41,3.29-3.31,2.19-5.76,5.11-7.35,8.75l-11.34-5.88c1.4-3.45,3.64-6.56,6.72-9.31,3.08-2.75,6.67-4.92,10.78-6.51,4.11-1.59,8.4-2.38,12.88-2.38,5.79,0,10.87,1.1,15.26,3.29,4.39,2.19,7.82,5.23,10.29,9.1,2.47,3.87,3.71,8.38,3.71,13.51v51.24h-12.74v-14.28l2.38.84c-1.59,2.99-3.73,5.6-6.44,7.84-2.71,2.24-5.88,4.01-9.52,5.32-3.64,1.31-7.61,1.96-11.9,1.96Z"/>
        <path class="cls-7" d="M1215.33,398.15c-7.37,0-13.04-2.1-17.01-6.3-3.97-4.2-5.95-10.13-5.95-17.78v-39.76h-13.72v-12.46h2.8c3.36,0,6.02-1.03,7.98-3.08,1.96-2.05,2.94-4.76,2.94-8.12v-6.16h13.02v17.36h16.94v12.46h-16.94v39.34c0,2.52.4,4.71,1.19,6.58.79,1.87,2.12,3.34,3.99,4.41,1.87,1.07,4.34,1.61,7.42,1.61.65,0,1.47-.05,2.45-.14.98-.09,1.89-.19,2.73-.28v11.48c-1.21.28-2.57.49-4.06.63-1.49.14-2.75.21-3.78.21Z"/>
        <path class="cls-7" d="M1238.71,397.31v-75.46h12.74v13.86l-1.4-1.96c1.77-4.29,4.48-7.49,8.12-9.59,3.64-2.1,8.07-3.15,13.3-3.15h4.62v12.32h-6.58c-5.32,0-9.61,1.66-12.88,4.97-3.27,3.31-4.9,8-4.9,14.07v44.94h-13.02Z"/>
        <path class="cls-7" d="M1290.37,428.11c-1.68,0-3.36-.14-5.04-.42-1.68-.28-3.27-.75-4.76-1.4v-11.62c1.03.19,2.31.4,3.85.63,1.54.23,3.06.35,4.55.35,4.39,0,7.72-.96,10.01-2.87,2.29-1.91,4.46-5.2,6.51-9.87l4.76-11.34-.28,11.34-32.2-81.06h14.14l25.06,64.4h-4.2l24.92-64.4h14.42l-34.02,84.42c-1.59,4.01-3.62,7.68-6.09,10.99-2.47,3.31-5.48,5.95-9.03,7.91-3.55,1.96-7.75,2.94-12.6,2.94Z"/>
      </g>
    </g>
  </g>
</svg>