<svg width="205" height="36" viewBox="0 0 205 36" fill="none" xmlns="http://www.w3.org/2000/svg">
<g clip-path="url(#clip0_328_660)">
<path d="M36.1884 19.2438C36.1586 19.1909 36.1272 19.1363 36.0942 19.0834C35.3189 17.7941 34.0511 16.7693 32.4295 16.1213C31.9601 15.9345 31.6874 15.7329 31.57 15.4915C31.4609 15.2667 31.4675 14.9692 31.4758 14.6535C31.4774 14.5692 31.4807 14.4849 31.4807 14.4006C31.4807 12.9856 30.8576 11.5773 29.8146 10.6318C28.6674 9.59375 26.778 9.121 25.1152 9.45821L24.9267 9.49788C24.6358 9.56234 24.3598 9.6235 24.1383 9.55904C23.8572 9.47804 23.6639 9.21357 23.4424 8.90777C23.3316 8.75404 23.2159 8.5937 23.0787 8.44824C22.7134 8.05649 22.282 7.73086 21.7977 7.47795C19.8967 6.48782 17.1115 6.77048 15.3213 8.13749C14.7891 8.54412 14.5494 8.68131 14.1378 8.51602C13.9427 8.43833 13.756 8.31601 13.5576 8.18707C13.4353 8.10773 13.3146 8.03004 13.1873 7.95731C12.298 7.44985 11.1724 7.28621 10.0996 7.5077C8.64167 7.8102 7.42343 8.66809 6.83993 9.80533L6.76555 9.9574C6.69943 10.0946 6.63662 10.2252 6.55727 10.3161C6.47628 10.4087 6.35727 10.4202 6.08287 10.4268C5.97378 10.4302 5.86468 10.4335 5.75889 10.445C5.30598 10.4963 4.83323 10.6153 4.35056 10.7988C3.53234 11.1079 2.76867 11.579 2.08104 12.1972C1.54878 12.6765 1.08595 13.222 0.707418 13.822C0.588404 14.0105 0.476002 14.2072 0.373518 14.4072C-0.181879 15.4965 -0.411642 16.6734 -0.290975 17.8123C0.0297008 20.8653 2.91413 23.4357 6.06469 23.5283C6.1804 23.7151 6.36553 24.0407 6.4895 24.2556C6.70604 24.6341 6.78539 24.7713 6.83332 24.8341C7.28623 25.4341 7.81518 25.9846 8.40364 26.4673C11.6468 29.1302 15.6767 28.9037 18.4868 28.2442C18.7281 28.188 18.9711 28.2177 19.1678 28.3285C20.0108 28.8012 21.4836 29.9104 21.8687 32.0411C22.0274 32.9155 22.7712 33.5486 23.6407 33.5486H23.8606C24.8507 33.5486 25.6573 32.7436 25.6573 31.7518V31.7088C25.6573 31.1997 26.054 30.7848 26.5599 30.7617C27.1665 30.7352 27.8376 30.6856 28.231 30.6575C28.3814 30.646 28.4905 30.6377 28.5352 30.636C30.2361 30.5534 31.8642 30.0311 33.2395 29.1252C37.2827 26.4639 37.7752 22.0472 36.1867 19.2405L36.1884 19.2438Z" fill="#30B01D"/>
<path d="M17.1264 14.4913C16.7727 14.7988 16.328 14.9657 15.9379 15.222C15.6057 15.4402 15.2966 15.7625 15.2123 16.1493C15.1263 15.7625 14.8172 15.4402 14.4866 15.222C14.0965 14.9657 13.6518 14.7988 13.2981 14.4913C12.8865 14.1343 12.6204 13.5773 12.665 13.0202C12.7097 12.4632 13.0981 11.9359 13.6204 11.8102C14.161 11.6813 14.7279 11.9838 15.0866 12.4251C15.1313 12.4797 15.1726 12.5359 15.2123 12.5937C15.2519 12.5359 15.2932 12.4797 15.3379 12.4251C15.6966 11.9838 16.2635 11.6813 16.8041 11.8102C17.3264 11.9359 17.7148 12.4632 17.7595 13.0202C17.8041 13.5773 17.5396 14.1343 17.1264 14.4913Z" fill="white"/>
<mask id="mask0_328_660" style="mask-type:luminance" maskUnits="userSpaceOnUse" x="-1" y="0" width="39" height="34">
<path d="M36.1889 19.2437C36.1591 19.1908 36.1277 19.1362 36.0947 19.0834C35.3194 17.794 34.0516 16.7692 32.43 16.1212C31.9606 15.9344 31.6878 15.7328 31.5705 15.4915C31.4614 15.2667 31.468 14.9691 31.4763 14.6534C31.4779 14.5691 31.4812 14.4848 31.4812 14.4005C31.4812 12.9856 32.4548 9.79037 31.5589 8.1374C31.0498 7.20016 25.514 -0.45804 19.5633 0.533741C13.7101 1.50899 11.5993 5.60505 10.472 5.49265C7.16604 5.16205 5.86846 10.4317 5.76267 10.4449C5.30976 10.4962 4.83701 10.6152 4.35434 10.7987C3.53612 11.1078 2.77245 11.5789 2.08481 12.1971C1.55256 12.6764 1.08973 13.2219 0.711195 13.822C0.592181 14.0104 0.47978 14.2071 0.377295 14.4071C-0.181408 15.4964 -0.411171 16.6733 -0.290504 17.8122C0.030172 20.8653 2.9146 23.4356 6.06516 23.5282C6.18087 23.715 6.366 24.0406 6.48997 24.2555C6.70651 24.634 6.78586 24.7712 6.83379 24.834C7.28671 25.4341 7.81566 25.9845 8.40411 26.4672C11.6472 29.1301 15.6772 28.9036 18.4872 28.2441C18.7286 28.1879 18.9715 28.2177 19.1682 28.3284C20.0113 28.8012 21.4841 29.9103 21.8692 32.041C22.0279 32.9154 22.7717 33.5485 23.6412 33.5485H23.861C24.8512 33.5485 25.6578 32.7435 25.6578 31.7517V31.7087C25.6578 31.1996 26.0545 30.7847 26.5603 30.7616C27.167 30.7351 27.8381 30.6855 28.2315 30.6574C28.3819 30.6459 28.491 30.6376 28.5356 30.636C30.2365 30.5533 31.8647 30.031 33.24 29.1251C37.2831 26.4639 37.7757 22.0471 36.1872 19.2404L36.1889 19.2437Z" fill="white"/>
</mask>
<g mask="url(#mask0_328_660)">
<path d="M24.8756 19.1453C24.8591 18.0328 24.6326 16.9501 24.1847 15.922C23.7747 14.9814 23.2226 14.1285 22.6011 13.3202C22.5201 13.2144 22.4127 13.1285 22.2904 13.0723C23.7103 16.003 23.5384 18.8758 22.0325 21.7404C20.7862 20.8115 19.4159 20.2131 17.9579 19.8147C16.505 19.418 15.0239 19.2114 13.5181 19.1684C13.9049 19.3172 14.3016 19.4279 14.6884 19.5635C17.0967 20.4081 19.153 21.7718 20.7895 23.7438C20.8457 23.8116 20.8589 23.9323 20.8176 24.01C20.4638 24.6844 20.082 25.3456 19.7349 26.0233C18.6704 28.0928 17.9662 30.2466 18.1216 32.6252C18.1216 32.6252 18.3067 34.7361 18.9034 36.1411C18.6952 34.7394 19.1877 33.1459 19.1877 33.1459C19.515 31.7558 20.0638 30.4466 20.7432 29.1953C21.3746 28.0349 22.0689 26.9093 22.6821 25.739C23.2243 24.7059 23.7251 23.6496 24.183 22.5768C24.6492 21.4875 24.8938 20.3304 24.8756 19.1436V19.1453Z" fill="white"/>
<path d="M24.7301 26.2287C24.6442 25.3361 24.426 24.4881 24.1582 23.6435C24.0888 23.4253 23.9896 23.2186 23.8838 22.9922L22.335 25.9014C22.535 26.637 22.7813 27.3626 22.9102 28.1114C23.0606 28.9792 23.1234 29.8702 23.1532 30.7529C23.1813 31.5678 23.1581 32.3926 23.0854 33.2059C23.0259 33.8687 22.9201 34.5283 22.8176 35.1878C22.7532 35.6027 22.7151 36.0225 22.7036 36.4424V36.4457C22.7218 36.4011 22.7366 36.3564 22.7565 36.3135C23.5234 34.5811 24.1069 32.7877 24.459 30.9248C24.7533 29.3743 24.8772 27.8155 24.7285 26.2287H24.7301Z" fill="white"/>
<path d="M21.0705 19.6696C21.9532 19.5274 22.5714 18.6662 22.4392 17.762C22.3086 16.8694 21.4358 16.238 20.5234 16.3752C19.6374 16.5091 18.9944 17.3785 19.1266 18.2629C19.2638 19.1885 20.1383 19.82 21.0722 19.6696H21.0705Z" fill="white"/>
<path d="M31.4774 31.9192H30.6509V12.2389C30.6509 6.68329 26.1317 2.16242 20.5744 2.16242C15.0171 2.16242 10.4979 6.68164 10.4979 12.2389V30.0629H9.67139V12.2389C9.67139 6.22707 14.5625 1.33594 20.5744 1.33594C26.5862 1.33594 31.4774 6.22707 31.4774 12.2389V31.9192Z" fill="#113028"/>
</g>
<path d="M27.4128 24.3183L27.2095 24.0323C27.6657 23.6587 27.8938 23.3397 27.8938 23.0769C27.8938 22.9595 27.8541 22.8438 27.7748 22.7264C27.5467 22.6174 27.4326 22.4603 27.4326 22.257C27.4326 22.1165 27.4872 22.0008 27.5963 21.9082C27.7054 21.8157 27.8426 21.771 28.0062 21.771C28.1517 21.771 28.2823 21.8355 28.398 21.9628C28.5137 22.0901 28.5715 22.2388 28.5715 22.4091C28.5715 22.7628 28.4971 23.0802 28.35 23.3628C28.2029 23.6455 27.8905 23.9645 27.4128 24.3199V24.3183ZM27.9302 19.8701C28.0955 19.8701 28.236 19.928 28.3517 20.0453C28.469 20.1627 28.5269 20.3032 28.5269 20.4668C28.5269 20.6305 28.469 20.7726 28.3517 20.89C28.2343 21.0074 28.0938 21.0669 27.9302 21.0669C27.7665 21.0669 27.6244 21.0074 27.5087 20.89C27.393 20.7726 27.3334 20.6305 27.3334 20.4668C27.3334 20.3032 27.3913 20.161 27.5087 20.0453C27.626 19.9296 27.7665 19.8701 27.9302 19.8701Z" fill="#D80909"/>
<path d="M50.22 27L55.56 12.1H57.88L63.22 27H61.12L59.9 23.5H53.54L52.32 27H50.22ZM54.16 21.7H59.28L56.44 13.52H57L54.16 21.7ZM64.4775 27V16.22H66.2975V18.2L66.0975 17.92C66.3508 17.3067 66.7375 16.8533 67.2575 16.56C67.7775 16.2533 68.4108 16.1 69.1575 16.1H69.8175V17.86H68.8775C68.1175 17.86 67.5042 18.1 67.0375 18.58C66.5708 19.0467 66.3375 19.7133 66.3375 20.58V27H64.4775ZM76.0297 27.24C74.9897 27.24 74.063 26.9933 73.2497 26.5C72.4364 26.0067 71.7964 25.3333 71.3297 24.48C70.863 23.6133 70.6297 22.6467 70.6297 21.58C70.6297 20.5 70.8564 19.54 71.3097 18.7C71.7764 17.86 72.403 17.2 73.1897 16.72C73.9897 16.2267 74.883 15.98 75.8697 15.98C76.6697 15.98 77.3764 16.1267 77.9897 16.42C78.6164 16.7 79.143 17.0867 79.5697 17.58C80.0097 18.06 80.343 18.6133 80.5697 19.24C80.8097 19.8533 80.9297 20.4933 80.9297 21.16C80.9297 21.3067 80.9164 21.4733 80.8897 21.66C80.8764 21.8333 80.8564 22 80.8297 22.16H71.9897V20.56H79.7497L78.8697 21.28C78.9897 20.5867 78.923 19.9667 78.6697 19.42C78.4164 18.8733 78.043 18.44 77.5497 18.12C77.0564 17.8 76.4964 17.64 75.8697 17.64C75.243 17.64 74.6697 17.8 74.1497 18.12C73.6297 18.44 73.223 18.9 72.9297 19.5C72.6497 20.0867 72.5364 20.7867 72.5897 21.6C72.5364 22.3867 72.6564 23.08 72.9497 23.68C73.2564 24.2667 73.683 24.7267 74.2297 25.06C74.7897 25.38 75.3964 25.54 76.0497 25.54C76.7697 25.54 77.3764 25.3733 77.8697 25.04C78.363 24.7067 78.763 24.28 79.0697 23.76L80.6297 24.56C80.4164 25.0533 80.083 25.5067 79.6297 25.92C79.1897 26.32 78.663 26.64 78.0497 26.88C77.4497 27.12 76.7764 27.24 76.0297 27.24ZM72.3297 14.2L74.7097 11.1H76.8497L79.2497 14.2H77.2097L75.7897 12.38L74.3697 14.2H72.3297ZM87.3348 27.12C86.2815 27.12 85.4682 26.82 84.8948 26.22C84.3348 25.62 84.0548 24.7733 84.0548 23.68V18H82.0948V16.22H82.4948C82.9748 16.22 83.3548 16.0733 83.6348 15.78C83.9148 15.4867 84.0548 15.1 84.0548 14.62V13.74H85.9148V16.22H88.3348V18H85.9148V23.62C85.9148 23.98 85.9682 24.2933 86.0748 24.56C86.1948 24.8267 86.3882 25.04 86.6548 25.2C86.9215 25.3467 87.2748 25.42 87.7148 25.42C87.8082 25.42 87.9215 25.4133 88.0548 25.4C88.2015 25.3867 88.3348 25.3733 88.4548 25.36V27C88.2815 27.04 88.0882 27.0667 87.8748 27.08C87.6615 27.1067 87.4815 27.12 87.3348 27.12ZM95.1516 27.24C94.1116 27.24 93.1849 26.9933 92.3716 26.5C91.5582 26.0067 90.9182 25.3333 90.4516 24.48C89.9849 23.6133 89.7516 22.6467 89.7516 21.58C89.7516 20.5 89.9782 19.54 90.4316 18.7C90.8982 17.86 91.5249 17.2 92.3116 16.72C93.1116 16.2267 94.0049 15.98 94.9916 15.98C95.7916 15.98 96.4982 16.1267 97.1116 16.42C97.7382 16.7 98.2649 17.0867 98.6916 17.58C99.1316 18.06 99.4649 18.6133 99.6916 19.24C99.9316 19.8533 100.052 20.4933 100.052 21.16C100.052 21.3067 100.038 21.4733 100.012 21.66C99.9982 21.8333 99.9782 22 99.9516 22.16H91.1116V20.56H98.8716L97.9916 21.28C98.1116 20.5867 98.0449 19.9667 97.7916 19.42C97.5382 18.8733 97.1649 18.44 96.6716 18.12C96.1782 17.8 95.6182 17.64 94.9916 17.64C94.3649 17.64 93.7916 17.8 93.2716 18.12C92.7516 18.44 92.3449 18.9 92.0516 19.5C91.7716 20.0867 91.6582 20.7867 91.7116 21.6C91.6582 22.3867 91.7782 23.08 92.0716 23.68C92.3782 24.2667 92.8049 24.7267 93.3516 25.06C93.9116 25.38 94.5182 25.54 95.1716 25.54C95.8916 25.54 96.4982 25.3733 96.9916 25.04C97.4849 24.7067 97.8849 24.28 98.1916 23.76L99.7516 24.56C99.5382 25.0533 99.2049 25.5067 98.7516 25.92C98.3116 26.32 97.7849 26.64 97.1716 26.88C96.5716 27.12 95.8982 27.24 95.1516 27.24ZM105.354 27V12.1H110.614C111.6 12.1 112.467 12.2867 113.214 12.66C113.96 13.0333 114.54 13.5667 114.954 14.26C115.38 14.9533 115.594 15.7667 115.594 16.7C115.594 17.6333 115.38 18.4467 114.954 19.14C114.54 19.82 113.96 20.3533 113.214 20.74C112.48 21.1133 111.614 21.3 110.614 21.3H107.314V27H105.354ZM107.314 19.5H110.674C111.274 19.5 111.794 19.3867 112.234 19.16C112.674 18.9333 113.014 18.6067 113.254 18.18C113.494 17.7533 113.614 17.26 113.614 16.7C113.614 16.1267 113.494 15.6333 113.254 15.22C113.014 14.7933 112.674 14.4667 112.234 14.24C111.794 14.0133 111.274 13.9 110.674 13.9H107.314V19.5ZM121.094 27.24C120.014 27.24 119.074 26.9733 118.274 26.44C117.474 25.9067 116.907 25.1867 116.574 24.28L118.054 23.56C118.36 24.2 118.78 24.7067 119.314 25.08C119.847 25.4533 120.44 25.64 121.094 25.64C121.68 25.64 122.167 25.5 122.554 25.22C122.94 24.94 123.134 24.5733 123.134 24.12C123.134 23.8 123.04 23.5467 122.854 23.36C122.68 23.16 122.467 23.0067 122.214 22.9C121.96 22.78 121.727 22.6933 121.514 22.64L119.894 22.18C118.92 21.9 118.207 21.5 117.754 20.98C117.314 20.46 117.094 19.8533 117.094 19.16C117.094 18.52 117.254 17.9667 117.574 17.5C117.907 17.02 118.354 16.6467 118.914 16.38C119.487 16.1133 120.127 15.98 120.834 15.98C121.78 15.98 122.627 16.22 123.374 16.7C124.134 17.18 124.674 17.8533 124.994 18.72L123.474 19.42C123.234 18.86 122.874 18.42 122.394 18.1C121.914 17.7667 121.374 17.6 120.774 17.6C120.227 17.6 119.794 17.74 119.474 18.02C119.154 18.2867 118.994 18.6267 118.994 19.04C118.994 19.3467 119.074 19.6 119.234 19.8C119.394 19.9867 119.587 20.1333 119.814 20.24C120.04 20.3333 120.26 20.4133 120.474 20.48L122.234 21C123.114 21.2533 123.794 21.6467 124.274 22.18C124.767 22.7133 125.014 23.3533 125.014 24.1C125.014 24.7 124.847 25.24 124.514 25.72C124.18 26.2 123.72 26.5733 123.134 26.84C122.547 27.1067 121.867 27.24 121.094 27.24ZM127.433 31.4C127.193 31.4 126.953 31.38 126.713 31.34C126.473 31.3 126.247 31.2333 126.033 31.14V29.48C126.18 29.5067 126.36 29.5333 126.573 29.56C126.8 29.6 127.02 29.62 127.233 29.62C127.86 29.62 128.333 29.48 128.653 29.2C128.987 28.9333 129.3 28.4667 129.593 27.8L130.273 26.18L130.233 27.8L125.633 16.22H127.653L131.233 25.42H130.633L134.193 16.22H136.253L131.393 28.28C131.167 28.8533 130.873 29.3733 130.513 29.84C130.167 30.32 129.74 30.7 129.233 30.98C128.727 31.26 128.127 31.4 127.433 31.4ZM142.313 27.24C141.259 27.24 140.319 26.9933 139.493 26.5C138.679 26.0067 138.039 25.3333 137.573 24.48C137.106 23.6267 136.873 22.6667 136.873 21.6C136.873 20.52 137.106 19.56 137.573 18.72C138.039 17.88 138.679 17.2133 139.493 16.72C140.319 16.2267 141.259 15.98 142.313 15.98C143.019 15.98 143.679 16.1067 144.293 16.36C144.906 16.6133 145.446 16.9533 145.913 17.38C146.379 17.8067 146.719 18.3067 146.933 18.88L145.273 19.68C145.019 19.12 144.633 18.6667 144.113 18.32C143.593 17.96 142.993 17.78 142.313 17.78C141.659 17.78 141.066 17.9467 140.533 18.28C140.013 18.6133 139.599 19.0667 139.293 19.64C138.986 20.2133 138.833 20.8733 138.833 21.62C138.833 22.34 138.986 22.9933 139.293 23.58C139.599 24.1533 140.013 24.6067 140.533 24.94C141.066 25.2733 141.659 25.44 142.313 25.44C142.993 25.44 143.593 25.2667 144.113 24.92C144.633 24.56 145.019 24.0867 145.273 23.5L146.933 24.34C146.719 24.9 146.379 25.4 145.913 25.84C145.446 26.2667 144.906 26.6067 144.293 26.86C143.679 27.1133 143.019 27.24 142.313 27.24ZM148.963 27V11.86H150.823V18.32L150.483 18.14C150.75 17.46 151.177 16.9333 151.763 16.56C152.363 16.1733 153.063 15.98 153.863 15.98C154.637 15.98 155.323 16.1533 155.923 16.5C156.537 16.8467 157.017 17.3267 157.363 17.94C157.723 18.5533 157.903 19.2467 157.903 20.02V27H156.023V20.62C156.023 20.02 155.91 19.5133 155.683 19.1C155.47 18.6867 155.17 18.3667 154.783 18.14C154.397 17.9 153.95 17.78 153.443 17.78C152.95 17.78 152.503 17.9 152.103 18.14C151.703 18.3667 151.39 18.6933 151.163 19.12C150.937 19.5333 150.823 20.0333 150.823 20.62V27H148.963ZM160.165 27V16.22H162.025V27H160.165ZM160.165 14.5V12.1H162.025V14.5H160.165ZM167.671 27.24C166.964 27.24 166.338 27.1133 165.791 26.86C165.258 26.5933 164.838 26.2333 164.531 25.78C164.224 25.3133 164.071 24.78 164.071 24.18C164.071 23.6067 164.191 23.0933 164.431 22.64C164.684 22.1733 165.071 21.78 165.591 21.46C166.124 21.14 166.791 20.9133 167.591 20.78L171.591 20.12V21.68L168.011 22.28C167.318 22.4 166.811 22.62 166.491 22.94C166.184 23.26 166.031 23.6533 166.031 24.12C166.031 24.56 166.204 24.9267 166.551 25.22C166.911 25.5133 167.358 25.66 167.891 25.66C168.571 25.66 169.158 25.52 169.651 25.24C170.158 24.9467 170.551 24.5533 170.831 24.06C171.124 23.5667 171.271 23.02 171.271 22.42V19.68C171.271 19.0933 171.051 18.62 170.611 18.26C170.184 17.8867 169.618 17.7 168.911 17.7C168.298 17.7 167.751 17.86 167.271 18.18C166.804 18.4867 166.458 18.9 166.231 19.42L164.611 18.58C164.811 18.0867 165.131 17.6467 165.571 17.26C166.011 16.86 166.524 16.5467 167.111 16.32C167.698 16.0933 168.311 15.98 168.951 15.98C169.778 15.98 170.504 16.14 171.131 16.46C171.758 16.7667 172.244 17.2 172.591 17.76C172.951 18.3067 173.131 18.9467 173.131 19.68V27H171.311V24.96L171.651 25.08C171.424 25.5067 171.118 25.88 170.731 26.2C170.344 26.52 169.891 26.7733 169.371 26.96C168.851 27.1467 168.284 27.24 167.671 27.24ZM179.8 27.12C178.746 27.12 177.933 26.82 177.36 26.22C176.8 25.62 176.52 24.7733 176.52 23.68V18H174.56V16.22H174.96C175.44 16.22 175.82 16.0733 176.1 15.78C176.38 15.4867 176.52 15.1 176.52 14.62V13.74H178.38V16.22H180.8V18H178.38V23.62C178.38 23.98 178.433 24.2933 178.54 24.56C178.66 24.8267 178.853 25.04 179.12 25.2C179.386 25.3467 179.74 25.42 180.18 25.42C180.273 25.42 180.386 25.4133 180.52 25.4C180.666 25.3867 180.8 25.3733 180.92 25.36V27C180.746 27.04 180.553 27.0667 180.34 27.08C180.126 27.1067 179.946 27.12 179.8 27.12ZM182.949 27V16.22H184.769V18.2L184.569 17.92C184.823 17.3067 185.209 16.8533 185.729 16.56C186.249 16.2533 186.883 16.1 187.629 16.1H188.289V17.86H187.349C186.589 17.86 185.976 18.1 185.509 18.58C185.043 19.0467 184.809 19.7133 184.809 20.58V27H182.949ZM190.122 31.4C189.882 31.4 189.642 31.38 189.402 31.34C189.162 31.3 188.935 31.2333 188.722 31.14V29.48C188.868 29.5067 189.048 29.5333 189.262 29.56C189.488 29.6 189.708 29.62 189.922 29.62C190.548 29.62 191.022 29.48 191.342 29.2C191.675 28.9333 191.988 28.4667 192.282 27.8L192.962 26.18L192.922 27.8L188.322 16.22H190.342L193.922 25.42H193.322L196.882 16.22H198.942L194.082 28.28C193.855 28.8533 193.562 29.3733 193.202 29.84C192.855 30.32 192.428 30.7 191.922 30.98C191.415 31.26 190.815 31.4 190.122 31.4Z" fill="#2E2F35"/>
</g>
<defs>
<clipPath id="clip0_328_660">
<rect width="205" height="36" fill="white"/>
</clipPath>
</defs>
</svg>
